<?xml version="1.0" encoding="utf-8" standalone="no"?>
<!DOCTYPE svg PUBLIC "-//W3C//DTD SVG 1.1//EN"
  "http://www.w3.org/Graphics/SVG/1.1/DTD/svg11.dtd">
<svg xmlns:xlink="http://www.w3.org/1999/xlink" width="376.334803pt" height="247.985313pt" viewBox="0 0 376.334803 247.985313" xmlns="http://www.w3.org/2000/svg" version="1.1">
 <metadata>
  <rdf:RDF xmlns:dc="http://purl.org/dc/elements/1.1/" xmlns:cc="http://creativecommons.org/ns#" xmlns:rdf="http://www.w3.org/1999/02/22-rdf-syntax-ns#">
   <cc:Work>
    <dc:type rdf:resource="http://purl.org/dc/dcmitype/StillImage"/>
    <dc:date>2022-07-10T23:02:59.882970</dc:date>
    <dc:format>image/svg+xml</dc:format>
    <dc:creator>
     <cc:Agent>
      <dc:title>Matplotlib v3.5.2, https://matplotlib.org/</dc:title>
     </cc:Agent>
    </dc:creator>
   </cc:Work>
  </rdf:RDF>
 </metadata>
 <defs>
  <style type="text/css">*{stroke-linejoin: round; stroke-linecap: butt}</style>
 </defs>
 <g id="figure_1">
  <g id="patch_1">
   <path d="M 0 247.985313 
L 376.334803 247.985313 
L 376.334803 0 
L 0 0 
L 0 247.985313 
z
" style="fill: none"/>
  </g>
  <g id="axes_1">
   <g id="patch_2">
    <path d="M 30.882813 224.64 
L 365.682813 224.64 
L 365.682813 7.2 
L 30.882813 7.2 
z
" style="fill: #eaeaf2"/>
   </g>
   <g id="matplotlib.axis_1">
    <g id="xtick_1">
     <g id="line2d_1">
      <path d="M 38.426729 224.64 
L 38.426729 7.2 
" clip-path="url(#pedc7fab6fc)" style="fill: none; stroke: #ffffff; stroke-linecap: round"/>
     </g>
     <g id="line2d_2"/>
     <g id="text_1">
      <!-- 0.0 -->
      <g style="fill: #262626" transform="translate(31.476729 238.797813)scale(0.1 -0.1)">
       <defs>
        <path id="ArialMT-30" d="M 266 2259 
Q 266 3072 433 3567 
Q 600 4063 929 4331 
Q 1259 4600 1759 4600 
Q 2128 4600 2406 4451 
Q 2684 4303 2865 4023 
Q 3047 3744 3150 3342 
Q 3253 2941 3253 2259 
Q 3253 1453 3087 958 
Q 2922 463 2592 192 
Q 2263 -78 1759 -78 
Q 1097 -78 719 397 
Q 266 969 266 2259 
z
M 844 2259 
Q 844 1131 1108 757 
Q 1372 384 1759 384 
Q 2147 384 2411 759 
Q 2675 1134 2675 2259 
Q 2675 3391 2411 3762 
Q 2147 4134 1753 4134 
Q 1366 4134 1134 3806 
Q 844 3388 844 2259 
z
" transform="scale(0.015625)"/>
        <path id="ArialMT-2e" d="M 581 0 
L 581 641 
L 1222 641 
L 1222 0 
L 581 0 
z
" transform="scale(0.015625)"/>
       </defs>
       <use xlink:href="#ArialMT-30"/>
       <use xlink:href="#ArialMT-2e" x="55.615234"/>
       <use xlink:href="#ArialMT-30" x="83.398438"/>
      </g>
     </g>
    </g>
    <g id="xtick_2">
     <g id="line2d_3">
      <path d="M 103.178344 224.64 
L 103.178344 7.2 
" clip-path="url(#pedc7fab6fc)" style="fill: none; stroke: #ffffff; stroke-linecap: round"/>
     </g>
     <g id="line2d_4"/>
     <g id="text_2">
      <!-- 0.2 -->
      <g style="fill: #262626" transform="translate(96.228344 238.797813)scale(0.1 -0.1)">
       <defs>
        <path id="ArialMT-32" d="M 3222 541 
L 3222 0 
L 194 0 
Q 188 203 259 391 
Q 375 700 629 1000 
Q 884 1300 1366 1694 
Q 2113 2306 2375 2664 
Q 2638 3022 2638 3341 
Q 2638 3675 2398 3904 
Q 2159 4134 1775 4134 
Q 1369 4134 1125 3890 
Q 881 3647 878 3216 
L 300 3275 
Q 359 3922 746 4261 
Q 1134 4600 1788 4600 
Q 2447 4600 2831 4234 
Q 3216 3869 3216 3328 
Q 3216 3053 3103 2787 
Q 2991 2522 2730 2228 
Q 2469 1934 1863 1422 
Q 1356 997 1212 845 
Q 1069 694 975 541 
L 3222 541 
z
" transform="scale(0.015625)"/>
       </defs>
       <use xlink:href="#ArialMT-30"/>
       <use xlink:href="#ArialMT-2e" x="55.615234"/>
       <use xlink:href="#ArialMT-32" x="83.398438"/>
      </g>
     </g>
    </g>
    <g id="xtick_3">
     <g id="line2d_5">
      <path d="M 167.929958 224.64 
L 167.929958 7.2 
" clip-path="url(#pedc7fab6fc)" style="fill: none; stroke: #ffffff; stroke-linecap: round"/>
     </g>
     <g id="line2d_6"/>
     <g id="text_3">
      <!-- 0.4 -->
      <g style="fill: #262626" transform="translate(160.979958 238.797813)scale(0.1 -0.1)">
       <defs>
        <path id="ArialMT-34" d="M 2069 0 
L 2069 1097 
L 81 1097 
L 81 1613 
L 2172 4581 
L 2631 4581 
L 2631 1613 
L 3250 1613 
L 3250 1097 
L 2631 1097 
L 2631 0 
L 2069 0 
z
M 2069 1613 
L 2069 3678 
L 634 1613 
L 2069 1613 
z
" transform="scale(0.015625)"/>
       </defs>
       <use xlink:href="#ArialMT-30"/>
       <use xlink:href="#ArialMT-2e" x="55.615234"/>
       <use xlink:href="#ArialMT-34" x="83.398438"/>
      </g>
     </g>
    </g>
    <g id="xtick_4">
     <g id="line2d_7">
      <path d="M 232.681573 224.64 
L 232.681573 7.2 
" clip-path="url(#pedc7fab6fc)" style="fill: none; stroke: #ffffff; stroke-linecap: round"/>
     </g>
     <g id="line2d_8"/>
     <g id="text_4">
      <!-- 0.6 -->
      <g style="fill: #262626" transform="translate(225.731573 238.797813)scale(0.1 -0.1)">
       <defs>
        <path id="ArialMT-36" d="M 3184 3459 
L 2625 3416 
Q 2550 3747 2413 3897 
Q 2184 4138 1850 4138 
Q 1581 4138 1378 3988 
Q 1113 3794 959 3422 
Q 806 3050 800 2363 
Q 1003 2672 1297 2822 
Q 1591 2972 1913 2972 
Q 2475 2972 2870 2558 
Q 3266 2144 3266 1488 
Q 3266 1056 3080 686 
Q 2894 316 2569 119 
Q 2244 -78 1831 -78 
Q 1128 -78 684 439 
Q 241 956 241 2144 
Q 241 3472 731 4075 
Q 1159 4600 1884 4600 
Q 2425 4600 2770 4297 
Q 3116 3994 3184 3459 
z
M 888 1484 
Q 888 1194 1011 928 
Q 1134 663 1356 523 
Q 1578 384 1822 384 
Q 2178 384 2434 671 
Q 2691 959 2691 1453 
Q 2691 1928 2437 2201 
Q 2184 2475 1800 2475 
Q 1419 2475 1153 2201 
Q 888 1928 888 1484 
z
" transform="scale(0.015625)"/>
       </defs>
       <use xlink:href="#ArialMT-30"/>
       <use xlink:href="#ArialMT-2e" x="55.615234"/>
       <use xlink:href="#ArialMT-36" x="83.398438"/>
      </g>
     </g>
    </g>
    <g id="xtick_5">
     <g id="line2d_9">
      <path d="M 297.433188 224.64 
L 297.433188 7.2 
" clip-path="url(#pedc7fab6fc)" style="fill: none; stroke: #ffffff; stroke-linecap: round"/>
     </g>
     <g id="line2d_10"/>
     <g id="text_5">
      <!-- 0.8 -->
      <g style="fill: #262626" transform="translate(290.483188 238.797813)scale(0.1 -0.1)">
       <defs>
        <path id="ArialMT-38" d="M 1131 2484 
Q 781 2613 612 2850 
Q 444 3088 444 3419 
Q 444 3919 803 4259 
Q 1163 4600 1759 4600 
Q 2359 4600 2725 4251 
Q 3091 3903 3091 3403 
Q 3091 3084 2923 2848 
Q 2756 2613 2416 2484 
Q 2838 2347 3058 2040 
Q 3278 1734 3278 1309 
Q 3278 722 2862 322 
Q 2447 -78 1769 -78 
Q 1091 -78 675 323 
Q 259 725 259 1325 
Q 259 1772 486 2073 
Q 713 2375 1131 2484 
z
M 1019 3438 
Q 1019 3113 1228 2906 
Q 1438 2700 1772 2700 
Q 2097 2700 2305 2904 
Q 2513 3109 2513 3406 
Q 2513 3716 2298 3927 
Q 2084 4138 1766 4138 
Q 1444 4138 1231 3931 
Q 1019 3725 1019 3438 
z
M 838 1322 
Q 838 1081 952 856 
Q 1066 631 1291 507 
Q 1516 384 1775 384 
Q 2178 384 2440 643 
Q 2703 903 2703 1303 
Q 2703 1709 2433 1975 
Q 2163 2241 1756 2241 
Q 1359 2241 1098 1978 
Q 838 1716 838 1322 
z
" transform="scale(0.015625)"/>
       </defs>
       <use xlink:href="#ArialMT-30"/>
       <use xlink:href="#ArialMT-2e" x="55.615234"/>
       <use xlink:href="#ArialMT-38" x="83.398438"/>
      </g>
     </g>
    </g>
    <g id="xtick_6">
     <g id="line2d_11">
      <path d="M 362.184803 224.64 
L 362.184803 7.2 
" clip-path="url(#pedc7fab6fc)" style="fill: none; stroke: #ffffff; stroke-linecap: round"/>
     </g>
     <g id="line2d_12"/>
     <g id="text_6">
      <!-- 1.0 -->
      <g style="fill: #262626" transform="translate(355.234803 238.797813)scale(0.1 -0.1)">
       <defs>
        <path id="ArialMT-31" d="M 2384 0 
L 1822 0 
L 1822 3584 
Q 1619 3391 1289 3197 
Q 959 3003 697 2906 
L 697 3450 
Q 1169 3672 1522 3987 
Q 1875 4303 2022 4600 
L 2384 4600 
L 2384 0 
z
" transform="scale(0.015625)"/>
       </defs>
       <use xlink:href="#ArialMT-31"/>
       <use xlink:href="#ArialMT-2e" x="55.615234"/>
       <use xlink:href="#ArialMT-30" x="83.398438"/>
      </g>
     </g>
    </g>
   </g>
   <g id="matplotlib.axis_2">
    <g id="ytick_1">
     <g id="line2d_13">
      <path d="M 30.882813 224.64 
L 365.682813 224.64 
" clip-path="url(#pedc7fab6fc)" style="fill: none; stroke: #ffffff; stroke-linecap: round"/>
     </g>
     <g id="line2d_14"/>
     <g id="text_7">
      <!-- 0 -->
      <g style="fill: #262626" transform="translate(18.321875 228.218906)scale(0.1 -0.1)">
       <use xlink:href="#ArialMT-30"/>
      </g>
     </g>
    </g>
    <g id="ytick_2">
     <g id="line2d_15">
      <path d="M 30.882813 198.754286 
L 365.682813 198.754286 
" clip-path="url(#pedc7fab6fc)" style="fill: none; stroke: #ffffff; stroke-linecap: round"/>
     </g>
     <g id="line2d_16"/>
     <g id="text_8">
      <!-- 25 -->
      <g style="fill: #262626" transform="translate(12.760938 202.333192)scale(0.1 -0.1)">
       <defs>
        <path id="ArialMT-35" d="M 266 1200 
L 856 1250 
Q 922 819 1161 601 
Q 1400 384 1738 384 
Q 2144 384 2425 690 
Q 2706 997 2706 1503 
Q 2706 1984 2436 2262 
Q 2166 2541 1728 2541 
Q 1456 2541 1237 2417 
Q 1019 2294 894 2097 
L 366 2166 
L 809 4519 
L 3088 4519 
L 3088 3981 
L 1259 3981 
L 1013 2750 
Q 1425 3038 1878 3038 
Q 2478 3038 2890 2622 
Q 3303 2206 3303 1553 
Q 3303 931 2941 478 
Q 2500 -78 1738 -78 
Q 1113 -78 717 272 
Q 322 622 266 1200 
z
" transform="scale(0.015625)"/>
       </defs>
       <use xlink:href="#ArialMT-32"/>
       <use xlink:href="#ArialMT-35" x="55.615234"/>
      </g>
     </g>
    </g>
    <g id="ytick_3">
     <g id="line2d_17">
      <path d="M 30.882813 172.868571 
L 365.682813 172.868571 
" clip-path="url(#pedc7fab6fc)" style="fill: none; stroke: #ffffff; stroke-linecap: round"/>
     </g>
     <g id="line2d_18"/>
     <g id="text_9">
      <!-- 50 -->
      <g style="fill: #262626" transform="translate(12.760938 176.447478)scale(0.1 -0.1)">
       <use xlink:href="#ArialMT-35"/>
       <use xlink:href="#ArialMT-30" x="55.615234"/>
      </g>
     </g>
    </g>
    <g id="ytick_4">
     <g id="line2d_19">
      <path d="M 30.882813 146.982857 
L 365.682813 146.982857 
" clip-path="url(#pedc7fab6fc)" style="fill: none; stroke: #ffffff; stroke-linecap: round"/>
     </g>
     <g id="line2d_20"/>
     <g id="text_10">
      <!-- 75 -->
      <g style="fill: #262626" transform="translate(12.760938 150.561763)scale(0.1 -0.1)">
       <defs>
        <path id="ArialMT-37" d="M 303 3981 
L 303 4522 
L 3269 4522 
L 3269 4084 
Q 2831 3619 2401 2847 
Q 1972 2075 1738 1259 
Q 1569 684 1522 0 
L 944 0 
Q 953 541 1156 1306 
Q 1359 2072 1739 2783 
Q 2119 3494 2547 3981 
L 303 3981 
z
" transform="scale(0.015625)"/>
       </defs>
       <use xlink:href="#ArialMT-37"/>
       <use xlink:href="#ArialMT-35" x="55.615234"/>
      </g>
     </g>
    </g>
    <g id="ytick_5">
     <g id="line2d_21">
      <path d="M 30.882813 121.097143 
L 365.682813 121.097143 
" clip-path="url(#pedc7fab6fc)" style="fill: none; stroke: #ffffff; stroke-linecap: round"/>
     </g>
     <g id="line2d_22"/>
     <g id="text_11">
      <!-- 100 -->
      <g style="fill: #262626" transform="translate(7.2 124.676049)scale(0.1 -0.1)">
       <use xlink:href="#ArialMT-31"/>
       <use xlink:href="#ArialMT-30" x="55.615234"/>
       <use xlink:href="#ArialMT-30" x="111.230469"/>
      </g>
     </g>
    </g>
    <g id="ytick_6">
     <g id="line2d_23">
      <path d="M 30.882813 95.211429 
L 365.682813 95.211429 
" clip-path="url(#pedc7fab6fc)" style="fill: none; stroke: #ffffff; stroke-linecap: round"/>
     </g>
     <g id="line2d_24"/>
     <g id="text_12">
      <!-- 125 -->
      <g style="fill: #262626" transform="translate(7.2 98.790335)scale(0.1 -0.1)">
       <use xlink:href="#ArialMT-31"/>
       <use xlink:href="#ArialMT-32" x="55.615234"/>
       <use xlink:href="#ArialMT-35" x="111.230469"/>
      </g>
     </g>
    </g>
    <g id="ytick_7">
     <g id="line2d_25">
      <path d="M 30.882813 69.325714 
L 365.682813 69.325714 
" clip-path="url(#pedc7fab6fc)" style="fill: none; stroke: #ffffff; stroke-linecap: round"/>
     </g>
     <g id="line2d_26"/>
     <g id="text_13">
      <!-- 150 -->
      <g style="fill: #262626" transform="translate(7.2 72.904621)scale(0.1 -0.1)">
       <use xlink:href="#ArialMT-31"/>
       <use xlink:href="#ArialMT-35" x="55.615234"/>
       <use xlink:href="#ArialMT-30" x="111.230469"/>
      </g>
     </g>
    </g>
    <g id="ytick_8">
     <g id="line2d_27">
      <path d="M 30.882813 43.44 
L 365.682813 43.44 
" clip-path="url(#pedc7fab6fc)" style="fill: none; stroke: #ffffff; stroke-linecap: round"/>
     </g>
     <g id="line2d_28"/>
     <g id="text_14">
      <!-- 175 -->
      <g style="fill: #262626" transform="translate(7.2 47.018906)scale(0.1 -0.1)">
       <use xlink:href="#ArialMT-31"/>
       <use xlink:href="#ArialMT-37" x="55.615234"/>
       <use xlink:href="#ArialMT-35" x="111.230469"/>
      </g>
     </g>
    </g>
    <g id="ytick_9">
     <g id="line2d_29">
      <path d="M 30.882813 17.554286 
L 365.682813 17.554286 
" clip-path="url(#pedc7fab6fc)" style="fill: none; stroke: #ffffff; stroke-linecap: round"/>
     </g>
     <g id="line2d_30"/>
     <g id="text_15">
      <!-- 200 -->
      <g style="fill: #262626" transform="translate(7.2 21.133192)scale(0.1 -0.1)">
       <use xlink:href="#ArialMT-32"/>
       <use xlink:href="#ArialMT-30" x="55.615234"/>
       <use xlink:href="#ArialMT-30" x="111.230469"/>
      </g>
     </g>
    </g>
   </g>
   <g id="patch_3">
    <path d="M 46.100994 224.64 
L 49.144631 224.64 
L 49.144631 189.435429 
L 46.100994 189.435429 
z
" clip-path="url(#pedc7fab6fc)" style="fill: #4c72b0"/>
   </g>
   <g id="patch_4">
    <path d="M 49.144631 224.64 
L 52.188267 224.64 
L 52.188267 206.002286 
L 49.144631 206.002286 
z
" clip-path="url(#pedc7fab6fc)" style="fill: #4c72b0"/>
   </g>
   <g id="patch_5">
    <path d="M 52.188267 224.64 
L 55.231903 224.64 
L 55.231903 208.073143 
L 52.188267 208.073143 
z
" clip-path="url(#pedc7fab6fc)" style="fill: #4c72b0"/>
   </g>
   <g id="patch_6">
    <path d="M 55.231903 224.64 
L 58.27554 224.64 
L 58.27554 223.604571 
L 55.231903 223.604571 
z
" clip-path="url(#pedc7fab6fc)" style="fill: #4c72b0"/>
   </g>
   <g id="patch_7">
    <path d="M 58.27554 224.64 
L 61.319176 224.64 
L 61.319176 201.860571 
L 58.27554 201.860571 
z
" clip-path="url(#pedc7fab6fc)" style="fill: #4c72b0"/>
   </g>
   <g id="patch_8">
    <path d="M 61.319176 224.64 
L 64.362813 224.64 
L 64.362813 224.64 
L 61.319176 224.64 
z
" clip-path="url(#pedc7fab6fc)" style="fill: #4c72b0"/>
   </g>
   <g id="patch_9">
    <path d="M 64.362813 224.64 
L 67.406449 224.64 
L 67.406449 17.554286 
L 64.362813 17.554286 
z
" clip-path="url(#pedc7fab6fc)" style="fill: #4c72b0"/>
   </g>
   <g id="patch_10">
    <path d="M 67.406449 224.64 
L 70.450085 224.64 
L 70.450085 220.498286 
L 67.406449 220.498286 
z
" clip-path="url(#pedc7fab6fc)" style="fill: #4c72b0"/>
   </g>
   <g id="patch_11">
    <path d="M 70.450085 224.64 
L 73.493722 224.64 
L 73.493722 224.64 
L 70.450085 224.64 
z
" clip-path="url(#pedc7fab6fc)" style="fill: #4c72b0"/>
   </g>
   <g id="patch_12">
    <path d="M 73.493722 224.64 
L 76.537358 224.64 
L 76.537358 103.494857 
L 73.493722 103.494857 
z
" clip-path="url(#pedc7fab6fc)" style="fill: #4c72b0"/>
   </g>
   <g id="patch_13">
    <path d="M 76.537358 224.64 
L 79.580994 224.64 
L 79.580994 224.64 
L 76.537358 224.64 
z
" clip-path="url(#pedc7fab6fc)" style="fill: #4c72b0"/>
   </g>
   <g id="patch_14">
    <path d="M 79.580994 224.64 
L 82.624631 224.64 
L 82.624631 212.214857 
L 79.580994 212.214857 
z
" clip-path="url(#pedc7fab6fc)" style="fill: #4c72b0"/>
   </g>
   <g id="patch_15">
    <path d="M 82.624631 224.64 
L 85.668267 224.64 
L 85.668267 213.250286 
L 82.624631 213.250286 
z
" clip-path="url(#pedc7fab6fc)" style="fill: #4c72b0"/>
   </g>
   <g id="patch_16">
    <path d="M 85.668267 224.64 
L 88.711903 224.64 
L 88.711903 202.896 
L 85.668267 202.896 
z
" clip-path="url(#pedc7fab6fc)" style="fill: #4c72b0"/>
   </g>
   <g id="patch_17">
    <path d="M 88.711903 224.64 
L 91.75554 224.64 
L 91.75554 187.364571 
L 88.711903 187.364571 
z
" clip-path="url(#pedc7fab6fc)" style="fill: #4c72b0"/>
   </g>
   <g id="patch_18">
    <path d="M 91.75554 224.64 
L 94.799176 224.64 
L 94.799176 218.427429 
L 91.75554 218.427429 
z
" clip-path="url(#pedc7fab6fc)" style="fill: #4c72b0"/>
   </g>
   <g id="patch_19">
    <path d="M 94.799176 224.64 
L 97.842813 224.64 
L 97.842813 218.427429 
L 94.799176 218.427429 
z
" clip-path="url(#pedc7fab6fc)" style="fill: #4c72b0"/>
   </g>
   <g id="patch_20">
    <path d="M 97.842813 224.64 
L 100.886449 224.64 
L 100.886449 212.214857 
L 97.842813 212.214857 
z
" clip-path="url(#pedc7fab6fc)" style="fill: #4c72b0"/>
   </g>
   <g id="patch_21">
    <path d="M 100.886449 224.64 
L 103.930085 224.64 
L 103.930085 198.754286 
L 100.886449 198.754286 
z
" clip-path="url(#pedc7fab6fc)" style="fill: #4c72b0"/>
   </g>
   <g id="patch_22">
    <path d="M 103.930085 224.64 
L 106.973722 224.64 
L 106.973722 160.443429 
L 103.930085 160.443429 
z
" clip-path="url(#pedc7fab6fc)" style="fill: #4c72b0"/>
   </g>
   <g id="patch_23">
    <path d="M 106.973722 224.64 
L 110.017358 224.64 
L 110.017358 222.569143 
L 106.973722 222.569143 
z
" clip-path="url(#pedc7fab6fc)" style="fill: #4c72b0"/>
   </g>
   <g id="patch_24">
    <path d="M 110.017358 224.64 
L 113.060994 224.64 
L 113.060994 203.931429 
L 110.017358 203.931429 
z
" clip-path="url(#pedc7fab6fc)" style="fill: #4c72b0"/>
   </g>
   <g id="patch_25">
    <path d="M 113.060994 224.64 
L 116.104631 224.64 
L 116.104631 224.64 
L 113.060994 224.64 
z
" clip-path="url(#pedc7fab6fc)" style="fill: #4c72b0"/>
   </g>
   <g id="patch_26">
    <path d="M 116.104631 224.64 
L 119.148267 224.64 
L 119.148267 224.64 
L 116.104631 224.64 
z
" clip-path="url(#pedc7fab6fc)" style="fill: #4c72b0"/>
   </g>
   <g id="patch_27">
    <path d="M 119.148267 224.64 
L 122.191903 224.64 
L 122.191903 213.250286 
L 119.148267 213.250286 
z
" clip-path="url(#pedc7fab6fc)" style="fill: #4c72b0"/>
   </g>
   <g id="patch_28">
    <path d="M 122.191903 224.64 
L 125.23554 224.64 
L 125.23554 220.498286 
L 122.191903 220.498286 
z
" clip-path="url(#pedc7fab6fc)" style="fill: #4c72b0"/>
   </g>
   <g id="patch_29">
    <path d="M 125.23554 224.64 
L 128.279176 224.64 
L 128.279176 224.64 
L 125.23554 224.64 
z
" clip-path="url(#pedc7fab6fc)" style="fill: #4c72b0"/>
   </g>
   <g id="patch_30">
    <path d="M 128.279176 224.64 
L 131.322813 224.64 
L 131.322813 180.116571 
L 128.279176 180.116571 
z
" clip-path="url(#pedc7fab6fc)" style="fill: #4c72b0"/>
   </g>
   <g id="patch_31">
    <path d="M 131.322812 224.64 
L 134.366449 224.64 
L 134.366449 219.462857 
L 131.322812 219.462857 
z
" clip-path="url(#pedc7fab6fc)" style="fill: #4c72b0"/>
   </g>
   <g id="patch_32">
    <path d="M 134.366449 224.64 
L 137.410085 224.64 
L 137.410085 223.604571 
L 134.366449 223.604571 
z
" clip-path="url(#pedc7fab6fc)" style="fill: #4c72b0"/>
   </g>
   <g id="patch_33">
    <path d="M 137.410085 224.64 
L 140.453722 224.64 
L 140.453722 206.002286 
L 137.410085 206.002286 
z
" clip-path="url(#pedc7fab6fc)" style="fill: #4c72b0"/>
   </g>
   <g id="patch_34">
    <path d="M 140.453722 224.64 
L 143.497358 224.64 
L 143.497358 222.569143 
L 140.453722 222.569143 
z
" clip-path="url(#pedc7fab6fc)" style="fill: #4c72b0"/>
   </g>
   <g id="patch_35">
    <path d="M 143.497358 224.64 
L 146.540994 224.64 
L 146.540994 217.392 
L 143.497358 217.392 
z
" clip-path="url(#pedc7fab6fc)" style="fill: #4c72b0"/>
   </g>
   <g id="patch_36">
    <path d="M 146.540994 224.64 
L 149.584631 224.64 
L 149.584631 224.64 
L 146.540994 224.64 
z
" clip-path="url(#pedc7fab6fc)" style="fill: #4c72b0"/>
   </g>
   <g id="patch_37">
    <path d="M 149.584631 224.64 
L 152.628267 224.64 
L 152.628267 224.64 
L 149.584631 224.64 
z
" clip-path="url(#pedc7fab6fc)" style="fill: #4c72b0"/>
   </g>
   <g id="patch_38">
    <path d="M 152.628267 224.64 
L 155.671903 224.64 
L 155.671903 202.896 
L 152.628267 202.896 
z
" clip-path="url(#pedc7fab6fc)" style="fill: #4c72b0"/>
   </g>
   <g id="patch_39">
    <path d="M 155.671903 224.64 
L 158.71554 224.64 
L 158.71554 221.533714 
L 155.671903 221.533714 
z
" clip-path="url(#pedc7fab6fc)" style="fill: #4c72b0"/>
   </g>
   <g id="patch_40">
    <path d="M 158.71554 224.64 
L 161.759176 224.64 
L 161.759176 211.179429 
L 158.71554 211.179429 
z
" clip-path="url(#pedc7fab6fc)" style="fill: #4c72b0"/>
   </g>
   <g id="patch_41">
    <path d="M 161.759176 224.64 
L 164.802813 224.64 
L 164.802813 224.64 
L 161.759176 224.64 
z
" clip-path="url(#pedc7fab6fc)" style="fill: #4c72b0"/>
   </g>
   <g id="patch_42">
    <path d="M 164.802813 224.64 
L 167.846449 224.64 
L 167.846449 184.258286 
L 164.802813 184.258286 
z
" clip-path="url(#pedc7fab6fc)" style="fill: #4c72b0"/>
   </g>
   <g id="patch_43">
    <path d="M 167.846449 224.64 
L 170.890085 224.64 
L 170.890085 91.069714 
L 167.846449 91.069714 
z
" clip-path="url(#pedc7fab6fc)" style="fill: #4c72b0"/>
   </g>
   <g id="patch_44">
    <path d="M 170.890085 224.64 
L 173.933722 224.64 
L 173.933722 224.64 
L 170.890085 224.64 
z
" clip-path="url(#pedc7fab6fc)" style="fill: #4c72b0"/>
   </g>
   <g id="patch_45">
    <path d="M 173.933722 224.64 
L 176.977358 224.64 
L 176.977358 198.754286 
L 173.933722 198.754286 
z
" clip-path="url(#pedc7fab6fc)" style="fill: #4c72b0"/>
   </g>
   <g id="patch_46">
    <path d="M 176.977358 224.64 
L 180.020994 224.64 
L 180.020994 211.179429 
L 176.977358 211.179429 
z
" clip-path="url(#pedc7fab6fc)" style="fill: #4c72b0"/>
   </g>
   <g id="patch_47">
    <path d="M 180.020994 224.64 
L 183.064631 224.64 
L 183.064631 224.64 
L 180.020994 224.64 
z
" clip-path="url(#pedc7fab6fc)" style="fill: #4c72b0"/>
   </g>
   <g id="patch_48">
    <path d="M 183.064631 224.64 
L 186.108267 224.64 
L 186.108267 178.045714 
L 183.064631 178.045714 
z
" clip-path="url(#pedc7fab6fc)" style="fill: #4c72b0"/>
   </g>
   <g id="patch_49">
    <path d="M 186.108267 224.64 
L 189.151903 224.64 
L 189.151903 220.498286 
L 186.108267 220.498286 
z
" clip-path="url(#pedc7fab6fc)" style="fill: #4c72b0"/>
   </g>
   <g id="patch_50">
    <path d="M 189.151903 224.64 
L 192.19554 224.64 
L 192.19554 223.604571 
L 189.151903 223.604571 
z
" clip-path="url(#pedc7fab6fc)" style="fill: #4c72b0"/>
   </g>
   <g id="patch_51">
    <path d="M 192.19554 224.64 
L 195.239176 224.64 
L 195.239176 207.037714 
L 192.19554 207.037714 
z
" clip-path="url(#pedc7fab6fc)" style="fill: #4c72b0"/>
   </g>
   <g id="patch_52">
    <path d="M 195.239176 224.64 
L 198.282813 224.64 
L 198.282813 208.073143 
L 195.239176 208.073143 
z
" clip-path="url(#pedc7fab6fc)" style="fill: #4c72b0"/>
   </g>
   <g id="patch_53">
    <path d="M 198.282813 224.64 
L 201.326449 224.64 
L 201.326449 220.498286 
L 198.282813 220.498286 
z
" clip-path="url(#pedc7fab6fc)" style="fill: #4c72b0"/>
   </g>
   <g id="patch_54">
    <path d="M 201.326449 224.64 
L 204.370085 224.64 
L 204.370085 211.179429 
L 201.326449 211.179429 
z
" clip-path="url(#pedc7fab6fc)" style="fill: #4c72b0"/>
   </g>
   <g id="patch_55">
    <path d="M 204.370085 224.64 
L 207.413722 224.64 
L 207.413722 200.825143 
L 204.370085 200.825143 
z
" clip-path="url(#pedc7fab6fc)" style="fill: #4c72b0"/>
   </g>
   <g id="patch_56">
    <path d="M 207.413722 224.64 
L 210.457358 224.64 
L 210.457358 217.392 
L 207.413722 217.392 
z
" clip-path="url(#pedc7fab6fc)" style="fill: #4c72b0"/>
   </g>
   <g id="patch_57">
    <path d="M 210.457358 224.64 
L 213.500994 224.64 
L 213.500994 221.533714 
L 210.457358 221.533714 
z
" clip-path="url(#pedc7fab6fc)" style="fill: #4c72b0"/>
   </g>
   <g id="patch_58">
    <path d="M 213.500994 224.64 
L 216.544631 224.64 
L 216.544631 215.321143 
L 213.500994 215.321143 
z
" clip-path="url(#pedc7fab6fc)" style="fill: #4c72b0"/>
   </g>
   <g id="patch_59">
    <path d="M 216.544631 224.64 
L 219.588267 224.64 
L 219.588267 204.966857 
L 216.544631 204.966857 
z
" clip-path="url(#pedc7fab6fc)" style="fill: #4c72b0"/>
   </g>
   <g id="patch_60">
    <path d="M 219.588267 224.64 
L 222.631903 224.64 
L 222.631903 222.569143 
L 219.588267 222.569143 
z
" clip-path="url(#pedc7fab6fc)" style="fill: #4c72b0"/>
   </g>
   <g id="patch_61">
    <path d="M 222.631903 224.64 
L 225.67554 224.64 
L 225.67554 217.392 
L 222.631903 217.392 
z
" clip-path="url(#pedc7fab6fc)" style="fill: #4c72b0"/>
   </g>
   <g id="patch_62">
    <path d="M 225.67554 224.64 
L 228.719176 224.64 
L 228.719176 180.116571 
L 225.67554 180.116571 
z
" clip-path="url(#pedc7fab6fc)" style="fill: #4c72b0"/>
   </g>
   <g id="patch_63">
    <path d="M 228.719176 224.64 
L 231.762812 224.64 
L 231.762812 193.577143 
L 228.719176 193.577143 
z
" clip-path="url(#pedc7fab6fc)" style="fill: #4c72b0"/>
   </g>
   <g id="patch_64">
    <path d="M 231.762812 224.64 
L 234.806449 224.64 
L 234.806449 152.16 
L 231.762812 152.16 
z
" clip-path="url(#pedc7fab6fc)" style="fill: #4c72b0"/>
   </g>
   <g id="patch_65">
    <path d="M 234.806449 224.64 
L 237.850085 224.64 
L 237.850085 224.64 
L 234.806449 224.64 
z
" clip-path="url(#pedc7fab6fc)" style="fill: #4c72b0"/>
   </g>
   <g id="patch_66">
    <path d="M 237.850085 224.64 
L 240.893722 224.64 
L 240.893722 190.470857 
L 237.850085 190.470857 
z
" clip-path="url(#pedc7fab6fc)" style="fill: #4c72b0"/>
   </g>
   <g id="patch_67">
    <path d="M 240.893722 224.64 
L 243.937358 224.64 
L 243.937358 190.470857 
L 240.893722 190.470857 
z
" clip-path="url(#pedc7fab6fc)" style="fill: #4c72b0"/>
   </g>
   <g id="patch_68">
    <path d="M 243.937358 224.64 
L 246.980994 224.64 
L 246.980994 224.64 
L 243.937358 224.64 
z
" clip-path="url(#pedc7fab6fc)" style="fill: #4c72b0"/>
   </g>
   <g id="patch_69">
    <path d="M 246.980994 224.64 
L 250.024631 224.64 
L 250.024631 211.179429 
L 246.980994 211.179429 
z
" clip-path="url(#pedc7fab6fc)" style="fill: #4c72b0"/>
   </g>
   <g id="patch_70">
    <path d="M 250.024631 224.64 
L 253.068267 224.64 
L 253.068267 220.498286 
L 250.024631 220.498286 
z
" clip-path="url(#pedc7fab6fc)" style="fill: #4c72b0"/>
   </g>
   <g id="patch_71">
    <path d="M 253.068267 224.64 
L 256.111903 224.64 
L 256.111903 223.604571 
L 253.068267 223.604571 
z
" clip-path="url(#pedc7fab6fc)" style="fill: #4c72b0"/>
   </g>
   <g id="patch_72">
    <path d="M 256.111903 224.64 
L 259.15554 224.64 
L 259.15554 198.754286 
L 256.111903 198.754286 
z
" clip-path="url(#pedc7fab6fc)" style="fill: #4c72b0"/>
   </g>
   <g id="patch_73">
    <path d="M 259.15554 224.64 
L 262.199176 224.64 
L 262.199176 217.392 
L 259.15554 217.392 
z
" clip-path="url(#pedc7fab6fc)" style="fill: #4c72b0"/>
   </g>
   <g id="patch_74">
    <path d="M 262.199176 224.64 
L 265.242812 224.64 
L 265.242812 217.392 
L 262.199176 217.392 
z
" clip-path="url(#pedc7fab6fc)" style="fill: #4c72b0"/>
   </g>
   <g id="patch_75">
    <path d="M 265.242813 224.64 
L 268.286449 224.64 
L 268.286449 224.64 
L 265.242813 224.64 
z
" clip-path="url(#pedc7fab6fc)" style="fill: #4c72b0"/>
   </g>
   <g id="patch_76">
    <path d="M 268.286449 224.64 
L 271.330085 224.64 
L 271.330085 219.462857 
L 268.286449 219.462857 
z
" clip-path="url(#pedc7fab6fc)" style="fill: #4c72b0"/>
   </g>
   <g id="patch_77">
    <path d="M 271.330085 224.64 
L 274.373722 224.64 
L 274.373722 224.64 
L 271.330085 224.64 
z
" clip-path="url(#pedc7fab6fc)" style="fill: #4c72b0"/>
   </g>
   <g id="patch_78">
    <path d="M 274.373722 224.64 
L 277.417358 224.64 
L 277.417358 223.604571 
L 274.373722 223.604571 
z
" clip-path="url(#pedc7fab6fc)" style="fill: #4c72b0"/>
   </g>
   <g id="patch_79">
    <path d="M 277.417358 224.64 
L 280.460994 224.64 
L 280.460994 217.392 
L 277.417358 217.392 
z
" clip-path="url(#pedc7fab6fc)" style="fill: #4c72b0"/>
   </g>
   <g id="patch_80">
    <path d="M 280.460994 224.64 
L 283.504631 224.64 
L 283.504631 222.569143 
L 280.460994 222.569143 
z
" clip-path="url(#pedc7fab6fc)" style="fill: #4c72b0"/>
   </g>
   <g id="patch_81">
    <path d="M 283.504631 224.64 
L 286.548267 224.64 
L 286.548267 222.569143 
L 283.504631 222.569143 
z
" clip-path="url(#pedc7fab6fc)" style="fill: #4c72b0"/>
   </g>
   <g id="patch_82">
    <path d="M 286.548267 224.64 
L 289.591903 224.64 
L 289.591903 212.214857 
L 286.548267 212.214857 
z
" clip-path="url(#pedc7fab6fc)" style="fill: #4c72b0"/>
   </g>
   <g id="patch_83">
    <path d="M 289.591903 224.64 
L 292.63554 224.64 
L 292.63554 192.541714 
L 289.591903 192.541714 
z
" clip-path="url(#pedc7fab6fc)" style="fill: #4c72b0"/>
   </g>
   <g id="patch_84">
    <path d="M 292.63554 224.64 
L 295.679176 224.64 
L 295.679176 223.604571 
L 292.63554 223.604571 
z
" clip-path="url(#pedc7fab6fc)" style="fill: #4c72b0"/>
   </g>
   <g id="patch_85">
    <path d="M 295.679176 224.64 
L 298.722812 224.64 
L 298.722812 220.498286 
L 295.679176 220.498286 
z
" clip-path="url(#pedc7fab6fc)" style="fill: #4c72b0"/>
   </g>
   <g id="patch_86">
    <path d="M 298.722813 224.64 
L 301.766449 224.64 
L 301.766449 224.64 
L 298.722813 224.64 
z
" clip-path="url(#pedc7fab6fc)" style="fill: #4c72b0"/>
   </g>
   <g id="patch_87">
    <path d="M 301.766449 224.64 
L 304.810085 224.64 
L 304.810085 224.64 
L 301.766449 224.64 
z
" clip-path="url(#pedc7fab6fc)" style="fill: #4c72b0"/>
   </g>
   <g id="patch_88">
    <path d="M 304.810085 224.64 
L 307.853722 224.64 
L 307.853722 224.64 
L 304.810085 224.64 
z
" clip-path="url(#pedc7fab6fc)" style="fill: #4c72b0"/>
   </g>
   <g id="patch_89">
    <path d="M 307.853722 224.64 
L 310.897358 224.64 
L 310.897358 224.64 
L 307.853722 224.64 
z
" clip-path="url(#pedc7fab6fc)" style="fill: #4c72b0"/>
   </g>
   <g id="patch_90">
    <path d="M 310.897358 224.64 
L 313.940994 224.64 
L 313.940994 203.931429 
L 310.897358 203.931429 
z
" clip-path="url(#pedc7fab6fc)" style="fill: #4c72b0"/>
   </g>
   <g id="patch_91">
    <path d="M 313.940994 224.64 
L 316.984631 224.64 
L 316.984631 220.498286 
L 313.940994 220.498286 
z
" clip-path="url(#pedc7fab6fc)" style="fill: #4c72b0"/>
   </g>
   <g id="patch_92">
    <path d="M 316.984631 224.64 
L 320.028267 224.64 
L 320.028267 224.64 
L 316.984631 224.64 
z
" clip-path="url(#pedc7fab6fc)" style="fill: #4c72b0"/>
   </g>
   <g id="patch_93">
    <path d="M 320.028267 224.64 
L 323.071903 224.64 
L 323.071903 220.498286 
L 320.028267 220.498286 
z
" clip-path="url(#pedc7fab6fc)" style="fill: #4c72b0"/>
   </g>
   <g id="patch_94">
    <path d="M 323.071903 224.64 
L 326.11554 224.64 
L 326.11554 224.64 
L 323.071903 224.64 
z
" clip-path="url(#pedc7fab6fc)" style="fill: #4c72b0"/>
   </g>
   <g id="patch_95">
    <path d="M 326.11554 224.64 
L 329.159176 224.64 
L 329.159176 223.604571 
L 326.11554 223.604571 
z
" clip-path="url(#pedc7fab6fc)" style="fill: #4c72b0"/>
   </g>
   <g id="patch_96">
    <path d="M 329.159176 224.64 
L 332.202812 224.64 
L 332.202812 224.64 
L 329.159176 224.64 
z
" clip-path="url(#pedc7fab6fc)" style="fill: #4c72b0"/>
   </g>
   <g id="patch_97">
    <path d="M 332.202812 224.64 
L 335.246449 224.64 
L 335.246449 221.533714 
L 332.202812 221.533714 
z
" clip-path="url(#pedc7fab6fc)" style="fill: #4c72b0"/>
   </g>
   <g id="patch_98">
    <path d="M 335.246449 224.64 
L 338.290085 224.64 
L 338.290085 224.64 
L 335.246449 224.64 
z
" clip-path="url(#pedc7fab6fc)" style="fill: #4c72b0"/>
   </g>
   <g id="patch_99">
    <path d="M 338.290085 224.64 
L 341.333722 224.64 
L 341.333722 224.64 
L 338.290085 224.64 
z
" clip-path="url(#pedc7fab6fc)" style="fill: #4c72b0"/>
   </g>
   <g id="patch_100">
    <path d="M 341.333722 224.64 
L 344.377358 224.64 
L 344.377358 224.64 
L 341.333722 224.64 
z
" clip-path="url(#pedc7fab6fc)" style="fill: #4c72b0"/>
   </g>
   <g id="patch_101">
    <path d="M 344.377358 224.64 
L 347.420994 224.64 
L 347.420994 218.427429 
L 344.377358 218.427429 
z
" clip-path="url(#pedc7fab6fc)" style="fill: #4c72b0"/>
   </g>
   <g id="patch_102">
    <path d="M 347.420994 224.64 
L 350.464631 224.64 
L 350.464631 222.569143 
L 347.420994 222.569143 
z
" clip-path="url(#pedc7fab6fc)" style="fill: #4c72b0"/>
   </g>
   <g id="patch_103">
    <path d="M 30.882813 224.64 
L 30.882813 7.2 
" style="fill: none"/>
   </g>
   <g id="patch_104">
    <path d="M 365.682813 224.64 
L 365.682813 7.2 
" style="fill: none"/>
   </g>
   <g id="patch_105">
    <path d="M 30.882813 224.64 
L 365.682813 224.64 
" style="fill: none"/>
   </g>
   <g id="patch_106">
    <path d="M 30.882813 7.2 
L 365.682813 7.2 
" style="fill: none"/>
   </g>
  </g>
 </g>
 <defs>
  <clipPath id="pedc7fab6fc">
   <rect x="30.882813" y="7.2" width="334.8" height="217.44"/>
  </clipPath>
 </defs>
</svg>
