<?xml version="1.0" encoding="utf-8" standalone="no"?>
<!DOCTYPE svg PUBLIC "-//W3C//DTD SVG 1.1//EN"
  "http://www.w3.org/Graphics/SVG/1.1/DTD/svg11.dtd">
<svg xmlns:xlink="http://www.w3.org/1999/xlink" width="372.882812pt" height="247.985312pt" viewBox="0 0 372.882812 247.985312" xmlns="http://www.w3.org/2000/svg" version="1.1">
 <metadata>
  <rdf:RDF xmlns:dc="http://purl.org/dc/elements/1.1/" xmlns:cc="http://creativecommons.org/ns#" xmlns:rdf="http://www.w3.org/1999/02/22-rdf-syntax-ns#">
   <cc:Work>
    <dc:type rdf:resource="http://purl.org/dc/dcmitype/StillImage"/>
    <dc:date>2022-07-10T23:03:00.016403</dc:date>
    <dc:format>image/svg+xml</dc:format>
    <dc:creator>
     <cc:Agent>
      <dc:title>Matplotlib v3.5.2, https://matplotlib.org/</dc:title>
     </cc:Agent>
    </dc:creator>
   </cc:Work>
  </rdf:RDF>
 </metadata>
 <defs>
  <style type="text/css">*{stroke-linejoin: round; stroke-linecap: butt}</style>
 </defs>
 <g id="figure_1">
  <g id="patch_1">
   <path d="M 0 247.985312 
L 372.882812 247.985312 
L 372.882812 0 
L 0 0 
L 0 247.985312 
z
" style="fill: none"/>
  </g>
  <g id="axes_1">
   <g id="patch_2">
    <path d="M 30.882813 224.64 
L 365.682813 224.64 
L 365.682813 7.2 
L 30.882813 7.2 
z
" style="fill: #eaeaf2"/>
   </g>
   <g id="matplotlib.axis_1">
    <g id="xtick_1">
     <g id="line2d_1">
      <path d="M 46.100994 224.64 
L 46.100994 7.2 
" clip-path="url(#p1d6144e39c)" style="fill: none; stroke: #ffffff; stroke-linecap: round"/>
     </g>
     <g id="line2d_2"/>
     <g id="text_1">
      <!-- 0.0 -->
      <g style="fill: #262626" transform="translate(39.150994 238.797812)scale(0.1 -0.1)">
       <defs>
        <path id="ArialMT-30" d="M 266 2259 
Q 266 3072 433 3567 
Q 600 4063 929 4331 
Q 1259 4600 1759 4600 
Q 2128 4600 2406 4451 
Q 2684 4303 2865 4023 
Q 3047 3744 3150 3342 
Q 3253 2941 3253 2259 
Q 3253 1453 3087 958 
Q 2922 463 2592 192 
Q 2263 -78 1759 -78 
Q 1097 -78 719 397 
Q 266 969 266 2259 
z
M 844 2259 
Q 844 1131 1108 757 
Q 1372 384 1759 384 
Q 2147 384 2411 759 
Q 2675 1134 2675 2259 
Q 2675 3391 2411 3762 
Q 2147 4134 1753 4134 
Q 1366 4134 1134 3806 
Q 844 3388 844 2259 
z
" transform="scale(0.015625)"/>
        <path id="ArialMT-2e" d="M 581 0 
L 581 641 
L 1222 641 
L 1222 0 
L 581 0 
z
" transform="scale(0.015625)"/>
       </defs>
       <use xlink:href="#ArialMT-30"/>
       <use xlink:href="#ArialMT-2e" x="55.615234"/>
       <use xlink:href="#ArialMT-30" x="83.398438"/>
      </g>
     </g>
    </g>
    <g id="xtick_2">
     <g id="line2d_3">
      <path d="M 106.973722 224.64 
L 106.973722 7.2 
" clip-path="url(#p1d6144e39c)" style="fill: none; stroke: #ffffff; stroke-linecap: round"/>
     </g>
     <g id="line2d_4"/>
     <g id="text_2">
      <!-- 0.2 -->
      <g style="fill: #262626" transform="translate(100.023722 238.797812)scale(0.1 -0.1)">
       <defs>
        <path id="ArialMT-32" d="M 3222 541 
L 3222 0 
L 194 0 
Q 188 203 259 391 
Q 375 700 629 1000 
Q 884 1300 1366 1694 
Q 2113 2306 2375 2664 
Q 2638 3022 2638 3341 
Q 2638 3675 2398 3904 
Q 2159 4134 1775 4134 
Q 1369 4134 1125 3890 
Q 881 3647 878 3216 
L 300 3275 
Q 359 3922 746 4261 
Q 1134 4600 1788 4600 
Q 2447 4600 2831 4234 
Q 3216 3869 3216 3328 
Q 3216 3053 3103 2787 
Q 2991 2522 2730 2228 
Q 2469 1934 1863 1422 
Q 1356 997 1212 845 
Q 1069 694 975 541 
L 3222 541 
z
" transform="scale(0.015625)"/>
       </defs>
       <use xlink:href="#ArialMT-30"/>
       <use xlink:href="#ArialMT-2e" x="55.615234"/>
       <use xlink:href="#ArialMT-32" x="83.398438"/>
      </g>
     </g>
    </g>
    <g id="xtick_3">
     <g id="line2d_5">
      <path d="M 167.846449 224.64 
L 167.846449 7.2 
" clip-path="url(#p1d6144e39c)" style="fill: none; stroke: #ffffff; stroke-linecap: round"/>
     </g>
     <g id="line2d_6"/>
     <g id="text_3">
      <!-- 0.4 -->
      <g style="fill: #262626" transform="translate(160.896449 238.797812)scale(0.1 -0.1)">
       <defs>
        <path id="ArialMT-34" d="M 2069 0 
L 2069 1097 
L 81 1097 
L 81 1613 
L 2172 4581 
L 2631 4581 
L 2631 1613 
L 3250 1613 
L 3250 1097 
L 2631 1097 
L 2631 0 
L 2069 0 
z
M 2069 1613 
L 2069 3678 
L 634 1613 
L 2069 1613 
z
" transform="scale(0.015625)"/>
       </defs>
       <use xlink:href="#ArialMT-30"/>
       <use xlink:href="#ArialMT-2e" x="55.615234"/>
       <use xlink:href="#ArialMT-34" x="83.398438"/>
      </g>
     </g>
    </g>
    <g id="xtick_4">
     <g id="line2d_7">
      <path d="M 228.719176 224.64 
L 228.719176 7.2 
" clip-path="url(#p1d6144e39c)" style="fill: none; stroke: #ffffff; stroke-linecap: round"/>
     </g>
     <g id="line2d_8"/>
     <g id="text_4">
      <!-- 0.6 -->
      <g style="fill: #262626" transform="translate(221.769176 238.797812)scale(0.1 -0.1)">
       <defs>
        <path id="ArialMT-36" d="M 3184 3459 
L 2625 3416 
Q 2550 3747 2413 3897 
Q 2184 4138 1850 4138 
Q 1581 4138 1378 3988 
Q 1113 3794 959 3422 
Q 806 3050 800 2363 
Q 1003 2672 1297 2822 
Q 1591 2972 1913 2972 
Q 2475 2972 2870 2558 
Q 3266 2144 3266 1488 
Q 3266 1056 3080 686 
Q 2894 316 2569 119 
Q 2244 -78 1831 -78 
Q 1128 -78 684 439 
Q 241 956 241 2144 
Q 241 3472 731 4075 
Q 1159 4600 1884 4600 
Q 2425 4600 2770 4297 
Q 3116 3994 3184 3459 
z
M 888 1484 
Q 888 1194 1011 928 
Q 1134 663 1356 523 
Q 1578 384 1822 384 
Q 2178 384 2434 671 
Q 2691 959 2691 1453 
Q 2691 1928 2437 2201 
Q 2184 2475 1800 2475 
Q 1419 2475 1153 2201 
Q 888 1928 888 1484 
z
" transform="scale(0.015625)"/>
       </defs>
       <use xlink:href="#ArialMT-30"/>
       <use xlink:href="#ArialMT-2e" x="55.615234"/>
       <use xlink:href="#ArialMT-36" x="83.398438"/>
      </g>
     </g>
    </g>
    <g id="xtick_5">
     <g id="line2d_9">
      <path d="M 289.591903 224.64 
L 289.591903 7.2 
" clip-path="url(#p1d6144e39c)" style="fill: none; stroke: #ffffff; stroke-linecap: round"/>
     </g>
     <g id="line2d_10"/>
     <g id="text_5">
      <!-- 0.8 -->
      <g style="fill: #262626" transform="translate(282.641903 238.797812)scale(0.1 -0.1)">
       <defs>
        <path id="ArialMT-38" d="M 1131 2484 
Q 781 2613 612 2850 
Q 444 3088 444 3419 
Q 444 3919 803 4259 
Q 1163 4600 1759 4600 
Q 2359 4600 2725 4251 
Q 3091 3903 3091 3403 
Q 3091 3084 2923 2848 
Q 2756 2613 2416 2484 
Q 2838 2347 3058 2040 
Q 3278 1734 3278 1309 
Q 3278 722 2862 322 
Q 2447 -78 1769 -78 
Q 1091 -78 675 323 
Q 259 725 259 1325 
Q 259 1772 486 2073 
Q 713 2375 1131 2484 
z
M 1019 3438 
Q 1019 3113 1228 2906 
Q 1438 2700 1772 2700 
Q 2097 2700 2305 2904 
Q 2513 3109 2513 3406 
Q 2513 3716 2298 3927 
Q 2084 4138 1766 4138 
Q 1444 4138 1231 3931 
Q 1019 3725 1019 3438 
z
M 838 1322 
Q 838 1081 952 856 
Q 1066 631 1291 507 
Q 1516 384 1775 384 
Q 2178 384 2440 643 
Q 2703 903 2703 1303 
Q 2703 1709 2433 1975 
Q 2163 2241 1756 2241 
Q 1359 2241 1098 1978 
Q 838 1716 838 1322 
z
" transform="scale(0.015625)"/>
       </defs>
       <use xlink:href="#ArialMT-30"/>
       <use xlink:href="#ArialMT-2e" x="55.615234"/>
       <use xlink:href="#ArialMT-38" x="83.398438"/>
      </g>
     </g>
    </g>
    <g id="xtick_6">
     <g id="line2d_11">
      <path d="M 350.464631 224.64 
L 350.464631 7.2 
" clip-path="url(#p1d6144e39c)" style="fill: none; stroke: #ffffff; stroke-linecap: round"/>
     </g>
     <g id="line2d_12"/>
     <g id="text_6">
      <!-- 1.0 -->
      <g style="fill: #262626" transform="translate(343.514631 238.797812)scale(0.1 -0.1)">
       <defs>
        <path id="ArialMT-31" d="M 2384 0 
L 1822 0 
L 1822 3584 
Q 1619 3391 1289 3197 
Q 959 3003 697 2906 
L 697 3450 
Q 1169 3672 1522 3987 
Q 1875 4303 2022 4600 
L 2384 4600 
L 2384 0 
z
" transform="scale(0.015625)"/>
       </defs>
       <use xlink:href="#ArialMT-31"/>
       <use xlink:href="#ArialMT-2e" x="55.615234"/>
       <use xlink:href="#ArialMT-30" x="83.398438"/>
      </g>
     </g>
    </g>
   </g>
   <g id="matplotlib.axis_2">
    <g id="ytick_1">
     <g id="line2d_13">
      <path d="M 30.882813 224.64 
L 365.682813 224.64 
" clip-path="url(#p1d6144e39c)" style="fill: none; stroke: #ffffff; stroke-linecap: round"/>
     </g>
     <g id="line2d_14"/>
     <g id="text_7">
      <!-- 0 -->
      <g style="fill: #262626" transform="translate(18.321875 228.218906)scale(0.1 -0.1)">
       <use xlink:href="#ArialMT-30"/>
      </g>
     </g>
    </g>
    <g id="ytick_2">
     <g id="line2d_15">
      <path d="M 30.882813 186.361679 
L 365.682813 186.361679 
" clip-path="url(#p1d6144e39c)" style="fill: none; stroke: #ffffff; stroke-linecap: round"/>
     </g>
     <g id="line2d_16"/>
     <g id="text_8">
      <!-- 100 -->
      <g style="fill: #262626" transform="translate(7.2 189.940586)scale(0.1 -0.1)">
       <use xlink:href="#ArialMT-31"/>
       <use xlink:href="#ArialMT-30" x="55.615234"/>
       <use xlink:href="#ArialMT-30" x="111.230469"/>
      </g>
     </g>
    </g>
    <g id="ytick_3">
     <g id="line2d_17">
      <path d="M 30.882813 148.083359 
L 365.682813 148.083359 
" clip-path="url(#p1d6144e39c)" style="fill: none; stroke: #ffffff; stroke-linecap: round"/>
     </g>
     <g id="line2d_18"/>
     <g id="text_9">
      <!-- 200 -->
      <g style="fill: #262626" transform="translate(7.2 151.662265)scale(0.1 -0.1)">
       <use xlink:href="#ArialMT-32"/>
       <use xlink:href="#ArialMT-30" x="55.615234"/>
       <use xlink:href="#ArialMT-30" x="111.230469"/>
      </g>
     </g>
    </g>
    <g id="ytick_4">
     <g id="line2d_19">
      <path d="M 30.882813 109.805038 
L 365.682813 109.805038 
" clip-path="url(#p1d6144e39c)" style="fill: none; stroke: #ffffff; stroke-linecap: round"/>
     </g>
     <g id="line2d_20"/>
     <g id="text_10">
      <!-- 300 -->
      <g style="fill: #262626" transform="translate(7.2 113.383945)scale(0.1 -0.1)">
       <defs>
        <path id="ArialMT-33" d="M 269 1209 
L 831 1284 
Q 928 806 1161 595 
Q 1394 384 1728 384 
Q 2125 384 2398 659 
Q 2672 934 2672 1341 
Q 2672 1728 2419 1979 
Q 2166 2231 1775 2231 
Q 1616 2231 1378 2169 
L 1441 2663 
Q 1497 2656 1531 2656 
Q 1891 2656 2178 2843 
Q 2466 3031 2466 3422 
Q 2466 3731 2256 3934 
Q 2047 4138 1716 4138 
Q 1388 4138 1169 3931 
Q 950 3725 888 3313 
L 325 3413 
Q 428 3978 793 4289 
Q 1159 4600 1703 4600 
Q 2078 4600 2393 4439 
Q 2709 4278 2876 4000 
Q 3044 3722 3044 3409 
Q 3044 3113 2884 2869 
Q 2725 2625 2413 2481 
Q 2819 2388 3044 2092 
Q 3269 1797 3269 1353 
Q 3269 753 2831 336 
Q 2394 -81 1725 -81 
Q 1122 -81 723 278 
Q 325 638 269 1209 
z
" transform="scale(0.015625)"/>
       </defs>
       <use xlink:href="#ArialMT-33"/>
       <use xlink:href="#ArialMT-30" x="55.615234"/>
       <use xlink:href="#ArialMT-30" x="111.230469"/>
      </g>
     </g>
    </g>
    <g id="ytick_5">
     <g id="line2d_21">
      <path d="M 30.882813 71.526718 
L 365.682813 71.526718 
" clip-path="url(#p1d6144e39c)" style="fill: none; stroke: #ffffff; stroke-linecap: round"/>
     </g>
     <g id="line2d_22"/>
     <g id="text_11">
      <!-- 400 -->
      <g style="fill: #262626" transform="translate(7.2 75.105624)scale(0.1 -0.1)">
       <use xlink:href="#ArialMT-34"/>
       <use xlink:href="#ArialMT-30" x="55.615234"/>
       <use xlink:href="#ArialMT-30" x="111.230469"/>
      </g>
     </g>
    </g>
    <g id="ytick_6">
     <g id="line2d_23">
      <path d="M 30.882813 33.248397 
L 365.682813 33.248397 
" clip-path="url(#p1d6144e39c)" style="fill: none; stroke: #ffffff; stroke-linecap: round"/>
     </g>
     <g id="line2d_24"/>
     <g id="text_12">
      <!-- 500 -->
      <g style="fill: #262626" transform="translate(7.2 36.827303)scale(0.1 -0.1)">
       <defs>
        <path id="ArialMT-35" d="M 266 1200 
L 856 1250 
Q 922 819 1161 601 
Q 1400 384 1738 384 
Q 2144 384 2425 690 
Q 2706 997 2706 1503 
Q 2706 1984 2436 2262 
Q 2166 2541 1728 2541 
Q 1456 2541 1237 2417 
Q 1019 2294 894 2097 
L 366 2166 
L 809 4519 
L 3088 4519 
L 3088 3981 
L 1259 3981 
L 1013 2750 
Q 1425 3038 1878 3038 
Q 2478 3038 2890 2622 
Q 3303 2206 3303 1553 
Q 3303 931 2941 478 
Q 2500 -78 1738 -78 
Q 1113 -78 717 272 
Q 322 622 266 1200 
z
" transform="scale(0.015625)"/>
       </defs>
       <use xlink:href="#ArialMT-35"/>
       <use xlink:href="#ArialMT-30" x="55.615234"/>
       <use xlink:href="#ArialMT-30" x="111.230469"/>
      </g>
     </g>
    </g>
   </g>
   <g id="patch_3">
    <path d="M 46.100994 224.64 
L 49.144631 224.64 
L 49.144631 178.706015 
L 46.100994 178.706015 
z
" clip-path="url(#p1d6144e39c)" style="fill: #4c72b0"/>
   </g>
   <g id="patch_4">
    <path d="M 49.144631 224.64 
L 52.188267 224.64 
L 52.188267 217.749902 
L 49.144631 217.749902 
z
" clip-path="url(#p1d6144e39c)" style="fill: #4c72b0"/>
   </g>
   <g id="patch_5">
    <path d="M 52.188267 224.64 
L 55.231903 224.64 
L 55.231903 224.64 
L 52.188267 224.64 
z
" clip-path="url(#p1d6144e39c)" style="fill: #4c72b0"/>
   </g>
   <g id="patch_6">
    <path d="M 55.231903 224.64 
L 58.27554 224.64 
L 58.27554 224.257217 
L 55.231903 224.257217 
z
" clip-path="url(#p1d6144e39c)" style="fill: #4c72b0"/>
   </g>
   <g id="patch_7">
    <path d="M 58.27554 224.64 
L 61.319176 224.64 
L 61.319176 217.749902 
L 58.27554 217.749902 
z
" clip-path="url(#p1d6144e39c)" style="fill: #4c72b0"/>
   </g>
   <g id="patch_8">
    <path d="M 61.319176 224.64 
L 64.362813 224.64 
L 64.362813 224.257217 
L 61.319176 224.257217 
z
" clip-path="url(#p1d6144e39c)" style="fill: #4c72b0"/>
   </g>
   <g id="patch_9">
    <path d="M 64.362813 224.64 
L 67.406449 224.64 
L 67.406449 224.64 
L 64.362813 224.64 
z
" clip-path="url(#p1d6144e39c)" style="fill: #4c72b0"/>
   </g>
   <g id="patch_10">
    <path d="M 67.406449 224.64 
L 70.450085 224.64 
L 70.450085 224.64 
L 67.406449 224.64 
z
" clip-path="url(#p1d6144e39c)" style="fill: #4c72b0"/>
   </g>
   <g id="patch_11">
    <path d="M 70.450085 224.64 
L 73.493722 224.64 
L 73.493722 224.64 
L 70.450085 224.64 
z
" clip-path="url(#p1d6144e39c)" style="fill: #4c72b0"/>
   </g>
   <g id="patch_12">
    <path d="M 73.493722 224.64 
L 76.537358 224.64 
L 76.537358 224.64 
L 73.493722 224.64 
z
" clip-path="url(#p1d6144e39c)" style="fill: #4c72b0"/>
   </g>
   <g id="patch_13">
    <path d="M 76.537358 224.64 
L 79.580994 224.64 
L 79.580994 224.64 
L 76.537358 224.64 
z
" clip-path="url(#p1d6144e39c)" style="fill: #4c72b0"/>
   </g>
   <g id="patch_14">
    <path d="M 79.580994 224.64 
L 82.624631 224.64 
L 82.624631 222.726084 
L 79.580994 222.726084 
z
" clip-path="url(#p1d6144e39c)" style="fill: #4c72b0"/>
   </g>
   <g id="patch_15">
    <path d="M 82.624631 224.64 
L 85.668267 224.64 
L 85.668267 224.257217 
L 82.624631 224.257217 
z
" clip-path="url(#p1d6144e39c)" style="fill: #4c72b0"/>
   </g>
   <g id="patch_16">
    <path d="M 85.668267 224.64 
L 88.711903 224.64 
L 88.711903 224.64 
L 85.668267 224.64 
z
" clip-path="url(#p1d6144e39c)" style="fill: #4c72b0"/>
   </g>
   <g id="patch_17">
    <path d="M 88.711903 224.64 
L 91.75554 224.64 
L 91.75554 224.64 
L 88.711903 224.64 
z
" clip-path="url(#p1d6144e39c)" style="fill: #4c72b0"/>
   </g>
   <g id="patch_18">
    <path d="M 91.75554 224.64 
L 94.799176 224.64 
L 94.799176 224.64 
L 91.75554 224.64 
z
" clip-path="url(#p1d6144e39c)" style="fill: #4c72b0"/>
   </g>
   <g id="patch_19">
    <path d="M 94.799176 224.64 
L 97.842813 224.64 
L 97.842813 224.64 
L 94.799176 224.64 
z
" clip-path="url(#p1d6144e39c)" style="fill: #4c72b0"/>
   </g>
   <g id="patch_20">
    <path d="M 97.842813 224.64 
L 100.886449 224.64 
L 100.886449 224.64 
L 97.842813 224.64 
z
" clip-path="url(#p1d6144e39c)" style="fill: #4c72b0"/>
   </g>
   <g id="patch_21">
    <path d="M 100.886449 224.64 
L 103.930085 224.64 
L 103.930085 224.64 
L 100.886449 224.64 
z
" clip-path="url(#p1d6144e39c)" style="fill: #4c72b0"/>
   </g>
   <g id="patch_22">
    <path d="M 103.930085 224.64 
L 106.973722 224.64 
L 106.973722 224.64 
L 103.930085 224.64 
z
" clip-path="url(#p1d6144e39c)" style="fill: #4c72b0"/>
   </g>
   <g id="patch_23">
    <path d="M 106.973722 224.64 
L 110.017358 224.64 
L 110.017358 224.64 
L 106.973722 224.64 
z
" clip-path="url(#p1d6144e39c)" style="fill: #4c72b0"/>
   </g>
   <g id="patch_24">
    <path d="M 110.017358 224.64 
L 113.060994 224.64 
L 113.060994 224.64 
L 110.017358 224.64 
z
" clip-path="url(#p1d6144e39c)" style="fill: #4c72b0"/>
   </g>
   <g id="patch_25">
    <path d="M 113.060994 224.64 
L 116.104631 224.64 
L 116.104631 224.257217 
L 113.060994 224.257217 
z
" clip-path="url(#p1d6144e39c)" style="fill: #4c72b0"/>
   </g>
   <g id="patch_26">
    <path d="M 116.104631 224.64 
L 119.148267 224.64 
L 119.148267 224.257217 
L 116.104631 224.257217 
z
" clip-path="url(#p1d6144e39c)" style="fill: #4c72b0"/>
   </g>
   <g id="patch_27">
    <path d="M 119.148267 224.64 
L 122.191903 224.64 
L 122.191903 223.49165 
L 119.148267 223.49165 
z
" clip-path="url(#p1d6144e39c)" style="fill: #4c72b0"/>
   </g>
   <g id="patch_28">
    <path d="M 122.191903 224.64 
L 125.23554 224.64 
L 125.23554 223.874434 
L 122.191903 223.874434 
z
" clip-path="url(#p1d6144e39c)" style="fill: #4c72b0"/>
   </g>
   <g id="patch_29">
    <path d="M 125.23554 224.64 
L 128.279176 224.64 
L 128.279176 224.257217 
L 125.23554 224.257217 
z
" clip-path="url(#p1d6144e39c)" style="fill: #4c72b0"/>
   </g>
   <g id="patch_30">
    <path d="M 128.279176 224.64 
L 131.322812 224.64 
L 131.322812 224.64 
L 128.279176 224.64 
z
" clip-path="url(#p1d6144e39c)" style="fill: #4c72b0"/>
   </g>
   <g id="patch_31">
    <path d="M 131.322812 224.64 
L 134.366449 224.64 
L 134.366449 224.64 
L 131.322812 224.64 
z
" clip-path="url(#p1d6144e39c)" style="fill: #4c72b0"/>
   </g>
   <g id="patch_32">
    <path d="M 134.366449 224.64 
L 137.410085 224.64 
L 137.410085 224.64 
L 134.366449 224.64 
z
" clip-path="url(#p1d6144e39c)" style="fill: #4c72b0"/>
   </g>
   <g id="patch_33">
    <path d="M 137.410085 224.64 
L 140.453722 224.64 
L 140.453722 224.64 
L 137.410085 224.64 
z
" clip-path="url(#p1d6144e39c)" style="fill: #4c72b0"/>
   </g>
   <g id="patch_34">
    <path d="M 140.453722 224.64 
L 143.497358 224.64 
L 143.497358 224.64 
L 140.453722 224.64 
z
" clip-path="url(#p1d6144e39c)" style="fill: #4c72b0"/>
   </g>
   <g id="patch_35">
    <path d="M 143.497358 224.64 
L 146.540994 224.64 
L 146.540994 224.64 
L 143.497358 224.64 
z
" clip-path="url(#p1d6144e39c)" style="fill: #4c72b0"/>
   </g>
   <g id="patch_36">
    <path d="M 146.540994 224.64 
L 149.584631 224.64 
L 149.584631 224.64 
L 146.540994 224.64 
z
" clip-path="url(#p1d6144e39c)" style="fill: #4c72b0"/>
   </g>
   <g id="patch_37">
    <path d="M 149.584631 224.64 
L 152.628267 224.64 
L 152.628267 224.64 
L 149.584631 224.64 
z
" clip-path="url(#p1d6144e39c)" style="fill: #4c72b0"/>
   </g>
   <g id="patch_38">
    <path d="M 152.628267 224.64 
L 155.671903 224.64 
L 155.671903 224.64 
L 152.628267 224.64 
z
" clip-path="url(#p1d6144e39c)" style="fill: #4c72b0"/>
   </g>
   <g id="patch_39">
    <path d="M 155.671903 224.64 
L 158.71554 224.64 
L 158.71554 224.64 
L 155.671903 224.64 
z
" clip-path="url(#p1d6144e39c)" style="fill: #4c72b0"/>
   </g>
   <g id="patch_40">
    <path d="M 158.71554 224.64 
L 161.759176 224.64 
L 161.759176 224.64 
L 158.71554 224.64 
z
" clip-path="url(#p1d6144e39c)" style="fill: #4c72b0"/>
   </g>
   <g id="patch_41">
    <path d="M 161.759176 224.64 
L 164.802812 224.64 
L 164.802812 224.64 
L 161.759176 224.64 
z
" clip-path="url(#p1d6144e39c)" style="fill: #4c72b0"/>
   </g>
   <g id="patch_42">
    <path d="M 164.802812 224.64 
L 167.846449 224.64 
L 167.846449 224.64 
L 164.802812 224.64 
z
" clip-path="url(#p1d6144e39c)" style="fill: #4c72b0"/>
   </g>
   <g id="patch_43">
    <path d="M 167.846449 224.64 
L 170.890085 224.64 
L 170.890085 224.64 
L 167.846449 224.64 
z
" clip-path="url(#p1d6144e39c)" style="fill: #4c72b0"/>
   </g>
   <g id="patch_44">
    <path d="M 170.890085 224.64 
L 173.933722 224.64 
L 173.933722 224.64 
L 170.890085 224.64 
z
" clip-path="url(#p1d6144e39c)" style="fill: #4c72b0"/>
   </g>
   <g id="patch_45">
    <path d="M 173.933722 224.64 
L 176.977358 224.64 
L 176.977358 224.64 
L 173.933722 224.64 
z
" clip-path="url(#p1d6144e39c)" style="fill: #4c72b0"/>
   </g>
   <g id="patch_46">
    <path d="M 176.977358 224.64 
L 180.020994 224.64 
L 180.020994 224.64 
L 176.977358 224.64 
z
" clip-path="url(#p1d6144e39c)" style="fill: #4c72b0"/>
   </g>
   <g id="patch_47">
    <path d="M 180.020994 224.64 
L 183.064631 224.64 
L 183.064631 223.874434 
L 180.020994 223.874434 
z
" clip-path="url(#p1d6144e39c)" style="fill: #4c72b0"/>
   </g>
   <g id="patch_48">
    <path d="M 183.064631 224.64 
L 186.108267 224.64 
L 186.108267 223.874434 
L 183.064631 223.874434 
z
" clip-path="url(#p1d6144e39c)" style="fill: #4c72b0"/>
   </g>
   <g id="patch_49">
    <path d="M 186.108267 224.64 
L 189.151903 224.64 
L 189.151903 224.64 
L 186.108267 224.64 
z
" clip-path="url(#p1d6144e39c)" style="fill: #4c72b0"/>
   </g>
   <g id="patch_50">
    <path d="M 189.151903 224.64 
L 192.19554 224.64 
L 192.19554 224.64 
L 189.151903 224.64 
z
" clip-path="url(#p1d6144e39c)" style="fill: #4c72b0"/>
   </g>
   <g id="patch_51">
    <path d="M 192.19554 224.64 
L 195.239176 224.64 
L 195.239176 224.64 
L 192.19554 224.64 
z
" clip-path="url(#p1d6144e39c)" style="fill: #4c72b0"/>
   </g>
   <g id="patch_52">
    <path d="M 195.239176 224.64 
L 198.282813 224.64 
L 198.282813 224.64 
L 195.239176 224.64 
z
" clip-path="url(#p1d6144e39c)" style="fill: #4c72b0"/>
   </g>
   <g id="patch_53">
    <path d="M 198.282813 224.64 
L 201.326449 224.64 
L 201.326449 224.64 
L 198.282813 224.64 
z
" clip-path="url(#p1d6144e39c)" style="fill: #4c72b0"/>
   </g>
   <g id="patch_54">
    <path d="M 201.326449 224.64 
L 204.370085 224.64 
L 204.370085 224.64 
L 201.326449 224.64 
z
" clip-path="url(#p1d6144e39c)" style="fill: #4c72b0"/>
   </g>
   <g id="patch_55">
    <path d="M 204.370085 224.64 
L 207.413722 224.64 
L 207.413722 224.64 
L 204.370085 224.64 
z
" clip-path="url(#p1d6144e39c)" style="fill: #4c72b0"/>
   </g>
   <g id="patch_56">
    <path d="M 207.413722 224.64 
L 210.457358 224.64 
L 210.457358 224.64 
L 207.413722 224.64 
z
" clip-path="url(#p1d6144e39c)" style="fill: #4c72b0"/>
   </g>
   <g id="patch_57">
    <path d="M 210.457358 224.64 
L 213.500994 224.64 
L 213.500994 224.64 
L 210.457358 224.64 
z
" clip-path="url(#p1d6144e39c)" style="fill: #4c72b0"/>
   </g>
   <g id="patch_58">
    <path d="M 213.500994 224.64 
L 216.544631 224.64 
L 216.544631 224.64 
L 213.500994 224.64 
z
" clip-path="url(#p1d6144e39c)" style="fill: #4c72b0"/>
   </g>
   <g id="patch_59">
    <path d="M 216.544631 224.64 
L 219.588267 224.64 
L 219.588267 224.64 
L 216.544631 224.64 
z
" clip-path="url(#p1d6144e39c)" style="fill: #4c72b0"/>
   </g>
   <g id="patch_60">
    <path d="M 219.588267 224.64 
L 222.631903 224.64 
L 222.631903 224.64 
L 219.588267 224.64 
z
" clip-path="url(#p1d6144e39c)" style="fill: #4c72b0"/>
   </g>
   <g id="patch_61">
    <path d="M 222.631903 224.64 
L 225.67554 224.64 
L 225.67554 224.64 
L 222.631903 224.64 
z
" clip-path="url(#p1d6144e39c)" style="fill: #4c72b0"/>
   </g>
   <g id="patch_62">
    <path d="M 225.67554 224.64 
L 228.719176 224.64 
L 228.719176 224.64 
L 225.67554 224.64 
z
" clip-path="url(#p1d6144e39c)" style="fill: #4c72b0"/>
   </g>
   <g id="patch_63">
    <path d="M 228.719176 224.64 
L 231.762812 224.64 
L 231.762812 224.64 
L 228.719176 224.64 
z
" clip-path="url(#p1d6144e39c)" style="fill: #4c72b0"/>
   </g>
   <g id="patch_64">
    <path d="M 231.762812 224.64 
L 234.806449 224.64 
L 234.806449 224.64 
L 231.762812 224.64 
z
" clip-path="url(#p1d6144e39c)" style="fill: #4c72b0"/>
   </g>
   <g id="patch_65">
    <path d="M 234.806449 224.64 
L 237.850085 224.64 
L 237.850085 224.64 
L 234.806449 224.64 
z
" clip-path="url(#p1d6144e39c)" style="fill: #4c72b0"/>
   </g>
   <g id="patch_66">
    <path d="M 237.850085 224.64 
L 240.893722 224.64 
L 240.893722 224.64 
L 237.850085 224.64 
z
" clip-path="url(#p1d6144e39c)" style="fill: #4c72b0"/>
   </g>
   <g id="patch_67">
    <path d="M 240.893722 224.64 
L 243.937358 224.64 
L 243.937358 224.64 
L 240.893722 224.64 
z
" clip-path="url(#p1d6144e39c)" style="fill: #4c72b0"/>
   </g>
   <g id="patch_68">
    <path d="M 243.937358 224.64 
L 246.980994 224.64 
L 246.980994 224.64 
L 243.937358 224.64 
z
" clip-path="url(#p1d6144e39c)" style="fill: #4c72b0"/>
   </g>
   <g id="patch_69">
    <path d="M 246.980994 224.64 
L 250.024631 224.64 
L 250.024631 224.64 
L 246.980994 224.64 
z
" clip-path="url(#p1d6144e39c)" style="fill: #4c72b0"/>
   </g>
   <g id="patch_70">
    <path d="M 250.024631 224.64 
L 253.068267 224.64 
L 253.068267 224.64 
L 250.024631 224.64 
z
" clip-path="url(#p1d6144e39c)" style="fill: #4c72b0"/>
   </g>
   <g id="patch_71">
    <path d="M 253.068267 224.64 
L 256.111903 224.64 
L 256.111903 224.64 
L 253.068267 224.64 
z
" clip-path="url(#p1d6144e39c)" style="fill: #4c72b0"/>
   </g>
   <g id="patch_72">
    <path d="M 256.111903 224.64 
L 259.15554 224.64 
L 259.15554 224.257217 
L 256.111903 224.257217 
z
" clip-path="url(#p1d6144e39c)" style="fill: #4c72b0"/>
   </g>
   <g id="patch_73">
    <path d="M 259.15554 224.64 
L 262.199176 224.64 
L 262.199176 224.64 
L 259.15554 224.64 
z
" clip-path="url(#p1d6144e39c)" style="fill: #4c72b0"/>
   </g>
   <g id="patch_74">
    <path d="M 262.199176 224.64 
L 265.242813 224.64 
L 265.242813 224.64 
L 262.199176 224.64 
z
" clip-path="url(#p1d6144e39c)" style="fill: #4c72b0"/>
   </g>
   <g id="patch_75">
    <path d="M 265.242812 224.64 
L 268.286449 224.64 
L 268.286449 224.64 
L 265.242812 224.64 
z
" clip-path="url(#p1d6144e39c)" style="fill: #4c72b0"/>
   </g>
   <g id="patch_76">
    <path d="M 268.286449 224.64 
L 271.330085 224.64 
L 271.330085 224.64 
L 268.286449 224.64 
z
" clip-path="url(#p1d6144e39c)" style="fill: #4c72b0"/>
   </g>
   <g id="patch_77">
    <path d="M 271.330085 224.64 
L 274.373722 224.64 
L 274.373722 224.64 
L 271.330085 224.64 
z
" clip-path="url(#p1d6144e39c)" style="fill: #4c72b0"/>
   </g>
   <g id="patch_78">
    <path d="M 274.373722 224.64 
L 277.417358 224.64 
L 277.417358 224.64 
L 274.373722 224.64 
z
" clip-path="url(#p1d6144e39c)" style="fill: #4c72b0"/>
   </g>
   <g id="patch_79">
    <path d="M 277.417358 224.64 
L 280.460994 224.64 
L 280.460994 224.64 
L 277.417358 224.64 
z
" clip-path="url(#p1d6144e39c)" style="fill: #4c72b0"/>
   </g>
   <g id="patch_80">
    <path d="M 280.460994 224.64 
L 283.504631 224.64 
L 283.504631 224.64 
L 280.460994 224.64 
z
" clip-path="url(#p1d6144e39c)" style="fill: #4c72b0"/>
   </g>
   <g id="patch_81">
    <path d="M 283.504631 224.64 
L 286.548267 224.64 
L 286.548267 224.64 
L 283.504631 224.64 
z
" clip-path="url(#p1d6144e39c)" style="fill: #4c72b0"/>
   </g>
   <g id="patch_82">
    <path d="M 286.548267 224.64 
L 289.591903 224.64 
L 289.591903 224.64 
L 286.548267 224.64 
z
" clip-path="url(#p1d6144e39c)" style="fill: #4c72b0"/>
   </g>
   <g id="patch_83">
    <path d="M 289.591903 224.64 
L 292.63554 224.64 
L 292.63554 224.64 
L 289.591903 224.64 
z
" clip-path="url(#p1d6144e39c)" style="fill: #4c72b0"/>
   </g>
   <g id="patch_84">
    <path d="M 292.63554 224.64 
L 295.679176 224.64 
L 295.679176 224.64 
L 292.63554 224.64 
z
" clip-path="url(#p1d6144e39c)" style="fill: #4c72b0"/>
   </g>
   <g id="patch_85">
    <path d="M 295.679176 224.64 
L 298.722812 224.64 
L 298.722812 224.64 
L 295.679176 224.64 
z
" clip-path="url(#p1d6144e39c)" style="fill: #4c72b0"/>
   </g>
   <g id="patch_86">
    <path d="M 298.722812 224.64 
L 301.766449 224.64 
L 301.766449 224.64 
L 298.722812 224.64 
z
" clip-path="url(#p1d6144e39c)" style="fill: #4c72b0"/>
   </g>
   <g id="patch_87">
    <path d="M 301.766449 224.64 
L 304.810085 224.64 
L 304.810085 224.64 
L 301.766449 224.64 
z
" clip-path="url(#p1d6144e39c)" style="fill: #4c72b0"/>
   </g>
   <g id="patch_88">
    <path d="M 304.810085 224.64 
L 307.853722 224.64 
L 307.853722 224.64 
L 304.810085 224.64 
z
" clip-path="url(#p1d6144e39c)" style="fill: #4c72b0"/>
   </g>
   <g id="patch_89">
    <path d="M 307.853722 224.64 
L 310.897358 224.64 
L 310.897358 223.874434 
L 307.853722 223.874434 
z
" clip-path="url(#p1d6144e39c)" style="fill: #4c72b0"/>
   </g>
   <g id="patch_90">
    <path d="M 310.897358 224.64 
L 313.940994 224.64 
L 313.940994 223.874434 
L 310.897358 223.874434 
z
" clip-path="url(#p1d6144e39c)" style="fill: #4c72b0"/>
   </g>
   <g id="patch_91">
    <path d="M 313.940994 224.64 
L 316.984631 224.64 
L 316.984631 221.960518 
L 313.940994 221.960518 
z
" clip-path="url(#p1d6144e39c)" style="fill: #4c72b0"/>
   </g>
   <g id="patch_92">
    <path d="M 316.984631 224.64 
L 320.028267 224.64 
L 320.028267 221.577734 
L 316.984631 221.577734 
z
" clip-path="url(#p1d6144e39c)" style="fill: #4c72b0"/>
   </g>
   <g id="patch_93">
    <path d="M 320.028267 224.64 
L 323.071903 224.64 
L 323.071903 219.663818 
L 320.028267 219.663818 
z
" clip-path="url(#p1d6144e39c)" style="fill: #4c72b0"/>
   </g>
   <g id="patch_94">
    <path d="M 323.071903 224.64 
L 326.11554 224.64 
L 326.11554 219.281035 
L 323.071903 219.281035 
z
" clip-path="url(#p1d6144e39c)" style="fill: #4c72b0"/>
   </g>
   <g id="patch_95">
    <path d="M 326.11554 224.64 
L 329.159176 224.64 
L 329.159176 215.07042 
L 326.11554 215.07042 
z
" clip-path="url(#p1d6144e39c)" style="fill: #4c72b0"/>
   </g>
   <g id="patch_96">
    <path d="M 329.159176 224.64 
L 332.202813 224.64 
L 332.202813 208.945889 
L 329.159176 208.945889 
z
" clip-path="url(#p1d6144e39c)" style="fill: #4c72b0"/>
   </g>
   <g id="patch_97">
    <path d="M 332.202813 224.64 
L 335.246449 224.64 
L 335.246449 202.438574 
L 332.202813 202.438574 
z
" clip-path="url(#p1d6144e39c)" style="fill: #4c72b0"/>
   </g>
   <g id="patch_98">
    <path d="M 335.246449 224.64 
L 338.290085 224.64 
L 338.290085 201.673008 
L 335.246449 201.673008 
z
" clip-path="url(#p1d6144e39c)" style="fill: #4c72b0"/>
   </g>
   <g id="patch_99">
    <path d="M 338.290085 224.64 
L 341.333722 224.64 
L 341.333722 179.471582 
L 338.290085 179.471582 
z
" clip-path="url(#p1d6144e39c)" style="fill: #4c72b0"/>
   </g>
   <g id="patch_100">
    <path d="M 341.333722 224.64 
L 344.377358 224.64 
L 344.377358 153.825107 
L 341.333722 153.825107 
z
" clip-path="url(#p1d6144e39c)" style="fill: #4c72b0"/>
   </g>
   <g id="patch_101">
    <path d="M 344.377358 224.64 
L 347.420994 224.64 
L 347.420994 129.326982 
L 344.377358 129.326982 
z
" clip-path="url(#p1d6144e39c)" style="fill: #4c72b0"/>
   </g>
   <g id="patch_102">
    <path d="M 347.420994 224.64 
L 350.464631 224.64 
L 350.464631 17.554286 
L 347.420994 17.554286 
z
" clip-path="url(#p1d6144e39c)" style="fill: #4c72b0"/>
   </g>
   <g id="patch_103">
    <path d="M 30.882813 224.64 
L 30.882813 7.2 
" style="fill: none"/>
   </g>
   <g id="patch_104">
    <path d="M 365.682813 224.64 
L 365.682813 7.2 
" style="fill: none"/>
   </g>
   <g id="patch_105">
    <path d="M 30.882813 224.64 
L 365.682813 224.64 
" style="fill: none"/>
   </g>
   <g id="patch_106">
    <path d="M 30.882813 7.2 
L 365.682813 7.2 
" style="fill: none"/>
   </g>
  </g>
 </g>
 <defs>
  <clipPath id="p1d6144e39c">
   <rect x="30.882813" y="7.2" width="334.8" height="217.44"/>
  </clipPath>
 </defs>
</svg>
