<?xml version="1.0" encoding="utf-8" standalone="no"?>
<!DOCTYPE svg PUBLIC "-//W3C//DTD SVG 1.1//EN"
  "http://www.w3.org/Graphics/SVG/1.1/DTD/svg11.dtd">
<svg xmlns:xlink="http://www.w3.org/1999/xlink" width="352.8pt" height="208.8pt" viewBox="0 0 352.8 208.8" xmlns="http://www.w3.org/2000/svg" version="1.1">
 <metadata>
  <rdf:RDF xmlns:dc="http://purl.org/dc/elements/1.1/" xmlns:cc="http://creativecommons.org/ns#" xmlns:rdf="http://www.w3.org/1999/02/22-rdf-syntax-ns#">
   <cc:Work>
    <dc:type rdf:resource="http://purl.org/dc/dcmitype/StillImage"/>
    <dc:date>2022-07-10T23:02:44.975855</dc:date>
    <dc:format>image/svg+xml</dc:format>
    <dc:creator>
     <cc:Agent>
      <dc:title>Matplotlib v3.5.2, https://matplotlib.org/</dc:title>
     </cc:Agent>
    </dc:creator>
   </cc:Work>
  </rdf:RDF>
 </metadata>
 <defs>
  <style type="text/css">*{stroke-linejoin: round; stroke-linecap: butt}</style>
 </defs>
 <g id="figure_1">
  <g id="patch_1">
   <path d="M 0 208.8 
L 352.8 208.8 
L 352.8 0 
L 0 0 
L 0 208.8 
z
" style="fill: none"/>
  </g>
  <g id="axes_1">
   <g id="patch_2">
    <path d="M 7.2 201.6 
L 345.6 201.6 
L 345.6 7.2 
L 7.2 7.2 
z
" style="fill: #eaeaf2"/>
   </g>
   <g id="matplotlib.axis_1"/>
   <g id="matplotlib.axis_2"/>
   <g id="patch_3">
    <path d="M -1.676066 210.098361 
L 364.461639 210.098361 
L 364.461639 -2.360656 
L -1.676066 -2.360656 
z
" clip-path="url(#pc6b87be054)" style="fill: #0000ff; opacity: 0.1"/>
   </g>
   <g id="patch_4">
    <path d="M 9.419016 29.508197 
L 10.613791 30.552068 
L 12.008264 31.525177 
L 13.588451 32.432479 
L 15.340366 33.27893 
L 17.250022 34.069486 
L 19.303434 34.809103 
L 21.486617 35.502736 
L 23.785584 36.155342 
L 26.186349 36.771875 
L 28.674927 37.357293 
L 31.237333 37.91655 
L 33.859579 38.454603 
L 36.52768 38.976407 
L 39.227651 39.486919 
L 41.945506 39.991093 
L 44.667258 40.493886 
L 47.378923 41.000254 
L 50.066513 41.515153 
L 52.716044 42.043537 
L 55.31353 42.590364 
L 57.844984 43.160589 
L 60.296422 43.759167 
L 62.653856 44.391055 
L 64.903302 45.061208 
L 67.030773 45.774582 
L 69.022284 46.536133 
L 70.863848 47.350818 
L 72.541481 48.22359 
L 74.041196 49.159407 
L 75.349007 50.163224 
L 76.451258 51.239896 
L 77.344376 52.391159 
L 78.036501 53.615132 
L 78.536432 54.909728 
L 78.852967 56.272862 
L 78.994904 57.702447 
L 78.971042 59.196398 
L 78.790179 60.752629 
L 78.461114 62.369054 
L 77.992644 64.043587 
L 77.393568 65.774142 
L 76.672684 67.558634 
L 75.838791 69.394976 
L 74.900687 71.281083 
L 73.86717 73.214869 
L 72.747039 75.194248 
L 71.549091 77.217133 
L 70.282126 79.28144 
L 68.954942 81.385082 
L 67.576336 83.525973 
L 66.155108 85.702028 
L 64.700055 87.91116 
L 63.219976 90.151285 
L 61.723669 92.420315 
L 60.219932 94.716165 
L 58.717565 97.036749 
L 57.225364 99.379981 
L 55.752129 101.743776 
L 54.306658 104.126047 
L 52.897749 106.524709 
L 51.5342 108.937675 
L 50.22481 111.36286 
L 48.978377 113.798179 
L 47.8037 116.241544 
L 46.709576 118.690871 
L 45.704804 121.144073 
L 44.798183 123.599064 
L 43.99851 126.053759 
L 43.314585 128.506072 
L 42.755204 130.953916 
L 42.329168 133.395207 
L 42.045273 135.827857 
L 41.912319 138.249782 
L 41.939103 140.658895 
L 42.134424 143.05311 
L 42.507081 145.430342 
L 43.065088 147.788263 
L 43.80505 150.121015 
L 44.714935 152.420071 
L 45.782496 154.676838 
L 46.995487 156.882722 
L 48.341662 159.029128 
L 49.808776 161.107464 
L 51.384582 163.109135 
L 53.056834 165.025548 
L 54.813286 166.848109 
L 56.641692 168.568224 
L 58.529807 170.1773 
L 60.465383 171.666743 
L 62.436176 173.02796 
L 64.429938 174.252356 
L 66.434424 175.331337 
L 68.437389 176.256311 
L 70.426585 177.018684 
L 72.389767 177.609861 
L 74.314689 178.021249 
L 76.189107 178.244258 
L 78.003809 178.273553 
L 79.758378 178.113254 
L 81.453982 177.769188 
L 83.091792 177.247179 
L 84.672979 176.553054 
L 86.19871 175.692638 
L 87.670158 174.671757 
L 89.08849 173.496236 
L 90.454878 172.171902 
L 91.770491 170.70458 
L 93.036499 169.100096 
L 94.254071 167.364276 
L 95.424378 165.502944 
L 96.548589 163.521928 
L 97.627875 161.427052 
L 98.663404 159.224142 
L 99.656348 156.919025 
L 100.607875 154.517526 
L 101.519156 152.025469 
L 102.39136 149.448683 
L 103.225658 146.792991 
L 104.023219 144.064219 
L 104.785212 141.268195 
L 105.512809 138.410742 
L 106.207178 135.497687 
L 106.86949 132.534855 
L 107.500914 129.528073 
L 108.10262 126.483166 
L 108.675778 123.405959 
L 109.221558 120.302279 
L 109.74113 117.177951 
L 110.235664 114.0388 
L 110.706328 110.890653 
L 111.154294 107.739336 
L 111.580732 104.590673 
L 111.98681 101.450491 
L 112.373698 98.324615 
L 112.742568 95.218872 
L 113.094588 92.139086 
L 113.430928 89.091084 
L 113.752758 86.080691 
L 114.061248 83.113732 
L 114.357569 80.196035 
L 114.642888 77.333424 
L 114.918378 74.531725 
L 115.185206 71.796764 
L 115.444544 69.134366 
L 115.697561 66.550358 
L 115.945427 64.050564 
L 116.189311 61.640811 
L 116.430384 59.326925 
L 116.669816 57.114731 
L 116.908776 55.010054 
L 117.148433 53.018721 
L 117.389959 51.146557 
L 117.634523 49.399388 
L 117.883294 47.78304 
L 118.137443 46.303338 
L 118.398139 44.966109 
L 118.666552 43.777177 
L 118.943852 42.742368 
L 119.231209 41.867509 
L 119.529792 41.158425 
L 119.840773 40.620942 
L 120.165319 40.260884 
L 120.504592 40.083967 
L 120.859369 40.091313 
L 121.229917 40.277955 
L 121.616467 40.638505 
L 122.019252 41.167575 
L 122.438504 41.859777 
L 122.874454 42.709722 
L 123.327336 43.712023 
L 123.79738 44.861291 
L 124.28482 46.152138 
L 124.789887 47.579177 
L 125.312813 49.137019 
L 125.85383 50.820276 
L 126.413171 52.62356 
L 126.991066 54.541482 
L 127.58775 56.568656 
L 128.203452 58.699692 
L 128.838407 60.929203 
L 129.492844 63.2518 
L 130.166998 65.662096 
L 130.861099 68.154702 
L 131.575379 70.72423 
L 132.310072 73.365292 
L 133.065408 76.0725 
L 133.84162 78.840466 
L 134.63894 81.663802 
L 135.457601 84.537119 
L 136.297833 87.455031 
L 137.159869 90.412147 
L 138.043942 93.403081 
L 138.950282 96.422445 
L 139.879123 99.46485 
L 140.830697 102.524908 
L 141.805234 105.59723 
L 142.802969 108.67643 
L 143.824131 111.757119 
L 144.868955 114.833908 
L 145.93767 117.901411 
L 147.030511 120.954237 
L 148.147708 123.987 
L 149.289494 126.994312 
L 150.456101 129.970784 
L 151.647761 132.911028 
L 152.864705 135.809656 
L 154.107167 138.66128 
L 155.375378 141.460512 
L 156.669569 144.201964 
L 157.989974 146.880247 
L 159.336824 149.489974 
L 160.710352 152.025757 
L 162.110789 154.482207 
L 163.538367 156.853937 
L 164.993319 159.135557 
L 166.475876 161.321681 
L 167.98627 163.40692 
L 169.524735 165.385886 
L 171.0915 167.25319 
L 172.6868 169.003446 
L 174.310866 170.631264 
L 175.963929 172.131256 
L 177.646222 173.498035 
L 179.357977 174.726213 
L 181.099426 175.8104 
L 182.870801 176.74521 
L 184.672334 177.525254 
L 186.504258 178.145144 
L 188.366803 178.599492 
L 190.260203 178.88291 
L 192.184689 178.990009 
L 194.140494 178.915402 
L 196.127849 178.653701 
L 198.146986 178.199517 
L 200.196167 177.550644 
L 202.266961 176.715672 
L 204.349522 175.70548 
L 206.434002 174.530948 
L 208.510554 173.202954 
L 210.569329 171.732379 
L 212.60048 170.1301 
L 214.59416 168.406999 
L 216.540521 166.573953 
L 218.429715 164.641843 
L 220.251895 162.621547 
L 221.997213 160.523944 
L 223.655822 158.359915 
L 225.217873 156.140339 
L 226.673521 153.876094 
L 228.012916 151.57806 
L 229.226211 149.257116 
L 230.303559 146.924142 
L 231.235112 144.590016 
L 232.011023 142.265619 
L 232.621443 139.96183 
L 233.056526 137.689527 
L 233.306424 135.45959 
L 233.361288 133.282898 
L 233.211273 131.170331 
L 232.846529 129.132768 
L 232.257209 127.181088 
L 231.433467 125.32617 
L 230.369053 123.576655 
L 229.078271 121.928394 
L 227.582709 120.372709 
L 225.90396 118.900914 
L 224.063621 117.504327 
L 222.083285 116.174262 
L 219.984549 114.902035 
L 217.789006 113.678963 
L 215.518252 112.49636 
L 213.193882 111.345543 
L 210.83749 110.217827 
L 208.470672 109.104527 
L 206.115023 107.996961 
L 203.792138 106.886442 
L 201.523611 105.764288 
L 199.331038 104.621813 
L 197.236013 103.450334 
L 195.260132 102.241166 
L 193.42499 100.985625 
L 191.75218 99.675027 
L 190.2633 98.300687 
L 188.979942 96.853921 
L 187.923704 95.326044 
L 187.116178 93.708374 
L 186.576706 91.993526 
L 186.303248 90.186463 
L 186.281961 88.298963 
L 186.498882 86.342872 
L 186.940045 84.330038 
L 187.591485 82.27231 
L 188.439237 80.181534 
L 189.469335 78.069559 
L 190.667815 75.948233 
L 192.020711 73.829403 
L 193.514059 71.724917 
L 195.133894 69.646623 
L 196.866249 67.606369 
L 198.697161 65.616002 
L 200.612664 63.68737 
L 202.598793 61.832321 
L 204.641583 60.062704 
L 206.727068 58.390364 
L 208.841285 56.827152 
L 210.970267 55.384913 
L 213.100049 54.075496 
L 215.216667 52.910749 
L 217.306156 51.90252 
L 219.354549 51.062656 
L 221.348346 50.402507 
L 223.281965 49.924889 
L 225.156481 49.625454 
L 226.973172 49.499628 
L 228.733319 49.542842 
L 230.438201 49.750523 
L 232.089099 50.1181 
L 233.687291 50.641 
L 235.234057 51.314653 
L 236.730678 52.134486 
L 238.178433 53.095929 
L 239.578601 54.194408 
L 240.932463 55.425353 
L 242.241298 56.784193 
L 243.506386 58.266354 
L 244.729007 59.867266 
L 245.91044 61.582358 
L 247.051965 63.407056 
L 248.154861 65.336791 
L 249.22041 67.366989 
L 250.24989 69.49308 
L 251.24458 71.710492 
L 252.205762 74.014652 
L 253.134714 76.40099 
L 254.032716 78.864934 
L 254.901048 81.401912 
L 255.74099 84.007353 
L 256.553822 86.676684 
L 257.340822 89.405335 
L 258.103271 92.188733 
L 258.842449 95.022307 
L 259.559636 97.901485 
L 260.25611 100.821696 
L 260.933152 103.778368 
L 261.592042 106.766929 
L 262.234059 109.782807 
L 262.860484 112.821432 
L 263.472595 115.878231 
L 264.071672 118.948632 
L 264.658996 122.028064 
L 265.235845 125.111956 
L 265.803501 128.195735 
L 266.363241 131.274831 
L 266.916347 134.344671 
L 267.464098 137.400683 
L 268.007773 140.438297 
L 268.548653 143.45294 
L 269.088017 146.440041 
L 269.627145 149.395027 
L 270.167316 152.313329 
L 270.70981 155.190373 
L 271.255908 158.021588 
L 271.806888 160.802403 
L 272.364031 163.528245 
L 272.928616 166.194544 
L 273.501923 168.796727 
L 274.085231 171.330223 
L 274.679822 173.790461 
L 275.286973 176.172867 
L 275.907965 178.472872 
L 276.544078 180.685903 
L 277.196591 182.807389 
L 277.866784 184.832757 
L 278.555937 186.757437 
L 279.265329 188.576857 
L 279.996241 190.286444 
L 280.749952 191.881628 
L 281.527742 193.357836 
L 282.33089 194.710498 
L 283.160676 195.935041 
L 284.01838 197.026893 
L 284.905282 197.981484 
L 285.822662 198.794241 
L 286.771798 199.460593 
L 287.753511 199.977173 
L 288.766629 200.345817 
L 289.809448 200.569759 
L 290.880261 200.652236 
L 291.977363 200.596483 
L 293.099049 200.405737 
L 294.243611 200.083234 
L 295.409345 199.632208 
L 296.594544 199.055898 
L 297.797503 198.357537 
L 299.016517 197.540363 
L 300.249878 196.60761 
L 301.495882 195.562516 
L 302.752823 194.408316 
L 304.018995 193.148245 
L 305.292692 191.785541 
L 306.572209 190.323438 
L 307.855839 188.765172 
L 309.141876 187.113981 
L 310.428616 185.373098 
L 311.714352 183.545761 
L 312.997379 181.635206 
L 314.27599 179.644667 
L 315.548481 177.577382 
L 316.813144 175.436586 
L 318.068275 173.225515 
L 319.312167 170.947405 
L 320.543115 168.605492 
L 321.759413 166.203012 
L 322.959355 163.7432 
L 324.141236 161.229293 
L 325.30335 158.664527 
L 326.44399 156.052137 
L 327.561451 153.395359 
L 328.654028 150.69743 
L 329.720014 147.961585 
L 330.757704 145.19106 
L 331.765392 142.389092 
L 332.741372 139.558915 
L 333.683939 136.703767 
L 334.591386 133.826882 
L 335.462008 130.931497 
L 336.294099 128.020848 
L 337.085954 125.09817 
L 337.835865 122.166701 
L 338.542129 119.229674 
L 339.203039 116.290327 
L 339.816888 113.351896 
L 340.381972 110.417615 
L 340.896585 107.490722 
L 341.35902 104.574452 
L 341.767573 101.672041 
L 342.120536 98.786725 
L 342.416206 95.92174 
L 342.652875 93.080322 
L 342.828837 90.265706 
L 342.942388 87.481129 
L 342.991821 84.729827 
L 342.975431 82.015036 
L 342.891512 79.33999 
L 342.738357 76.707927 
L 342.514262 74.122083 
L 342.217522 71.58569 
L 341.847196 69.101103 
L 341.404215 66.668512 
L 340.889796 64.287777 
L 340.305157 61.958759 
L 339.651514 59.68132 
L 338.930084 57.45532 
L 338.142083 55.280621 
L 337.288729 53.157083 
L 336.371237 51.084568 
L 335.390825 49.062937 
L 334.348709 47.09205 
L 333.246107 45.171769 
L 332.084234 43.301956 
L 330.864308 41.48247 
L 329.587545 39.713173 
L 328.255163 37.993926 
L 326.868377 36.32459 
L 325.428404 34.705027 
L 323.936462 33.135097 
L 322.393767 31.614661 
L 320.801535 30.14358 
L 319.160984 28.721716 
L 317.47333 27.348929 
L 315.73979 26.025081 
L 313.96158 24.750033 
L 312.139918 23.523645 
L 310.27602 22.345779 
L 308.371103 21.216296 
L 306.426383 20.135056 
L 304.443077 19.101922 
L 302.422403 18.116753 
L 300.365576 17.179412 
L 298.273813 16.289759 
L 296.148332 15.447654 
L 293.990349 14.65296 
L 291.80108 13.905538 
L 289.581743 13.205247 
L 287.333553 12.551951 
L 285.057729 11.945508 
L 282.755486 11.385781 
L 280.428041 10.872631 
L 278.076611 10.405918 
L 275.702413 9.985504 
L 273.306664 9.61125 
L 270.890579 9.283017 
L 268.455377 9.000665 
L 266.002273 8.764056 
L 263.532485 8.573052 
L 261.047229 8.427512 
L 258.547721 8.327299 
L 256.035179 8.272273 
L 253.51082 8.262295 
z
" clip-path="url(#pc6b87be054)" style="fill: #ff0000; opacity: 0.2; stroke: #ff0000; stroke-width: 0.3; stroke-linejoin: miter"/>
   </g>
   <g id="line2d_1">
    <path d="M 95.281544 209.8 
L 123.698361 8.262295 
" clip-path="url(#pc6b87be054)" style="fill: none; stroke-dasharray: 11.1,4.8; stroke-dashoffset: 0; stroke: #000000; stroke-opacity: 0.7; stroke-width: 3"/>
   </g>
   <g id="patch_5">
    <path d="M 7.2 201.6 
L 7.2 7.2 
" style="fill: none"/>
   </g>
   <g id="patch_6">
    <path d="M 345.6 201.6 
L 345.6 7.2 
" style="fill: none"/>
   </g>
   <g id="patch_7">
    <path d="M 7.2 201.6 
L 345.6 201.6 
" style="fill: none"/>
   </g>
   <g id="patch_8">
    <path d="M 7.2 7.2 
L 345.6 7.2 
" style="fill: none"/>
   </g>
  </g>
 </g>
 <defs>
  <clipPath id="pc6b87be054">
   <rect x="7.2" y="7.2" width="338.4" height="194.4"/>
  </clipPath>
 </defs>
</svg>
