<?xml version="1.0" encoding="utf-8" standalone="no"?>
<!DOCTYPE svg PUBLIC "-//W3C//DTD SVG 1.1//EN"
  "http://www.w3.org/Graphics/SVG/1.1/DTD/svg11.dtd">
<svg xmlns:xlink="http://www.w3.org/1999/xlink" width="372.882812pt" height="250.805833pt" viewBox="0 0 372.882812 250.805833" xmlns="http://www.w3.org/2000/svg" version="1.1">
 <metadata>
  <rdf:RDF xmlns:dc="http://purl.org/dc/elements/1.1/" xmlns:cc="http://creativecommons.org/ns#" xmlns:rdf="http://www.w3.org/1999/02/22-rdf-syntax-ns#">
   <cc:Work>
    <dc:type rdf:resource="http://purl.org/dc/dcmitype/StillImage"/>
    <dc:date>2022-07-10T23:03:04.441471</dc:date>
    <dc:format>image/svg+xml</dc:format>
    <dc:creator>
     <cc:Agent>
      <dc:title>Matplotlib v3.5.2, https://matplotlib.org/</dc:title>
     </cc:Agent>
    </dc:creator>
   </cc:Work>
  </rdf:RDF>
 </metadata>
 <defs>
  <style type="text/css">*{stroke-linejoin: round; stroke-linecap: butt}</style>
 </defs>
 <g id="figure_1">
  <g id="patch_1">
   <path d="M 0 250.805833 
L 372.882812 250.805833 
L 372.882812 0 
L 0 0 
L 0 250.805833 
z
" style="fill: none"/>
  </g>
  <g id="axes_1">
   <g id="patch_2">
    <path d="M 30.882813 227.460521 
L 365.682813 227.460521 
L 365.682813 10.020521 
L 30.882813 10.020521 
z
" style="fill: #eaeaf2"/>
   </g>
   <g id="matplotlib.axis_1">
    <g id="xtick_1">
     <g id="line2d_1">
      <path d="M 46.100994 227.460521 
L 46.100994 10.020521 
" clip-path="url(#pa75c991303)" style="fill: none; stroke: #ffffff; stroke-linecap: round"/>
     </g>
     <g id="line2d_2"/>
     <g id="text_1">
      <!-- 0.0 -->
      <g style="fill: #262626" transform="translate(39.150994 241.618333)scale(0.1 -0.1)">
       <defs>
        <path id="ArialMT-30" d="M 266 2259 
Q 266 3072 433 3567 
Q 600 4063 929 4331 
Q 1259 4600 1759 4600 
Q 2128 4600 2406 4451 
Q 2684 4303 2865 4023 
Q 3047 3744 3150 3342 
Q 3253 2941 3253 2259 
Q 3253 1453 3087 958 
Q 2922 463 2592 192 
Q 2263 -78 1759 -78 
Q 1097 -78 719 397 
Q 266 969 266 2259 
z
M 844 2259 
Q 844 1131 1108 757 
Q 1372 384 1759 384 
Q 2147 384 2411 759 
Q 2675 1134 2675 2259 
Q 2675 3391 2411 3762 
Q 2147 4134 1753 4134 
Q 1366 4134 1134 3806 
Q 844 3388 844 2259 
z
" transform="scale(0.015625)"/>
        <path id="ArialMT-2e" d="M 581 0 
L 581 641 
L 1222 641 
L 1222 0 
L 581 0 
z
" transform="scale(0.015625)"/>
       </defs>
       <use xlink:href="#ArialMT-30"/>
       <use xlink:href="#ArialMT-2e" x="55.615234"/>
       <use xlink:href="#ArialMT-30" x="83.398438"/>
      </g>
     </g>
    </g>
    <g id="xtick_2">
     <g id="line2d_3">
      <path d="M 106.973722 227.460521 
L 106.973722 10.020521 
" clip-path="url(#pa75c991303)" style="fill: none; stroke: #ffffff; stroke-linecap: round"/>
     </g>
     <g id="line2d_4"/>
     <g id="text_2">
      <!-- 0.2 -->
      <g style="fill: #262626" transform="translate(100.023722 241.618333)scale(0.1 -0.1)">
       <defs>
        <path id="ArialMT-32" d="M 3222 541 
L 3222 0 
L 194 0 
Q 188 203 259 391 
Q 375 700 629 1000 
Q 884 1300 1366 1694 
Q 2113 2306 2375 2664 
Q 2638 3022 2638 3341 
Q 2638 3675 2398 3904 
Q 2159 4134 1775 4134 
Q 1369 4134 1125 3890 
Q 881 3647 878 3216 
L 300 3275 
Q 359 3922 746 4261 
Q 1134 4600 1788 4600 
Q 2447 4600 2831 4234 
Q 3216 3869 3216 3328 
Q 3216 3053 3103 2787 
Q 2991 2522 2730 2228 
Q 2469 1934 1863 1422 
Q 1356 997 1212 845 
Q 1069 694 975 541 
L 3222 541 
z
" transform="scale(0.015625)"/>
       </defs>
       <use xlink:href="#ArialMT-30"/>
       <use xlink:href="#ArialMT-2e" x="55.615234"/>
       <use xlink:href="#ArialMT-32" x="83.398438"/>
      </g>
     </g>
    </g>
    <g id="xtick_3">
     <g id="line2d_5">
      <path d="M 167.846449 227.460521 
L 167.846449 10.020521 
" clip-path="url(#pa75c991303)" style="fill: none; stroke: #ffffff; stroke-linecap: round"/>
     </g>
     <g id="line2d_6"/>
     <g id="text_3">
      <!-- 0.4 -->
      <g style="fill: #262626" transform="translate(160.896449 241.618333)scale(0.1 -0.1)">
       <defs>
        <path id="ArialMT-34" d="M 2069 0 
L 2069 1097 
L 81 1097 
L 81 1613 
L 2172 4581 
L 2631 4581 
L 2631 1613 
L 3250 1613 
L 3250 1097 
L 2631 1097 
L 2631 0 
L 2069 0 
z
M 2069 1613 
L 2069 3678 
L 634 1613 
L 2069 1613 
z
" transform="scale(0.015625)"/>
       </defs>
       <use xlink:href="#ArialMT-30"/>
       <use xlink:href="#ArialMT-2e" x="55.615234"/>
       <use xlink:href="#ArialMT-34" x="83.398438"/>
      </g>
     </g>
    </g>
    <g id="xtick_4">
     <g id="line2d_7">
      <path d="M 228.719176 227.460521 
L 228.719176 10.020521 
" clip-path="url(#pa75c991303)" style="fill: none; stroke: #ffffff; stroke-linecap: round"/>
     </g>
     <g id="line2d_8"/>
     <g id="text_4">
      <!-- 0.6 -->
      <g style="fill: #262626" transform="translate(221.769176 241.618333)scale(0.1 -0.1)">
       <defs>
        <path id="ArialMT-36" d="M 3184 3459 
L 2625 3416 
Q 2550 3747 2413 3897 
Q 2184 4138 1850 4138 
Q 1581 4138 1378 3988 
Q 1113 3794 959 3422 
Q 806 3050 800 2363 
Q 1003 2672 1297 2822 
Q 1591 2972 1913 2972 
Q 2475 2972 2870 2558 
Q 3266 2144 3266 1488 
Q 3266 1056 3080 686 
Q 2894 316 2569 119 
Q 2244 -78 1831 -78 
Q 1128 -78 684 439 
Q 241 956 241 2144 
Q 241 3472 731 4075 
Q 1159 4600 1884 4600 
Q 2425 4600 2770 4297 
Q 3116 3994 3184 3459 
z
M 888 1484 
Q 888 1194 1011 928 
Q 1134 663 1356 523 
Q 1578 384 1822 384 
Q 2178 384 2434 671 
Q 2691 959 2691 1453 
Q 2691 1928 2437 2201 
Q 2184 2475 1800 2475 
Q 1419 2475 1153 2201 
Q 888 1928 888 1484 
z
" transform="scale(0.015625)"/>
       </defs>
       <use xlink:href="#ArialMT-30"/>
       <use xlink:href="#ArialMT-2e" x="55.615234"/>
       <use xlink:href="#ArialMT-36" x="83.398438"/>
      </g>
     </g>
    </g>
    <g id="xtick_5">
     <g id="line2d_9">
      <path d="M 289.591903 227.460521 
L 289.591903 10.020521 
" clip-path="url(#pa75c991303)" style="fill: none; stroke: #ffffff; stroke-linecap: round"/>
     </g>
     <g id="line2d_10"/>
     <g id="text_5">
      <!-- 0.8 -->
      <g style="fill: #262626" transform="translate(282.641903 241.618333)scale(0.1 -0.1)">
       <defs>
        <path id="ArialMT-38" d="M 1131 2484 
Q 781 2613 612 2850 
Q 444 3088 444 3419 
Q 444 3919 803 4259 
Q 1163 4600 1759 4600 
Q 2359 4600 2725 4251 
Q 3091 3903 3091 3403 
Q 3091 3084 2923 2848 
Q 2756 2613 2416 2484 
Q 2838 2347 3058 2040 
Q 3278 1734 3278 1309 
Q 3278 722 2862 322 
Q 2447 -78 1769 -78 
Q 1091 -78 675 323 
Q 259 725 259 1325 
Q 259 1772 486 2073 
Q 713 2375 1131 2484 
z
M 1019 3438 
Q 1019 3113 1228 2906 
Q 1438 2700 1772 2700 
Q 2097 2700 2305 2904 
Q 2513 3109 2513 3406 
Q 2513 3716 2298 3927 
Q 2084 4138 1766 4138 
Q 1444 4138 1231 3931 
Q 1019 3725 1019 3438 
z
M 838 1322 
Q 838 1081 952 856 
Q 1066 631 1291 507 
Q 1516 384 1775 384 
Q 2178 384 2440 643 
Q 2703 903 2703 1303 
Q 2703 1709 2433 1975 
Q 2163 2241 1756 2241 
Q 1359 2241 1098 1978 
Q 838 1716 838 1322 
z
" transform="scale(0.015625)"/>
       </defs>
       <use xlink:href="#ArialMT-30"/>
       <use xlink:href="#ArialMT-2e" x="55.615234"/>
       <use xlink:href="#ArialMT-38" x="83.398438"/>
      </g>
     </g>
    </g>
    <g id="xtick_6">
     <g id="line2d_11">
      <path d="M 350.464631 227.460521 
L 350.464631 10.020521 
" clip-path="url(#pa75c991303)" style="fill: none; stroke: #ffffff; stroke-linecap: round"/>
     </g>
     <g id="line2d_12"/>
     <g id="text_6">
      <!-- 1.0 -->
      <g style="fill: #262626" transform="translate(343.514631 241.618333)scale(0.1 -0.1)">
       <defs>
        <path id="ArialMT-31" d="M 2384 0 
L 1822 0 
L 1822 3584 
Q 1619 3391 1289 3197 
Q 959 3003 697 2906 
L 697 3450 
Q 1169 3672 1522 3987 
Q 1875 4303 2022 4600 
L 2384 4600 
L 2384 0 
z
" transform="scale(0.015625)"/>
       </defs>
       <use xlink:href="#ArialMT-31"/>
       <use xlink:href="#ArialMT-2e" x="55.615234"/>
       <use xlink:href="#ArialMT-30" x="83.398438"/>
      </g>
     </g>
    </g>
   </g>
   <g id="matplotlib.axis_2">
    <g id="ytick_1">
     <g id="line2d_13">
      <path d="M 30.882813 227.460521 
L 365.682813 227.460521 
" clip-path="url(#pa75c991303)" style="fill: none; stroke: #ffffff; stroke-linecap: round"/>
     </g>
     <g id="line2d_14"/>
     <g id="text_7">
      <!-- 0 -->
      <g style="fill: #262626" transform="translate(18.321875 231.039427)scale(0.1 -0.1)">
       <use xlink:href="#ArialMT-30"/>
      </g>
     </g>
    </g>
    <g id="ytick_2">
     <g id="line2d_15">
      <path d="M 30.882813 196.506004 
L 365.682813 196.506004 
" clip-path="url(#pa75c991303)" style="fill: none; stroke: #ffffff; stroke-linecap: round"/>
     </g>
     <g id="line2d_16"/>
     <g id="text_8">
      <!-- 100 -->
      <g style="fill: #262626" transform="translate(7.2 200.084911)scale(0.1 -0.1)">
       <use xlink:href="#ArialMT-31"/>
       <use xlink:href="#ArialMT-30" x="55.615234"/>
       <use xlink:href="#ArialMT-30" x="111.230469"/>
      </g>
     </g>
    </g>
    <g id="ytick_3">
     <g id="line2d_17">
      <path d="M 30.882813 165.551488 
L 365.682813 165.551488 
" clip-path="url(#pa75c991303)" style="fill: none; stroke: #ffffff; stroke-linecap: round"/>
     </g>
     <g id="line2d_18"/>
     <g id="text_9">
      <!-- 200 -->
      <g style="fill: #262626" transform="translate(7.2 169.130394)scale(0.1 -0.1)">
       <use xlink:href="#ArialMT-32"/>
       <use xlink:href="#ArialMT-30" x="55.615234"/>
       <use xlink:href="#ArialMT-30" x="111.230469"/>
      </g>
     </g>
    </g>
    <g id="ytick_4">
     <g id="line2d_19">
      <path d="M 30.882813 134.596972 
L 365.682813 134.596972 
" clip-path="url(#pa75c991303)" style="fill: none; stroke: #ffffff; stroke-linecap: round"/>
     </g>
     <g id="line2d_20"/>
     <g id="text_10">
      <!-- 300 -->
      <g style="fill: #262626" transform="translate(7.2 138.175878)scale(0.1 -0.1)">
       <defs>
        <path id="ArialMT-33" d="M 269 1209 
L 831 1284 
Q 928 806 1161 595 
Q 1394 384 1728 384 
Q 2125 384 2398 659 
Q 2672 934 2672 1341 
Q 2672 1728 2419 1979 
Q 2166 2231 1775 2231 
Q 1616 2231 1378 2169 
L 1441 2663 
Q 1497 2656 1531 2656 
Q 1891 2656 2178 2843 
Q 2466 3031 2466 3422 
Q 2466 3731 2256 3934 
Q 2047 4138 1716 4138 
Q 1388 4138 1169 3931 
Q 950 3725 888 3313 
L 325 3413 
Q 428 3978 793 4289 
Q 1159 4600 1703 4600 
Q 2078 4600 2393 4439 
Q 2709 4278 2876 4000 
Q 3044 3722 3044 3409 
Q 3044 3113 2884 2869 
Q 2725 2625 2413 2481 
Q 2819 2388 3044 2092 
Q 3269 1797 3269 1353 
Q 3269 753 2831 336 
Q 2394 -81 1725 -81 
Q 1122 -81 723 278 
Q 325 638 269 1209 
z
" transform="scale(0.015625)"/>
       </defs>
       <use xlink:href="#ArialMT-33"/>
       <use xlink:href="#ArialMT-30" x="55.615234"/>
       <use xlink:href="#ArialMT-30" x="111.230469"/>
      </g>
     </g>
    </g>
    <g id="ytick_5">
     <g id="line2d_21">
      <path d="M 30.882813 103.642455 
L 365.682813 103.642455 
" clip-path="url(#pa75c991303)" style="fill: none; stroke: #ffffff; stroke-linecap: round"/>
     </g>
     <g id="line2d_22"/>
     <g id="text_11">
      <!-- 400 -->
      <g style="fill: #262626" transform="translate(7.2 107.221362)scale(0.1 -0.1)">
       <use xlink:href="#ArialMT-34"/>
       <use xlink:href="#ArialMT-30" x="55.615234"/>
       <use xlink:href="#ArialMT-30" x="111.230469"/>
      </g>
     </g>
    </g>
    <g id="ytick_6">
     <g id="line2d_23">
      <path d="M 30.882813 72.687939 
L 365.682813 72.687939 
" clip-path="url(#pa75c991303)" style="fill: none; stroke: #ffffff; stroke-linecap: round"/>
     </g>
     <g id="line2d_24"/>
     <g id="text_12">
      <!-- 500 -->
      <g style="fill: #262626" transform="translate(7.2 76.266845)scale(0.1 -0.1)">
       <defs>
        <path id="ArialMT-35" d="M 266 1200 
L 856 1250 
Q 922 819 1161 601 
Q 1400 384 1738 384 
Q 2144 384 2425 690 
Q 2706 997 2706 1503 
Q 2706 1984 2436 2262 
Q 2166 2541 1728 2541 
Q 1456 2541 1237 2417 
Q 1019 2294 894 2097 
L 366 2166 
L 809 4519 
L 3088 4519 
L 3088 3981 
L 1259 3981 
L 1013 2750 
Q 1425 3038 1878 3038 
Q 2478 3038 2890 2622 
Q 3303 2206 3303 1553 
Q 3303 931 2941 478 
Q 2500 -78 1738 -78 
Q 1113 -78 717 272 
Q 322 622 266 1200 
z
" transform="scale(0.015625)"/>
       </defs>
       <use xlink:href="#ArialMT-35"/>
       <use xlink:href="#ArialMT-30" x="55.615234"/>
       <use xlink:href="#ArialMT-30" x="111.230469"/>
      </g>
     </g>
    </g>
    <g id="ytick_7">
     <g id="line2d_25">
      <path d="M 30.882813 41.733423 
L 365.682813 41.733423 
" clip-path="url(#pa75c991303)" style="fill: none; stroke: #ffffff; stroke-linecap: round"/>
     </g>
     <g id="line2d_26"/>
     <g id="text_13">
      <!-- 600 -->
      <g style="fill: #262626" transform="translate(7.2 45.312329)scale(0.1 -0.1)">
       <use xlink:href="#ArialMT-36"/>
       <use xlink:href="#ArialMT-30" x="55.615234"/>
       <use xlink:href="#ArialMT-30" x="111.230469"/>
      </g>
     </g>
    </g>
    <g id="ytick_8">
     <g id="line2d_27">
      <path d="M 30.882813 10.778906 
L 365.682813 10.778906 
" clip-path="url(#pa75c991303)" style="fill: none; stroke: #ffffff; stroke-linecap: round"/>
     </g>
     <g id="line2d_28"/>
     <g id="text_14">
      <!-- 700 -->
      <g style="fill: #262626" transform="translate(7.2 14.357812)scale(0.1 -0.1)">
       <defs>
        <path id="ArialMT-37" d="M 303 3981 
L 303 4522 
L 3269 4522 
L 3269 4084 
Q 2831 3619 2401 2847 
Q 1972 2075 1738 1259 
Q 1569 684 1522 0 
L 944 0 
Q 953 541 1156 1306 
Q 1359 2072 1739 2783 
Q 2119 3494 2547 3981 
L 303 3981 
z
" transform="scale(0.015625)"/>
       </defs>
       <use xlink:href="#ArialMT-37"/>
       <use xlink:href="#ArialMT-30" x="55.615234"/>
       <use xlink:href="#ArialMT-30" x="111.230469"/>
      </g>
     </g>
    </g>
   </g>
   <g id="patch_3">
    <path d="M 46.100994 227.460521 
L 49.144631 227.460521 
L 49.144631 187.219649 
L 46.100994 187.219649 
z
" clip-path="url(#pa75c991303)" style="fill: #4c72b0"/>
   </g>
   <g id="patch_4">
    <path d="M 49.144631 227.460521 
L 52.188267 227.460521 
L 52.188267 227.150975 
L 49.144631 227.150975 
z
" clip-path="url(#pa75c991303)" style="fill: #4c72b0"/>
   </g>
   <g id="patch_5">
    <path d="M 52.188267 227.460521 
L 55.231903 227.460521 
L 55.231903 210.125991 
L 52.188267 210.125991 
z
" clip-path="url(#pa75c991303)" style="fill: #4c72b0"/>
   </g>
   <g id="patch_6">
    <path d="M 55.231903 227.460521 
L 58.27554 227.460521 
L 58.27554 226.22234 
L 55.231903 226.22234 
z
" clip-path="url(#pa75c991303)" style="fill: #4c72b0"/>
   </g>
   <g id="patch_7">
    <path d="M 58.27554 227.460521 
L 61.319176 227.460521 
L 61.319176 221.269617 
L 58.27554 221.269617 
z
" clip-path="url(#pa75c991303)" style="fill: #4c72b0"/>
   </g>
   <g id="patch_8">
    <path d="M 61.319176 227.460521 
L 64.362813 227.460521 
L 64.362813 224.984159 
L 61.319176 224.984159 
z
" clip-path="url(#pa75c991303)" style="fill: #4c72b0"/>
   </g>
   <g id="patch_9">
    <path d="M 64.362813 227.460521 
L 67.406449 227.460521 
L 67.406449 221.888708 
L 64.362813 221.888708 
z
" clip-path="url(#pa75c991303)" style="fill: #4c72b0"/>
   </g>
   <g id="patch_10">
    <path d="M 67.406449 227.460521 
L 70.450085 227.460521 
L 70.450085 219.102801 
L 67.406449 219.102801 
z
" clip-path="url(#pa75c991303)" style="fill: #4c72b0"/>
   </g>
   <g id="patch_11">
    <path d="M 70.450085 227.460521 
L 73.493722 227.460521 
L 73.493722 222.198253 
L 70.450085 222.198253 
z
" clip-path="url(#pa75c991303)" style="fill: #4c72b0"/>
   </g>
   <g id="patch_12">
    <path d="M 73.493722 227.460521 
L 76.537358 227.460521 
L 76.537358 219.412346 
L 73.493722 219.412346 
z
" clip-path="url(#pa75c991303)" style="fill: #4c72b0"/>
   </g>
   <g id="patch_13">
    <path d="M 76.537358 227.460521 
L 79.580994 227.460521 
L 79.580994 218.793256 
L 76.537358 218.793256 
z
" clip-path="url(#pa75c991303)" style="fill: #4c72b0"/>
   </g>
   <g id="patch_14">
    <path d="M 79.580994 227.460521 
L 82.624631 227.460521 
L 82.624631 218.793256 
L 79.580994 218.793256 
z
" clip-path="url(#pa75c991303)" style="fill: #4c72b0"/>
   </g>
   <g id="patch_15">
    <path d="M 82.624631 227.460521 
L 85.668267 227.460521 
L 85.668267 211.983262 
L 82.624631 211.983262 
z
" clip-path="url(#pa75c991303)" style="fill: #4c72b0"/>
   </g>
   <g id="patch_16">
    <path d="M 85.668267 227.460521 
L 88.711903 227.460521 
L 88.711903 217.24553 
L 85.668267 217.24553 
z
" clip-path="url(#pa75c991303)" style="fill: #4c72b0"/>
   </g>
   <g id="patch_17">
    <path d="M 88.711903 227.460521 
L 91.75554 227.460521 
L 91.75554 220.650527 
L 88.711903 220.650527 
z
" clip-path="url(#pa75c991303)" style="fill: #4c72b0"/>
   </g>
   <g id="patch_18">
    <path d="M 91.75554 227.460521 
L 94.799176 227.460521 
L 94.799176 200.220546 
L 91.75554 200.220546 
z
" clip-path="url(#pa75c991303)" style="fill: #4c72b0"/>
   </g>
   <g id="patch_19">
    <path d="M 94.799176 227.460521 
L 97.842813 227.460521 
L 97.842813 220.340982 
L 94.799176 220.340982 
z
" clip-path="url(#pa75c991303)" style="fill: #4c72b0"/>
   </g>
   <g id="patch_20">
    <path d="M 97.842813 227.460521 
L 100.886449 227.460521 
L 100.886449 224.674614 
L 97.842813 224.674614 
z
" clip-path="url(#pa75c991303)" style="fill: #4c72b0"/>
   </g>
   <g id="patch_21">
    <path d="M 100.886449 227.460521 
L 103.930085 227.460521 
L 103.930085 220.960072 
L 100.886449 220.960072 
z
" clip-path="url(#pa75c991303)" style="fill: #4c72b0"/>
   </g>
   <g id="patch_22">
    <path d="M 103.930085 227.460521 
L 106.973722 227.460521 
L 106.973722 220.340982 
L 103.930085 220.340982 
z
" clip-path="url(#pa75c991303)" style="fill: #4c72b0"/>
   </g>
   <g id="patch_23">
    <path d="M 106.973722 227.460521 
L 110.017358 227.460521 
L 110.017358 20.374806 
L 106.973722 20.374806 
z
" clip-path="url(#pa75c991303)" style="fill: #4c72b0"/>
   </g>
   <g id="patch_24">
    <path d="M 110.017358 227.460521 
L 113.060994 227.460521 
L 113.060994 220.960072 
L 110.017358 220.960072 
z
" clip-path="url(#pa75c991303)" style="fill: #4c72b0"/>
   </g>
   <g id="patch_25">
    <path d="M 113.060994 227.460521 
L 116.104631 227.460521 
L 116.104631 210.125991 
L 113.060994 210.125991 
z
" clip-path="url(#pa75c991303)" style="fill: #4c72b0"/>
   </g>
   <g id="patch_26">
    <path d="M 116.104631 227.460521 
L 119.148267 227.460521 
L 119.148267 217.24553 
L 116.104631 217.24553 
z
" clip-path="url(#pa75c991303)" style="fill: #4c72b0"/>
   </g>
   <g id="patch_27">
    <path d="M 119.148267 227.460521 
L 122.191903 227.460521 
L 122.191903 215.078714 
L 119.148267 215.078714 
z
" clip-path="url(#pa75c991303)" style="fill: #4c72b0"/>
   </g>
   <g id="patch_28">
    <path d="M 122.191903 227.460521 
L 125.23554 227.460521 
L 125.23554 216.935985 
L 122.191903 216.935985 
z
" clip-path="url(#pa75c991303)" style="fill: #4c72b0"/>
   </g>
   <g id="patch_29">
    <path d="M 125.23554 227.460521 
L 128.279176 227.460521 
L 128.279176 212.602353 
L 125.23554 212.602353 
z
" clip-path="url(#pa75c991303)" style="fill: #4c72b0"/>
   </g>
   <g id="patch_30">
    <path d="M 128.279176 227.460521 
L 131.322812 227.460521 
L 131.322812 210.435537 
L 128.279176 210.435537 
z
" clip-path="url(#pa75c991303)" style="fill: #4c72b0"/>
   </g>
   <g id="patch_31">
    <path d="M 131.322812 227.460521 
L 134.366449 227.460521 
L 134.366449 212.911898 
L 131.322812 212.911898 
z
" clip-path="url(#pa75c991303)" style="fill: #4c72b0"/>
   </g>
   <g id="patch_32">
    <path d="M 134.366449 227.460521 
L 137.410085 227.460521 
L 137.410085 214.150079 
L 134.366449 214.150079 
z
" clip-path="url(#pa75c991303)" style="fill: #4c72b0"/>
   </g>
   <g id="patch_33">
    <path d="M 137.410085 227.460521 
L 140.453722 227.460521 
L 140.453722 208.578266 
L 137.410085 208.578266 
z
" clip-path="url(#pa75c991303)" style="fill: #4c72b0"/>
   </g>
   <g id="patch_34">
    <path d="M 140.453722 227.460521 
L 143.497358 227.460521 
L 143.497358 174.837843 
L 140.453722 174.837843 
z
" clip-path="url(#pa75c991303)" style="fill: #4c72b0"/>
   </g>
   <g id="patch_35">
    <path d="M 143.497358 227.460521 
L 146.540994 227.460521 
L 146.540994 153.788772 
L 143.497358 153.788772 
z
" clip-path="url(#pa75c991303)" style="fill: #4c72b0"/>
   </g>
   <g id="patch_36">
    <path d="M 146.540994 227.460521 
L 149.584631 227.460521 
L 149.584631 204.244633 
L 146.540994 204.244633 
z
" clip-path="url(#pa75c991303)" style="fill: #4c72b0"/>
   </g>
   <g id="patch_37">
    <path d="M 149.584631 227.460521 
L 152.628267 227.460521 
L 152.628267 206.411449 
L 149.584631 206.411449 
z
" clip-path="url(#pa75c991303)" style="fill: #4c72b0"/>
   </g>
   <g id="patch_38">
    <path d="M 152.628267 227.460521 
L 155.671903 227.460521 
L 155.671903 199.601456 
L 152.628267 199.601456 
z
" clip-path="url(#pa75c991303)" style="fill: #4c72b0"/>
   </g>
   <g id="patch_39">
    <path d="M 155.671903 227.460521 
L 158.71554 227.460521 
L 158.71554 213.221443 
L 155.671903 213.221443 
z
" clip-path="url(#pa75c991303)" style="fill: #4c72b0"/>
   </g>
   <g id="patch_40">
    <path d="M 158.71554 227.460521 
L 161.759176 227.460521 
L 161.759176 182.576472 
L 158.71554 182.576472 
z
" clip-path="url(#pa75c991303)" style="fill: #4c72b0"/>
   </g>
   <g id="patch_41">
    <path d="M 161.759176 227.460521 
L 164.802813 227.460521 
L 164.802813 177.623749 
L 161.759176 177.623749 
z
" clip-path="url(#pa75c991303)" style="fill: #4c72b0"/>
   </g>
   <g id="patch_42">
    <path d="M 164.802813 227.460521 
L 167.846449 227.460521 
L 167.846449 214.459624 
L 164.802813 214.459624 
z
" clip-path="url(#pa75c991303)" style="fill: #4c72b0"/>
   </g>
   <g id="patch_43">
    <path d="M 167.846449 227.460521 
L 170.890085 227.460521 
L 170.890085 61.234768 
L 167.846449 61.234768 
z
" clip-path="url(#pa75c991303)" style="fill: #4c72b0"/>
   </g>
   <g id="patch_44">
    <path d="M 170.890085 227.460521 
L 173.933722 227.460521 
L 173.933722 217.864621 
L 170.890085 217.864621 
z
" clip-path="url(#pa75c991303)" style="fill: #4c72b0"/>
   </g>
   <g id="patch_45">
    <path d="M 173.933722 227.460521 
L 176.977358 227.460521 
L 176.977358 203.935088 
L 173.933722 203.935088 
z
" clip-path="url(#pa75c991303)" style="fill: #4c72b0"/>
   </g>
   <g id="patch_46">
    <path d="M 176.977358 227.460521 
L 180.020994 227.460521 
L 180.020994 204.863724 
L 176.977358 204.863724 
z
" clip-path="url(#pa75c991303)" style="fill: #4c72b0"/>
   </g>
   <g id="patch_47">
    <path d="M 180.020994 227.460521 
L 183.064631 227.460521 
L 183.064631 195.577369 
L 180.020994 195.577369 
z
" clip-path="url(#pa75c991303)" style="fill: #4c72b0"/>
   </g>
   <g id="patch_48">
    <path d="M 183.064631 227.460521 
L 186.108267 227.460521 
L 186.108267 215.388259 
L 183.064631 215.388259 
z
" clip-path="url(#pa75c991303)" style="fill: #4c72b0"/>
   </g>
   <g id="patch_49">
    <path d="M 186.108267 227.460521 
L 189.151903 227.460521 
L 189.151903 217.864621 
L 186.108267 217.864621 
z
" clip-path="url(#pa75c991303)" style="fill: #4c72b0"/>
   </g>
   <g id="patch_50">
    <path d="M 189.151903 227.460521 
L 192.19554 227.460521 
L 192.19554 181.957382 
L 189.151903 181.957382 
z
" clip-path="url(#pa75c991303)" style="fill: #4c72b0"/>
   </g>
   <g id="patch_51">
    <path d="M 192.19554 227.460521 
L 195.239176 227.460521 
L 195.239176 210.125991 
L 192.19554 210.125991 
z
" clip-path="url(#pa75c991303)" style="fill: #4c72b0"/>
   </g>
   <g id="patch_52">
    <path d="M 195.239176 227.460521 
L 198.282813 227.460521 
L 198.282813 217.555075 
L 195.239176 217.555075 
z
" clip-path="url(#pa75c991303)" style="fill: #4c72b0"/>
   </g>
   <g id="patch_53">
    <path d="M 198.282813 227.460521 
L 201.326449 227.460521 
L 201.326449 193.101007 
L 198.282813 193.101007 
z
" clip-path="url(#pa75c991303)" style="fill: #4c72b0"/>
   </g>
   <g id="patch_54">
    <path d="M 201.326449 227.460521 
L 204.370085 227.460521 
L 204.370085 45.138419 
L 201.326449 45.138419 
z
" clip-path="url(#pa75c991303)" style="fill: #4c72b0"/>
   </g>
   <g id="patch_55">
    <path d="M 204.370085 227.460521 
L 207.413722 227.460521 
L 207.413722 183.195562 
L 204.370085 183.195562 
z
" clip-path="url(#pa75c991303)" style="fill: #4c72b0"/>
   </g>
   <g id="patch_56">
    <path d="M 207.413722 227.460521 
L 210.457358 227.460521 
L 210.457358 166.480123 
L 207.413722 166.480123 
z
" clip-path="url(#pa75c991303)" style="fill: #4c72b0"/>
   </g>
   <g id="patch_57">
    <path d="M 210.457358 227.460521 
L 213.500994 227.460521 
L 213.500994 173.290117 
L 210.457358 173.290117 
z
" clip-path="url(#pa75c991303)" style="fill: #4c72b0"/>
   </g>
   <g id="patch_58">
    <path d="M 213.500994 227.460521 
L 216.544631 227.460521 
L 216.544631 194.029643 
L 213.500994 194.029643 
z
" clip-path="url(#pa75c991303)" style="fill: #4c72b0"/>
   </g>
   <g id="patch_59">
    <path d="M 216.544631 227.460521 
L 219.588267 227.460521 
L 219.588267 206.720995 
L 216.544631 206.720995 
z
" clip-path="url(#pa75c991303)" style="fill: #4c72b0"/>
   </g>
   <g id="patch_60">
    <path d="M 219.588267 227.460521 
L 222.631903 227.460521 
L 222.631903 60.615678 
L 219.588267 60.615678 
z
" clip-path="url(#pa75c991303)" style="fill: #4c72b0"/>
   </g>
   <g id="patch_61">
    <path d="M 222.631903 227.460521 
L 225.67554 227.460521 
L 225.67554 172.671027 
L 222.631903 172.671027 
z
" clip-path="url(#pa75c991303)" style="fill: #4c72b0"/>
   </g>
   <g id="patch_62">
    <path d="M 225.67554 227.460521 
L 228.719176 227.460521 
L 228.719176 159.979675 
L 225.67554 159.979675 
z
" clip-path="url(#pa75c991303)" style="fill: #4c72b0"/>
   </g>
   <g id="patch_63">
    <path d="M 228.719176 227.460521 
L 231.762812 227.460521 
L 231.762812 171.123301 
L 228.719176 171.123301 
z
" clip-path="url(#pa75c991303)" style="fill: #4c72b0"/>
   </g>
   <g id="patch_64">
    <path d="M 231.762812 227.460521 
L 234.806449 227.460521 
L 234.806449 203.315998 
L 231.762812 203.315998 
z
" clip-path="url(#pa75c991303)" style="fill: #4c72b0"/>
   </g>
   <g id="patch_65">
    <path d="M 234.806449 227.460521 
L 237.850085 227.460521 
L 237.850085 198.982366 
L 234.806449 198.982366 
z
" clip-path="url(#pa75c991303)" style="fill: #4c72b0"/>
   </g>
   <g id="patch_66">
    <path d="M 237.850085 227.460521 
L 240.893722 227.460521 
L 240.893722 209.197356 
L 237.850085 209.197356 
z
" clip-path="url(#pa75c991303)" style="fill: #4c72b0"/>
   </g>
   <g id="patch_67">
    <path d="M 240.893722 227.460521 
L 243.937358 227.460521 
L 243.937358 203.006453 
L 240.893722 203.006453 
z
" clip-path="url(#pa75c991303)" style="fill: #4c72b0"/>
   </g>
   <g id="patch_68">
    <path d="M 243.937358 227.460521 
L 246.980994 227.460521 
L 246.980994 146.669233 
L 243.937358 146.669233 
z
" clip-path="url(#pa75c991303)" style="fill: #4c72b0"/>
   </g>
   <g id="patch_69">
    <path d="M 246.980994 227.460521 
L 250.024631 227.460521 
L 250.024631 217.555075 
L 246.980994 217.555075 
z
" clip-path="url(#pa75c991303)" style="fill: #4c72b0"/>
   </g>
   <g id="patch_70">
    <path d="M 250.024631 227.460521 
L 253.068267 227.460521 
L 253.068267 188.45783 
L 250.024631 188.45783 
z
" clip-path="url(#pa75c991303)" style="fill: #4c72b0"/>
   </g>
   <g id="patch_71">
    <path d="M 253.068267 227.460521 
L 256.111903 227.460521 
L 256.111903 209.197356 
L 253.068267 209.197356 
z
" clip-path="url(#pa75c991303)" style="fill: #4c72b0"/>
   </g>
   <g id="patch_72">
    <path d="M 256.111903 227.460521 
L 259.15554 227.460521 
L 259.15554 208.887811 
L 256.111903 208.887811 
z
" clip-path="url(#pa75c991303)" style="fill: #4c72b0"/>
   </g>
   <g id="patch_73">
    <path d="M 259.15554 227.460521 
L 262.199176 227.460521 
L 262.199176 216.62644 
L 259.15554 216.62644 
z
" clip-path="url(#pa75c991303)" style="fill: #4c72b0"/>
   </g>
   <g id="patch_74">
    <path d="M 262.199176 227.460521 
L 265.242813 227.460521 
L 265.242813 151.002865 
L 262.199176 151.002865 
z
" clip-path="url(#pa75c991303)" style="fill: #4c72b0"/>
   </g>
   <g id="patch_75">
    <path d="M 265.242813 227.460521 
L 268.286449 227.460521 
L 268.286449 194.339188 
L 265.242813 194.339188 
z
" clip-path="url(#pa75c991303)" style="fill: #4c72b0"/>
   </g>
   <g id="patch_76">
    <path d="M 268.286449 227.460521 
L 271.330085 227.460521 
L 271.330085 195.267824 
L 268.286449 195.267824 
z
" clip-path="url(#pa75c991303)" style="fill: #4c72b0"/>
   </g>
   <g id="patch_77">
    <path d="M 271.330085 227.460521 
L 274.373722 227.460521 
L 274.373722 193.720098 
L 271.330085 193.720098 
z
" clip-path="url(#pa75c991303)" style="fill: #4c72b0"/>
   </g>
   <g id="patch_78">
    <path d="M 274.373722 227.460521 
L 277.417358 227.460521 
L 277.417358 197.125095 
L 274.373722 197.125095 
z
" clip-path="url(#pa75c991303)" style="fill: #4c72b0"/>
   </g>
   <g id="patch_79">
    <path d="M 277.417358 227.460521 
L 280.460994 227.460521 
L 280.460994 193.720098 
L 277.417358 193.720098 
z
" clip-path="url(#pa75c991303)" style="fill: #4c72b0"/>
   </g>
   <g id="patch_80">
    <path d="M 280.460994 227.460521 
L 283.504631 227.460521 
L 283.504631 207.03054 
L 280.460994 207.03054 
z
" clip-path="url(#pa75c991303)" style="fill: #4c72b0"/>
   </g>
   <g id="patch_81">
    <path d="M 283.504631 227.460521 
L 286.548267 227.460521 
L 286.548267 204.244633 
L 283.504631 204.244633 
z
" clip-path="url(#pa75c991303)" style="fill: #4c72b0"/>
   </g>
   <g id="patch_82">
    <path d="M 286.548267 227.460521 
L 289.591903 227.460521 
L 289.591903 194.029643 
L 286.548267 194.029643 
z
" clip-path="url(#pa75c991303)" style="fill: #4c72b0"/>
   </g>
   <g id="patch_83">
    <path d="M 289.591903 227.460521 
L 292.63554 227.460521 
L 292.63554 169.26603 
L 289.591903 169.26603 
z
" clip-path="url(#pa75c991303)" style="fill: #4c72b0"/>
   </g>
   <g id="patch_84">
    <path d="M 292.63554 227.460521 
L 295.679176 227.460521 
L 295.679176 130.88243 
L 292.63554 130.88243 
z
" clip-path="url(#pa75c991303)" style="fill: #4c72b0"/>
   </g>
   <g id="patch_85">
    <path d="M 295.679176 227.460521 
L 298.722813 227.460521 
L 298.722813 213.221443 
L 295.679176 213.221443 
z
" clip-path="url(#pa75c991303)" style="fill: #4c72b0"/>
   </g>
   <g id="patch_86">
    <path d="M 298.722813 227.460521 
L 301.766449 227.460521 
L 301.766449 207.03054 
L 298.722813 207.03054 
z
" clip-path="url(#pa75c991303)" style="fill: #4c72b0"/>
   </g>
   <g id="patch_87">
    <path d="M 301.766449 227.460521 
L 304.810085 227.460521 
L 304.810085 211.054627 
L 301.766449 211.054627 
z
" clip-path="url(#pa75c991303)" style="fill: #4c72b0"/>
   </g>
   <g id="patch_88">
    <path d="M 304.810085 227.460521 
L 307.853722 227.460521 
L 307.853722 77.021571 
L 304.810085 77.021571 
z
" clip-path="url(#pa75c991303)" style="fill: #4c72b0"/>
   </g>
   <g id="patch_89">
    <path d="M 307.853722 227.460521 
L 310.897358 227.460521 
L 310.897358 219.412346 
L 307.853722 219.412346 
z
" clip-path="url(#pa75c991303)" style="fill: #4c72b0"/>
   </g>
   <g id="patch_90">
    <path d="M 310.897358 227.460521 
L 313.940994 227.460521 
L 313.940994 192.172372 
L 310.897358 192.172372 
z
" clip-path="url(#pa75c991303)" style="fill: #4c72b0"/>
   </g>
   <g id="patch_91">
    <path d="M 313.940994 227.460521 
L 316.984631 227.460521 
L 316.984631 218.174166 
L 313.940994 218.174166 
z
" clip-path="url(#pa75c991303)" style="fill: #4c72b0"/>
   </g>
   <g id="patch_92">
    <path d="M 316.984631 227.460521 
L 320.028267 227.460521 
L 320.028267 191.553282 
L 316.984631 191.553282 
z
" clip-path="url(#pa75c991303)" style="fill: #4c72b0"/>
   </g>
   <g id="patch_93">
    <path d="M 320.028267 227.460521 
L 323.071903 227.460521 
L 323.071903 224.674614 
L 320.028267 224.674614 
z
" clip-path="url(#pa75c991303)" style="fill: #4c72b0"/>
   </g>
   <g id="patch_94">
    <path d="M 323.071903 227.460521 
L 326.11554 227.460521 
L 326.11554 215.078714 
L 323.071903 215.078714 
z
" clip-path="url(#pa75c991303)" style="fill: #4c72b0"/>
   </g>
   <g id="patch_95">
    <path d="M 326.11554 227.460521 
L 329.159176 227.460521 
L 329.159176 215.388259 
L 326.11554 215.388259 
z
" clip-path="url(#pa75c991303)" style="fill: #4c72b0"/>
   </g>
   <g id="patch_96">
    <path d="M 329.159176 227.460521 
L 332.202812 227.460521 
L 332.202812 222.198253 
L 329.159176 222.198253 
z
" clip-path="url(#pa75c991303)" style="fill: #4c72b0"/>
   </g>
   <g id="patch_97">
    <path d="M 332.202813 227.460521 
L 335.246449 227.460521 
L 335.246449 226.531885 
L 332.202813 226.531885 
z
" clip-path="url(#pa75c991303)" style="fill: #4c72b0"/>
   </g>
   <g id="patch_98">
    <path d="M 335.246449 227.460521 
L 338.290085 227.460521 
L 338.290085 219.721892 
L 335.246449 219.721892 
z
" clip-path="url(#pa75c991303)" style="fill: #4c72b0"/>
   </g>
   <g id="patch_99">
    <path d="M 338.290085 227.460521 
L 341.333722 227.460521 
L 341.333722 203.625543 
L 338.290085 203.625543 
z
" clip-path="url(#pa75c991303)" style="fill: #4c72b0"/>
   </g>
   <g id="patch_100">
    <path d="M 341.333722 227.460521 
L 344.377358 227.460521 
L 344.377358 226.531885 
L 341.333722 226.531885 
z
" clip-path="url(#pa75c991303)" style="fill: #4c72b0"/>
   </g>
   <g id="patch_101">
    <path d="M 344.377358 227.460521 
L 347.420994 227.460521 
L 347.420994 223.126888 
L 344.377358 223.126888 
z
" clip-path="url(#pa75c991303)" style="fill: #4c72b0"/>
   </g>
   <g id="patch_102">
    <path d="M 347.420994 227.460521 
L 350.464631 227.460521 
L 350.464631 219.102801 
L 347.420994 219.102801 
z
" clip-path="url(#pa75c991303)" style="fill: #4c72b0"/>
   </g>
   <g id="patch_103">
    <path d="M 30.882813 227.460521 
L 30.882813 10.020521 
" style="fill: none"/>
   </g>
   <g id="patch_104">
    <path d="M 365.682813 227.460521 
L 365.682813 10.020521 
" style="fill: none"/>
   </g>
   <g id="patch_105">
    <path d="M 30.882812 227.460521 
L 365.682813 227.460521 
" style="fill: none"/>
   </g>
   <g id="patch_106">
    <path d="M 30.882812 10.020521 
L 365.682813 10.020521 
" style="fill: none"/>
   </g>
  </g>
 </g>
 <defs>
  <clipPath id="pa75c991303">
   <rect x="30.882813" y="10.020521" width="334.8" height="217.44"/>
  </clipPath>
 </defs>
</svg>
