<?xml version="1.0" encoding="utf-8" standalone="no"?>
<!DOCTYPE svg PUBLIC "-//W3C//DTD SVG 1.1//EN"
  "http://www.w3.org/Graphics/SVG/1.1/DTD/svg11.dtd">
<svg xmlns:xlink="http://www.w3.org/1999/xlink" width="712.8pt" height="425.304596pt" viewBox="0 0 712.8 425.304596" xmlns="http://www.w3.org/2000/svg" version="1.1">
 <metadata>
  <rdf:RDF xmlns:dc="http://purl.org/dc/elements/1.1/" xmlns:cc="http://creativecommons.org/ns#" xmlns:rdf="http://www.w3.org/1999/02/22-rdf-syntax-ns#">
   <cc:Work>
    <dc:type rdf:resource="http://purl.org/dc/dcmitype/StillImage"/>
    <dc:date>2022-07-10T23:02:47.050372</dc:date>
    <dc:format>image/svg+xml</dc:format>
    <dc:creator>
     <cc:Agent>
      <dc:title>Matplotlib v3.5.2, https://matplotlib.org/</dc:title>
     </cc:Agent>
    </dc:creator>
   </cc:Work>
  </rdf:RDF>
 </metadata>
 <defs>
  <style type="text/css">*{stroke-linejoin: round; stroke-linecap: butt}</style>
 </defs>
 <g id="figure_1">
  <g id="patch_1">
   <path d="M 0 425.304596 
L 712.8 425.304596 
L 712.8 0 
L 0 0 
L 0 425.304596 
z
" style="fill: none"/>
  </g>
  <g id="axes_1">
   <g id="patch_2">
    <path d="M 7.2 190.784659 
L 351 190.784659 
L 351 7.2 
L 7.2 7.2 
z
" style="fill: #eaeaf2"/>
   </g>
   <g id="matplotlib.axis_1"/>
   <g id="matplotlib.axis_2"/>
   <g id="patch_3">
    <path d="M -1.817705 198.810217 
L 370.162623 198.810217 
L 370.162623 -1.828754 
L -1.817705 -1.828754 
z
" clip-path="url(#pf12afb10e3)" style="fill: #0000ff; opacity: 0.1"/>
   </g>
   <g id="patch_4">
    <path d="M 9.454426 28.267092 
L 10.668266 29.252888 
L 12.084992 30.171859 
L 13.690394 31.028683 
L 15.470265 31.828043 
L 17.410395 32.574616 
L 19.496574 33.273085 
L 21.714595 33.928128 
L 24.050247 34.544426 
L 26.489323 35.126659 
L 29.017612 35.679508 
L 31.620907 36.207651 
L 34.284998 36.71577 
L 36.995675 37.208544 
L 39.738731 37.690653 
L 42.499955 38.166778 
L 45.26514 38.641599 
L 48.020076 39.119795 
L 50.750553 39.606047 
L 53.442364 40.105036 
L 56.081299 40.62144 
L 58.653149 41.15994 
L 61.143705 41.725217 
L 63.538758 42.32195 
L 65.824099 42.95482 
L 67.985519 43.628506 
L 70.008809 44.347688 
L 71.879761 45.117048 
L 73.584164 45.941264 
L 75.107811 46.825018 
L 76.436491 47.772988 
L 77.556331 48.789759 
L 78.463701 49.876973 
L 79.166871 51.03285 
L 79.674779 52.255422 
L 79.996365 53.542719 
L 80.140568 54.89277 
L 80.116325 56.303606 
L 79.932576 57.773257 
L 79.598259 59.299753 
L 79.122314 60.881124 
L 78.513678 62.515401 
L 77.781291 64.200613 
L 76.934091 65.934792 
L 75.981017 67.715966 
L 74.931008 69.542167 
L 73.793002 71.411423 
L 72.575939 73.321767 
L 71.288756 75.271227 
L 69.940393 77.257834 
L 68.539788 79.279618 
L 67.095881 81.334609 
L 65.617609 83.420838 
L 64.113911 85.536334 
L 62.593727 87.679127 
L 61.065995 89.847249 
L 59.539653 92.038729 
L 58.023641 94.251596 
L 56.526897 96.483883 
L 55.05836 98.733617 
L 53.626968 100.998831 
L 52.241661 103.277553 
L 50.911376 105.567815 
L 49.645054 107.867645 
L 48.451631 110.175075 
L 47.340048 112.488135 
L 46.319243 114.804854 
L 45.398154 117.123264 
L 44.585721 119.441393 
L 43.890881 121.757272 
L 43.322575 124.068932 
L 42.88974 126.374403 
L 42.601315 128.671714 
L 42.466239 130.958896 
L 42.49345 133.233979 
L 42.691888 135.494994 
L 43.070491 137.73997 
L 43.637403 139.966709 
L 44.389173 142.16968 
L 45.313577 144.340829 
L 46.398174 146.472042 
L 47.630521 148.555202 
L 48.998178 150.582195 
L 50.488703 152.544903 
L 52.089655 154.435212 
L 53.788592 156.245006 
L 55.573073 157.96617 
L 57.430655 159.590588 
L 59.348899 161.110144 
L 61.315363 162.516723 
L 63.317604 163.802209 
L 65.343182 164.958486 
L 67.379655 165.977439 
L 69.414581 166.850953 
L 71.43552 167.570911 
L 73.430029 168.129198 
L 75.385668 168.517699 
L 77.289997 168.728301 
L 79.133657 168.755966 
L 80.916224 168.604586 
L 82.638886 168.279661 
L 84.302832 167.786694 
L 85.90925 167.131186 
L 87.459328 166.318639 
L 88.954256 165.354554 
L 90.395222 164.244433 
L 91.783413 162.993778 
L 93.12002 161.608089 
L 94.40623 160.09287 
L 95.643232 158.453621 
L 96.832214 156.695843 
L 97.974365 154.82504 
L 99.070873 152.846711 
L 100.122927 150.76636 
L 101.131715 148.589486 
L 102.098426 146.321593 
L 103.024249 143.968181 
L 103.910371 141.534752 
L 104.757982 139.026808 
L 105.56827 136.449851 
L 106.342423 133.809381 
L 107.08163 131.110901 
L 107.78708 128.359913 
L 108.45996 125.561917 
L 109.10146 122.722415 
L 109.712768 119.84691 
L 110.295073 116.940902 
L 110.849562 114.009893 
L 111.377425 111.059385 
L 111.87985 108.09488 
L 112.358025 105.121879 
L 112.81314 102.145883 
L 113.246382 99.172394 
L 113.65894 96.206915 
L 114.052002 93.254945 
L 114.426758 90.321988 
L 114.784395 87.413545 
L 115.126102 84.535116 
L 115.453068 81.692205 
L 115.766481 78.890312 
L 116.06753 76.134939 
L 116.357403 73.431588 
L 116.637288 70.78576 
L 116.908375 68.202957 
L 117.171851 65.68868 
L 117.428905 63.248432 
L 117.680726 60.887713 
L 117.928502 58.612026 
L 118.173422 56.426871 
L 118.416675 54.337751 
L 118.659448 52.350167 
L 118.90293 50.469621 
L 119.14831 48.701614 
L 119.396776 47.051648 
L 119.649517 45.525224 
L 119.907721 44.127845 
L 120.172577 42.865011 
L 120.445273 41.742225 
L 120.726998 40.764988 
L 121.018941 39.938801 
L 121.322289 39.269166 
L 121.638232 38.761585 
L 121.967957 38.421559 
L 122.312644 38.254485 
L 122.673082 38.261422 
L 123.049543 38.437681 
L 123.442261 38.778172 
L 123.851474 39.277807 
L 124.277416 39.931498 
L 124.720323 40.734157 
L 125.180432 41.680696 
L 125.657977 42.766025 
L 126.153195 43.985057 
L 126.666321 45.332703 
L 127.197592 46.803875 
L 127.747242 48.393485 
L 128.315508 50.096444 
L 128.902626 51.907664 
L 129.508831 53.822057 
L 130.134359 55.834534 
L 130.779445 57.940007 
L 131.444326 60.133388 
L 132.129237 62.409588 
L 132.834414 64.763519 
L 133.560093 67.190093 
L 134.306509 69.684221 
L 135.073899 72.240815 
L 135.862497 74.854786 
L 136.672541 77.521048 
L 137.504265 80.23451 
L 138.357905 82.990084 
L 139.233697 85.782683 
L 140.131877 88.607219 
L 141.052681 91.458601 
L 141.996343 94.331743 
L 142.963102 97.221557 
L 143.95319 100.122952 
L 144.966846 103.030843 
L 146.004304 105.940139 
L 147.0658 108.845753 
L 148.151569 111.742596 
L 149.261849 114.62558 
L 150.396874 117.489617 
L 151.55688 120.329619 
L 152.742102 123.140496 
L 153.952778 125.917161 
L 155.189142 128.654526 
L 156.45143 131.347501 
L 157.739878 133.990999 
L 159.054722 136.579932 
L 160.396197 139.10921 
L 161.76454 141.573747 
L 163.159985 143.968453 
L 164.582769 146.288239 
L 166.033128 148.528019 
L 167.511297 150.682703 
L 169.017512 152.747203 
L 170.552009 154.71643 
L 172.115023 156.585297 
L 173.70679 158.348715 
L 175.327547 160.001596 
L 176.977528 161.538851 
L 178.65697 162.955393 
L 180.366108 164.246132 
L 182.105179 165.40598 
L 183.874417 166.42985 
L 185.674059 167.312652 
L 187.50434 168.049299 
L 189.365496 168.634701 
L 191.257763 169.063772 
L 193.181377 169.331422 
L 195.136573 169.432563 
L 197.123587 169.362106 
L 199.142655 169.114964 
L 201.194012 168.686049 
L 203.275893 168.073276 
L 205.379732 167.284757 
L 207.495525 166.330767 
L 209.613268 165.221579 
L 211.722956 163.967467 
L 213.814584 162.578707 
L 215.878147 161.06557 
L 217.903641 159.438332 
L 219.881061 157.707267 
L 221.800402 155.882649 
L 223.651659 153.974751 
L 225.424828 151.993848 
L 227.109904 149.950213 
L 228.696882 147.854122 
L 230.175758 145.715847 
L 231.536526 143.545663 
L 232.769183 141.353843 
L 233.863722 139.150663 
L 234.810141 136.946395 
L 235.598433 134.751315 
L 236.218594 132.575695 
L 236.66062 130.429811 
L 236.914505 128.323935 
L 236.970245 126.268342 
L 236.817835 124.273307 
L 236.447271 122.349103 
L 235.848548 120.506003 
L 235.01166 118.754283 
L 233.930261 117.102101 
L 232.618882 115.54554 
L 231.099454 114.076405 
L 229.393917 112.686493 
L 227.524211 111.367604 
L 225.512274 110.111536 
L 223.380047 108.91009 
L 221.149469 107.755062 
L 218.842479 106.638253 
L 216.481018 105.55146 
L 214.087025 104.486484 
L 211.682438 103.435123 
L 209.289199 102.389175 
L 206.929247 101.34044 
L 204.62452 100.280716 
L 202.396959 99.201802 
L 200.268503 98.095498 
L 198.261092 96.953601 
L 196.396665 95.767911 
L 194.697162 94.530227 
L 193.184523 93.232348 
L 191.880686 91.866072 
L 190.807592 90.423198 
L 189.987181 88.895526 
L 189.4391 87.276083 
L 189.161278 85.569555 
L 189.139652 83.787065 
L 189.360035 81.9398 
L 189.808237 80.038949 
L 190.470073 78.095701 
L 191.331352 76.121245 
L 192.377888 74.126769 
L 193.595493 72.123461 
L 194.969978 70.122511 
L 196.487156 68.135107 
L 198.132839 66.172438 
L 199.892838 64.245692 
L 201.752967 62.366058 
L 203.699036 60.544725 
L 205.716859 58.792881 
L 207.792246 57.121715 
L 209.911011 55.542416 
L 212.058965 54.066171 
L 214.22192 52.704171 
L 216.385688 51.467603 
L 218.536082 50.367656 
L 220.658913 49.415519 
L 222.739994 48.62238 
L 224.765607 47.998958 
L 226.730082 47.547912 
L 228.63451 47.265136 
L 230.480191 47.146311 
L 232.268425 47.187121 
L 234.000513 47.383247 
L 235.677755 47.730374 
L 237.30145 48.224183 
L 238.872899 48.860358 
L 240.393402 49.63458 
L 241.864259 50.542533 
L 243.28677 51.579899 
L 244.662236 52.742361 
L 245.991957 54.025602 
L 247.277233 55.425305 
L 248.519363 56.937151 
L 249.719649 58.556824 
L 250.87939 60.280006 
L 251.999886 62.102381 
L 253.082438 64.01963 
L 254.128345 66.027437 
L 255.138909 68.121484 
L 256.115428 70.297454 
L 257.059204 72.55103 
L 257.971536 74.877894 
L 258.853725 77.273728 
L 259.70707 79.734217 
L 260.532872 82.255041 
L 261.332431 84.831885 
L 262.107047 87.46043 
L 262.85802 90.136359 
L 263.586651 92.855356 
L 264.29424 95.613102 
L 264.982086 98.405281 
L 265.65149 101.227575 
L 266.303752 104.075667 
L 266.940172 106.945239 
L 267.562051 109.831975 
L 268.170688 112.731556 
L 268.767384 115.639666 
L 269.353438 118.551987 
L 269.930152 121.464202 
L 270.498825 124.371993 
L 271.060757 127.271044 
L 271.617248 130.157037 
L 272.169599 133.025654 
L 272.71911 135.872579 
L 273.267081 138.693494 
L 273.814812 141.484082 
L 274.363603 144.240025 
L 274.914754 146.957006 
L 275.469566 149.630709 
L 276.029338 152.256814 
L 276.595372 154.831006 
L 277.168966 157.348966 
L 277.751422 159.806378 
L 278.344038 162.198925 
L 278.948117 164.522288 
L 279.564956 166.772151 
L 280.195858 168.944196 
L 280.842121 171.034106 
L 281.505047 173.037564 
L 282.185935 174.950253 
L 282.886085 176.767854 
L 283.606797 178.486051 
L 284.349373 180.100526 
L 285.115111 181.606963 
L 285.905312 183.001043 
L 286.721276 184.27845 
L 287.564304 185.434866 
L 288.435695 186.465974 
L 289.33675 187.367457 
L 290.268768 188.134996 
L 291.23305 188.764276 
L 292.230428 189.252117 
L 293.259714 189.600251 
L 294.319173 189.811734 
L 295.407074 189.889623 
L 296.521683 189.836972 
L 297.661267 189.656838 
L 298.824094 189.352277 
L 300.00843 188.926344 
L 301.212542 188.382096 
L 302.434697 187.722588 
L 303.673163 186.950877 
L 304.926206 186.070018 
L 306.192093 185.083067 
L 307.469092 183.99308 
L 308.755469 182.803113 
L 310.04949 181.516221 
L 311.349425 180.135462 
L 312.653538 178.66389 
L 313.960098 177.104561 
L 315.267371 175.460532 
L 316.573624 173.734858 
L 317.877124 171.930595 
L 319.176139 170.050799 
L 320.468935 168.098527 
L 321.753779 166.076833 
L 323.028939 163.988773 
L 324.29268 161.837405 
L 325.543271 159.625783 
L 326.778978 157.356963 
L 327.998069 155.034002 
L 329.198809 152.659955 
L 330.379467 150.237878 
L 331.538309 147.770827 
L 332.673602 145.261858 
L 333.783614 142.714026 
L 334.86661 140.130389 
L 335.920859 137.514001 
L 336.944627 134.867918 
L 337.936181 132.195197 
L 338.893789 129.498893 
L 339.815717 126.782062 
L 340.700232 124.047761 
L 341.545601 121.299044 
L 342.350091 118.538968 
L 343.11197 115.770589 
L 343.829503 112.996962 
L 344.500959 110.221144 
L 345.124604 107.446191 
L 345.698706 104.675158 
L 346.22153 101.911101 
L 346.691345 99.157076 
L 347.106417 96.416139 
L 347.465013 93.691346 
L 347.7654 90.985753 
L 348.005846 88.302415 
L 348.184617 85.64439 
L 348.299979 83.014731 
L 348.350201 80.416496 
L 348.33355 77.85274 
L 348.248291 75.32652 
L 348.092693 72.84089 
L 347.865021 70.398908 
L 347.563547 68.003626 
L 347.18731 65.657268 
L 346.737261 63.360013 
L 346.214633 61.111729 
L 345.620665 58.912285 
L 344.956592 56.761549 
L 344.223649 54.659392 
L 343.423074 52.605681 
L 342.556102 50.600285 
L 341.623969 48.643073 
L 340.627912 46.733914 
L 339.569167 44.872677 
L 338.44897 43.05923 
L 337.268557 41.293442 
L 336.029164 39.575183 
L 334.732027 37.90432 
L 333.378383 36.280722 
L 331.969468 34.704259 
L 330.506517 33.174799 
L 328.990767 31.692211 
L 327.423455 30.256364 
L 325.805815 28.867126 
L 324.139085 27.524367 
L 322.4245 26.227954 
L 320.663297 24.977758 
L 318.856712 23.773646 
L 317.005981 22.615488 
L 315.11234 21.503151 
L 313.177025 20.436506 
L 311.201272 19.415421 
L 309.186318 18.439765 
L 307.133399 17.509406 
L 305.04375 16.624213 
L 302.918608 15.784055 
L 300.75921 14.9888 
L 298.56679 14.238319 
L 296.342587 13.532479 
L 294.087834 12.871149 
L 291.803769 12.254198 
L 289.491629 11.681494 
L 287.152648 11.152907 
L 284.788063 10.668306 
L 282.39911 10.227559 
L 279.987026 9.830534 
L 277.553047 9.477101 
L 275.098408 9.167129 
L 272.624346 8.900486 
L 270.132097 8.677041 
L 267.622897 8.496663 
L 265.097982 8.35922 
L 262.558589 8.264582 
L 260.005953 8.212618 
L 257.441311 8.203195 
z
" clip-path="url(#pf12afb10e3)" style="fill: #ff0000; opacity: 0.2; stroke: #ff0000; stroke-width: 0.3; stroke-linejoin: miter"/>
   </g>
   <g id="patch_5">
    <path d="M 7.2 190.784659 
L 7.2 7.2 
" style="fill: none"/>
   </g>
   <g id="patch_6">
    <path d="M 351 190.784659 
L 351 7.2 
" style="fill: none"/>
   </g>
   <g id="patch_7">
    <path d="M 7.2 190.784659 
L 351 190.784659 
" style="fill: none"/>
   </g>
   <g id="patch_8">
    <path d="M 7.2 7.2 
L 351 7.2 
" style="fill: none"/>
   </g>
   <g id="text_1">
    <!-- (a) Select an instance. -->
    <g style="fill: #262626" transform="translate(119.405625 204.978971)scale(0.12 -0.12)">
     <defs>
      <path id="ArialMT-28" d="M 1497 -1347 
Q 1031 -759 709 28 
Q 388 816 388 1659 
Q 388 2403 628 3084 
Q 909 3875 1497 4659 
L 1900 4659 
Q 1522 4009 1400 3731 
Q 1209 3300 1100 2831 
Q 966 2247 966 1656 
Q 966 153 1900 -1347 
L 1497 -1347 
z
" transform="scale(0.015625)"/>
      <path id="ArialMT-61" d="M 2588 409 
Q 2275 144 1986 34 
Q 1697 -75 1366 -75 
Q 819 -75 525 192 
Q 231 459 231 875 
Q 231 1119 342 1320 
Q 453 1522 633 1644 
Q 813 1766 1038 1828 
Q 1203 1872 1538 1913 
Q 2219 1994 2541 2106 
Q 2544 2222 2544 2253 
Q 2544 2597 2384 2738 
Q 2169 2928 1744 2928 
Q 1347 2928 1158 2789 
Q 969 2650 878 2297 
L 328 2372 
Q 403 2725 575 2942 
Q 747 3159 1072 3276 
Q 1397 3394 1825 3394 
Q 2250 3394 2515 3294 
Q 2781 3194 2906 3042 
Q 3031 2891 3081 2659 
Q 3109 2516 3109 2141 
L 3109 1391 
Q 3109 606 3145 398 
Q 3181 191 3288 0 
L 2700 0 
Q 2613 175 2588 409 
z
M 2541 1666 
Q 2234 1541 1622 1453 
Q 1275 1403 1131 1340 
Q 988 1278 909 1158 
Q 831 1038 831 891 
Q 831 666 1001 516 
Q 1172 366 1500 366 
Q 1825 366 2078 508 
Q 2331 650 2450 897 
Q 2541 1088 2541 1459 
L 2541 1666 
z
" transform="scale(0.015625)"/>
      <path id="ArialMT-29" d="M 791 -1347 
L 388 -1347 
Q 1322 153 1322 1656 
Q 1322 2244 1188 2822 
Q 1081 3291 891 3722 
Q 769 4003 388 4659 
L 791 4659 
Q 1378 3875 1659 3084 
Q 1900 2403 1900 1659 
Q 1900 816 1576 28 
Q 1253 -759 791 -1347 
z
" transform="scale(0.015625)"/>
      <path id="ArialMT-20" transform="scale(0.015625)"/>
      <path id="ArialMT-53" d="M 288 1472 
L 859 1522 
Q 900 1178 1048 958 
Q 1197 738 1509 602 
Q 1822 466 2213 466 
Q 2559 466 2825 569 
Q 3091 672 3220 851 
Q 3350 1031 3350 1244 
Q 3350 1459 3225 1620 
Q 3100 1781 2813 1891 
Q 2628 1963 1997 2114 
Q 1366 2266 1113 2400 
Q 784 2572 623 2826 
Q 463 3081 463 3397 
Q 463 3744 659 4045 
Q 856 4347 1234 4503 
Q 1613 4659 2075 4659 
Q 2584 4659 2973 4495 
Q 3363 4331 3572 4012 
Q 3781 3694 3797 3291 
L 3216 3247 
Q 3169 3681 2898 3903 
Q 2628 4125 2100 4125 
Q 1550 4125 1298 3923 
Q 1047 3722 1047 3438 
Q 1047 3191 1225 3031 
Q 1400 2872 2139 2705 
Q 2878 2538 3153 2413 
Q 3553 2228 3743 1945 
Q 3934 1663 3934 1294 
Q 3934 928 3725 604 
Q 3516 281 3123 101 
Q 2731 -78 2241 -78 
Q 1619 -78 1198 103 
Q 778 284 539 648 
Q 300 1013 288 1472 
z
" transform="scale(0.015625)"/>
      <path id="ArialMT-65" d="M 2694 1069 
L 3275 997 
Q 3138 488 2766 206 
Q 2394 -75 1816 -75 
Q 1088 -75 661 373 
Q 234 822 234 1631 
Q 234 2469 665 2931 
Q 1097 3394 1784 3394 
Q 2450 3394 2872 2941 
Q 3294 2488 3294 1666 
Q 3294 1616 3291 1516 
L 816 1516 
Q 847 969 1125 678 
Q 1403 388 1819 388 
Q 2128 388 2347 550 
Q 2566 713 2694 1069 
z
M 847 1978 
L 2700 1978 
Q 2663 2397 2488 2606 
Q 2219 2931 1791 2931 
Q 1403 2931 1139 2672 
Q 875 2413 847 1978 
z
" transform="scale(0.015625)"/>
      <path id="ArialMT-6c" d="M 409 0 
L 409 4581 
L 972 4581 
L 972 0 
L 409 0 
z
" transform="scale(0.015625)"/>
      <path id="ArialMT-63" d="M 2588 1216 
L 3141 1144 
Q 3050 572 2676 248 
Q 2303 -75 1759 -75 
Q 1078 -75 664 370 
Q 250 816 250 1647 
Q 250 2184 428 2587 
Q 606 2991 970 3192 
Q 1334 3394 1763 3394 
Q 2303 3394 2647 3120 
Q 2991 2847 3088 2344 
L 2541 2259 
Q 2463 2594 2264 2762 
Q 2066 2931 1784 2931 
Q 1359 2931 1093 2626 
Q 828 2322 828 1663 
Q 828 994 1084 691 
Q 1341 388 1753 388 
Q 2084 388 2306 591 
Q 2528 794 2588 1216 
z
" transform="scale(0.015625)"/>
      <path id="ArialMT-74" d="M 1650 503 
L 1731 6 
Q 1494 -44 1306 -44 
Q 1000 -44 831 53 
Q 663 150 594 308 
Q 525 466 525 972 
L 525 2881 
L 113 2881 
L 113 3319 
L 525 3319 
L 525 4141 
L 1084 4478 
L 1084 3319 
L 1650 3319 
L 1650 2881 
L 1084 2881 
L 1084 941 
Q 1084 700 1114 631 
Q 1144 563 1211 522 
Q 1278 481 1403 481 
Q 1497 481 1650 503 
z
" transform="scale(0.015625)"/>
      <path id="ArialMT-6e" d="M 422 0 
L 422 3319 
L 928 3319 
L 928 2847 
Q 1294 3394 1984 3394 
Q 2284 3394 2536 3286 
Q 2788 3178 2913 3003 
Q 3038 2828 3088 2588 
Q 3119 2431 3119 2041 
L 3119 0 
L 2556 0 
L 2556 2019 
Q 2556 2363 2490 2533 
Q 2425 2703 2258 2804 
Q 2091 2906 1866 2906 
Q 1506 2906 1245 2678 
Q 984 2450 984 1813 
L 984 0 
L 422 0 
z
" transform="scale(0.015625)"/>
      <path id="ArialMT-69" d="M 425 3934 
L 425 4581 
L 988 4581 
L 988 3934 
L 425 3934 
z
M 425 0 
L 425 3319 
L 988 3319 
L 988 0 
L 425 0 
z
" transform="scale(0.015625)"/>
      <path id="ArialMT-73" d="M 197 991 
L 753 1078 
Q 800 744 1014 566 
Q 1228 388 1613 388 
Q 2000 388 2187 545 
Q 2375 703 2375 916 
Q 2375 1106 2209 1216 
Q 2094 1291 1634 1406 
Q 1016 1563 777 1677 
Q 538 1791 414 1992 
Q 291 2194 291 2438 
Q 291 2659 392 2848 
Q 494 3038 669 3163 
Q 800 3259 1026 3326 
Q 1253 3394 1513 3394 
Q 1903 3394 2198 3281 
Q 2494 3169 2634 2976 
Q 2775 2784 2828 2463 
L 2278 2388 
Q 2241 2644 2061 2787 
Q 1881 2931 1553 2931 
Q 1166 2931 1000 2803 
Q 834 2675 834 2503 
Q 834 2394 903 2306 
Q 972 2216 1119 2156 
Q 1203 2125 1616 2013 
Q 2213 1853 2448 1751 
Q 2684 1650 2818 1456 
Q 2953 1263 2953 975 
Q 2953 694 2789 445 
Q 2625 197 2315 61 
Q 2006 -75 1616 -75 
Q 969 -75 630 194 
Q 291 463 197 991 
z
" transform="scale(0.015625)"/>
      <path id="ArialMT-2e" d="M 581 0 
L 581 641 
L 1222 641 
L 1222 0 
L 581 0 
z
" transform="scale(0.015625)"/>
     </defs>
     <use xlink:href="#ArialMT-28"/>
     <use xlink:href="#ArialMT-61" x="33.300781"/>
     <use xlink:href="#ArialMT-29" x="88.916016"/>
     <use xlink:href="#ArialMT-20" x="122.216797"/>
     <use xlink:href="#ArialMT-53" x="150"/>
     <use xlink:href="#ArialMT-65" x="216.699219"/>
     <use xlink:href="#ArialMT-6c" x="272.314453"/>
     <use xlink:href="#ArialMT-65" x="294.53125"/>
     <use xlink:href="#ArialMT-63" x="350.146484"/>
     <use xlink:href="#ArialMT-74" x="400.146484"/>
     <use xlink:href="#ArialMT-20" x="427.929688"/>
     <use xlink:href="#ArialMT-61" x="455.712891"/>
     <use xlink:href="#ArialMT-6e" x="511.328125"/>
     <use xlink:href="#ArialMT-20" x="566.943359"/>
     <use xlink:href="#ArialMT-69" x="594.726562"/>
     <use xlink:href="#ArialMT-6e" x="616.943359"/>
     <use xlink:href="#ArialMT-73" x="672.558594"/>
     <use xlink:href="#ArialMT-74" x="722.558594"/>
     <use xlink:href="#ArialMT-61" x="750.341797"/>
     <use xlink:href="#ArialMT-6e" x="805.957031"/>
     <use xlink:href="#ArialMT-63" x="861.572266"/>
     <use xlink:href="#ArialMT-65" x="911.572266"/>
     <use xlink:href="#ArialMT-2e" x="967.1875"/>
    </g>
   </g>
   <g id="PathCollection_1">
    <defs>
     <path id="maf43d42136" d="M -1.666667 5 
L 1.666667 5 
L 1.666667 1.666667 
L 5 1.666667 
L 5 -1.666667 
L 1.666667 -1.666667 
L 1.666667 -5 
L -1.666667 -5 
L -1.666667 -1.666667 
L -5 -1.666667 
L -5 1.666667 
L -1.666667 1.666667 
z
" style="stroke: #2ca02c; stroke-opacity: 0.9; stroke-width: 2"/>
    </defs>
    <g clip-path="url(#pf12afb10e3)">
     <use xlink:href="#maf43d42136" x="106.394754" y="88.458783" style="fill: #d62728; fill-opacity: 0.9; stroke: #2ca02c; stroke-opacity: 0.9; stroke-width: 2"/>
    </g>
   </g>
  </g>
  <g id="axes_2">
   <g id="patch_9">
    <path d="M 361.8 190.784659 
L 705.6 190.784659 
L 705.6 7.2 
L 361.8 7.2 
z
" style="fill: #eaeaf2"/>
   </g>
   <g id="matplotlib.axis_3"/>
   <g id="matplotlib.axis_4"/>
   <g id="patch_10">
    <path d="M 352.782295 198.810217 
L 724.762623 198.810217 
L 724.762623 -1.828754 
L 352.782295 -1.828754 
z
" clip-path="url(#p92940831d8)" style="fill: #0000ff; opacity: 0.1"/>
   </g>
   <g id="patch_11">
    <path d="M 364.054426 28.267092 
L 365.268266 29.252888 
L 366.684992 30.171859 
L 368.290394 31.028683 
L 370.070265 31.828043 
L 372.010395 32.574616 
L 374.096574 33.273085 
L 376.314595 33.928128 
L 378.650247 34.544426 
L 381.089323 35.126659 
L 383.617612 35.679508 
L 386.220907 36.207651 
L 388.884998 36.71577 
L 391.595675 37.208544 
L 394.338731 37.690653 
L 397.099955 38.166778 
L 399.86514 38.641599 
L 402.620076 39.119795 
L 405.350553 39.606047 
L 408.042364 40.105036 
L 410.681299 40.62144 
L 413.253149 41.15994 
L 415.743705 41.725217 
L 418.138758 42.32195 
L 420.424099 42.95482 
L 422.585519 43.628506 
L 424.608809 44.347688 
L 426.479761 45.117048 
L 428.184164 45.941264 
L 429.707811 46.825018 
L 431.036491 47.772988 
L 432.156331 48.789759 
L 433.063701 49.876973 
L 433.766871 51.03285 
L 434.274779 52.255422 
L 434.596365 53.542719 
L 434.740568 54.89277 
L 434.716325 56.303606 
L 434.532576 57.773257 
L 434.198259 59.299753 
L 433.722314 60.881124 
L 433.113678 62.515401 
L 432.381291 64.200613 
L 431.534091 65.934792 
L 430.581017 67.715966 
L 429.531008 69.542167 
L 428.393002 71.411423 
L 427.175939 73.321767 
L 425.888756 75.271227 
L 424.540393 77.257834 
L 423.139788 79.279618 
L 421.695881 81.334609 
L 420.217609 83.420838 
L 418.713911 85.536334 
L 417.193727 87.679127 
L 415.665995 89.847249 
L 414.139653 92.038729 
L 412.623641 94.251596 
L 411.126897 96.483883 
L 409.65836 98.733617 
L 408.226968 100.998831 
L 406.841661 103.277553 
L 405.511376 105.567815 
L 404.245054 107.867645 
L 403.051631 110.175075 
L 401.940048 112.488135 
L 400.919243 114.804854 
L 399.998154 117.123264 
L 399.185721 119.441393 
L 398.490881 121.757272 
L 397.922575 124.068932 
L 397.48974 126.374403 
L 397.201315 128.671714 
L 397.066239 130.958896 
L 397.09345 133.233979 
L 397.291888 135.494994 
L 397.670491 137.73997 
L 398.237403 139.966709 
L 398.989173 142.16968 
L 399.913577 144.340829 
L 400.998174 146.472042 
L 402.230521 148.555202 
L 403.598178 150.582195 
L 405.088703 152.544903 
L 406.689655 154.435212 
L 408.388592 156.245006 
L 410.173073 157.96617 
L 412.030655 159.590588 
L 413.948899 161.110144 
L 415.915363 162.516723 
L 417.917604 163.802209 
L 419.943182 164.958486 
L 421.979655 165.977439 
L 424.014581 166.850953 
L 426.03552 167.570911 
L 428.030029 168.129198 
L 429.985668 168.517699 
L 431.889997 168.728301 
L 433.733657 168.755966 
L 435.516224 168.604586 
L 437.238886 168.279661 
L 438.902832 167.786694 
L 440.50925 167.131186 
L 442.059328 166.318639 
L 443.554256 165.354554 
L 444.995222 164.244433 
L 446.383413 162.993778 
L 447.72002 161.608089 
L 449.00623 160.09287 
L 450.243232 158.453621 
L 451.432214 156.695843 
L 452.574365 154.82504 
L 453.670873 152.846711 
L 454.722927 150.76636 
L 455.731715 148.589486 
L 456.698426 146.321593 
L 457.624249 143.968181 
L 458.510371 141.534752 
L 459.357982 139.026808 
L 460.16827 136.449851 
L 460.942423 133.809381 
L 461.68163 131.110901 
L 462.38708 128.359913 
L 463.05996 125.561917 
L 463.70146 122.722415 
L 464.312768 119.84691 
L 464.895073 116.940902 
L 465.449562 114.009893 
L 465.977425 111.059385 
L 466.47985 108.09488 
L 466.958025 105.121879 
L 467.41314 102.145883 
L 467.846382 99.172394 
L 468.25894 96.206915 
L 468.652002 93.254945 
L 469.026758 90.321988 
L 469.384395 87.413545 
L 469.726102 84.535116 
L 470.053068 81.692205 
L 470.366481 78.890312 
L 470.66753 76.134939 
L 470.957403 73.431588 
L 471.237288 70.78576 
L 471.508375 68.202957 
L 471.771851 65.68868 
L 472.028905 63.248432 
L 472.280726 60.887713 
L 472.528502 58.612026 
L 472.773422 56.426871 
L 473.016675 54.337751 
L 473.259448 52.350167 
L 473.50293 50.469621 
L 473.74831 48.701614 
L 473.996776 47.051648 
L 474.249517 45.525224 
L 474.507721 44.127845 
L 474.772577 42.865011 
L 475.045273 41.742225 
L 475.326998 40.764988 
L 475.618941 39.938801 
L 475.922289 39.269166 
L 476.238232 38.761585 
L 476.567957 38.421559 
L 476.912644 38.254485 
L 477.273082 38.261422 
L 477.649543 38.437681 
L 478.042261 38.778172 
L 478.451474 39.277807 
L 478.877416 39.931498 
L 479.320323 40.734157 
L 479.780432 41.680696 
L 480.257977 42.766025 
L 480.753195 43.985057 
L 481.266321 45.332703 
L 481.797592 46.803875 
L 482.347242 48.393485 
L 482.915508 50.096444 
L 483.502626 51.907664 
L 484.108831 53.822057 
L 484.734359 55.834534 
L 485.379445 57.940007 
L 486.044326 60.133388 
L 486.729237 62.409588 
L 487.434414 64.763519 
L 488.160093 67.190093 
L 488.906509 69.684221 
L 489.673899 72.240815 
L 490.462497 74.854786 
L 491.272541 77.521048 
L 492.104265 80.23451 
L 492.957905 82.990084 
L 493.833697 85.782683 
L 494.731877 88.607219 
L 495.652681 91.458601 
L 496.596343 94.331743 
L 497.563102 97.221557 
L 498.55319 100.122952 
L 499.566846 103.030843 
L 500.604304 105.940139 
L 501.6658 108.845753 
L 502.751569 111.742596 
L 503.861849 114.62558 
L 504.996874 117.489617 
L 506.15688 120.329619 
L 507.342102 123.140496 
L 508.552778 125.917161 
L 509.789142 128.654526 
L 511.05143 131.347501 
L 512.339878 133.990999 
L 513.654722 136.579932 
L 514.996197 139.10921 
L 516.36454 141.573747 
L 517.759985 143.968453 
L 519.182769 146.288239 
L 520.633128 148.528019 
L 522.111297 150.682703 
L 523.617512 152.747203 
L 525.152009 154.71643 
L 526.715023 156.585297 
L 528.30679 158.348715 
L 529.927547 160.001596 
L 531.577528 161.538851 
L 533.25697 162.955393 
L 534.966108 164.246132 
L 536.705179 165.40598 
L 538.474417 166.42985 
L 540.274059 167.312652 
L 542.10434 168.049299 
L 543.965496 168.634701 
L 545.857763 169.063772 
L 547.781377 169.331422 
L 549.736573 169.432563 
L 551.723587 169.362106 
L 553.742655 169.114964 
L 555.794012 168.686049 
L 557.875893 168.073276 
L 559.979732 167.284757 
L 562.095525 166.330767 
L 564.213268 165.221579 
L 566.322956 163.967467 
L 568.414584 162.578707 
L 570.478147 161.06557 
L 572.503641 159.438332 
L 574.481061 157.707267 
L 576.400402 155.882649 
L 578.251659 153.974751 
L 580.024828 151.993848 
L 581.709904 149.950213 
L 583.296882 147.854122 
L 584.775758 145.715847 
L 586.136526 143.545663 
L 587.369183 141.353843 
L 588.463722 139.150663 
L 589.410141 136.946395 
L 590.198433 134.751315 
L 590.818594 132.575695 
L 591.26062 130.429811 
L 591.514505 128.323935 
L 591.570245 126.268342 
L 591.417835 124.273307 
L 591.047271 122.349103 
L 590.448548 120.506003 
L 589.61166 118.754283 
L 588.530261 117.102101 
L 587.218882 115.54554 
L 585.699454 114.076405 
L 583.993917 112.686493 
L 582.124211 111.367604 
L 580.112274 110.111536 
L 577.980047 108.91009 
L 575.749469 107.755062 
L 573.442479 106.638253 
L 571.081018 105.55146 
L 568.687025 104.486484 
L 566.282438 103.435123 
L 563.889199 102.389175 
L 561.529247 101.34044 
L 559.22452 100.280716 
L 556.996959 99.201802 
L 554.868503 98.095498 
L 552.861092 96.953601 
L 550.996665 95.767911 
L 549.297162 94.530227 
L 547.784523 93.232348 
L 546.480686 91.866072 
L 545.407592 90.423198 
L 544.587181 88.895526 
L 544.0391 87.276083 
L 543.761278 85.569555 
L 543.739652 83.787065 
L 543.960035 81.9398 
L 544.408237 80.038949 
L 545.070073 78.095701 
L 545.931352 76.121245 
L 546.977888 74.126769 
L 548.195493 72.123461 
L 549.569978 70.122511 
L 551.087156 68.135107 
L 552.732839 66.172438 
L 554.492838 64.245692 
L 556.352967 62.366058 
L 558.299036 60.544725 
L 560.316859 58.792881 
L 562.392246 57.121715 
L 564.511011 55.542416 
L 566.658965 54.066171 
L 568.82192 52.704171 
L 570.985688 51.467603 
L 573.136082 50.367656 
L 575.258913 49.415519 
L 577.339994 48.62238 
L 579.365607 47.998958 
L 581.330082 47.547912 
L 583.23451 47.265136 
L 585.080191 47.146311 
L 586.868425 47.187121 
L 588.600513 47.383247 
L 590.277755 47.730374 
L 591.90145 48.224183 
L 593.472899 48.860358 
L 594.993402 49.63458 
L 596.464259 50.542533 
L 597.88677 51.579899 
L 599.262236 52.742361 
L 600.591957 54.025602 
L 601.877233 55.425305 
L 603.119363 56.937151 
L 604.319649 58.556824 
L 605.47939 60.280006 
L 606.599886 62.102381 
L 607.682438 64.01963 
L 608.728345 66.027437 
L 609.738909 68.121484 
L 610.715428 70.297454 
L 611.659204 72.55103 
L 612.571536 74.877894 
L 613.453725 77.273728 
L 614.30707 79.734217 
L 615.132872 82.255041 
L 615.932431 84.831885 
L 616.707047 87.46043 
L 617.45802 90.136359 
L 618.186651 92.855356 
L 618.89424 95.613102 
L 619.582086 98.405281 
L 620.25149 101.227575 
L 620.903752 104.075667 
L 621.540172 106.945239 
L 622.162051 109.831975 
L 622.770688 112.731556 
L 623.367384 115.639666 
L 623.953438 118.551987 
L 624.530152 121.464202 
L 625.098825 124.371993 
L 625.660757 127.271044 
L 626.217248 130.157037 
L 626.769599 133.025654 
L 627.31911 135.872579 
L 627.867081 138.693494 
L 628.414812 141.484082 
L 628.963603 144.240025 
L 629.514754 146.957006 
L 630.069566 149.630709 
L 630.629338 152.256814 
L 631.195372 154.831006 
L 631.768966 157.348966 
L 632.351422 159.806378 
L 632.944038 162.198925 
L 633.548117 164.522288 
L 634.164956 166.772151 
L 634.795858 168.944196 
L 635.442121 171.034106 
L 636.105047 173.037564 
L 636.785935 174.950253 
L 637.486085 176.767854 
L 638.206797 178.486051 
L 638.949373 180.100526 
L 639.715111 181.606963 
L 640.505312 183.001043 
L 641.321276 184.27845 
L 642.164304 185.434866 
L 643.035695 186.465974 
L 643.93675 187.367457 
L 644.868768 188.134996 
L 645.83305 188.764276 
L 646.830428 189.252117 
L 647.859714 189.600251 
L 648.919173 189.811734 
L 650.007074 189.889623 
L 651.121683 189.836972 
L 652.261267 189.656838 
L 653.424094 189.352277 
L 654.60843 188.926344 
L 655.812542 188.382096 
L 657.034697 187.722588 
L 658.273163 186.950877 
L 659.526206 186.070018 
L 660.792093 185.083067 
L 662.069092 183.99308 
L 663.355469 182.803113 
L 664.64949 181.516221 
L 665.949425 180.135462 
L 667.253538 178.66389 
L 668.560098 177.104561 
L 669.867371 175.460532 
L 671.173624 173.734858 
L 672.477124 171.930595 
L 673.776139 170.050799 
L 675.068935 168.098527 
L 676.353779 166.076833 
L 677.628939 163.988773 
L 678.89268 161.837405 
L 680.143271 159.625783 
L 681.378978 157.356963 
L 682.598069 155.034002 
L 683.798809 152.659955 
L 684.979467 150.237878 
L 686.138309 147.770827 
L 687.273602 145.261858 
L 688.383614 142.714026 
L 689.46661 140.130389 
L 690.520859 137.514001 
L 691.544627 134.867918 
L 692.536181 132.195197 
L 693.493789 129.498893 
L 694.415717 126.782062 
L 695.300232 124.047761 
L 696.145601 121.299044 
L 696.950091 118.538968 
L 697.71197 115.770589 
L 698.429503 112.996962 
L 699.100959 110.221144 
L 699.724604 107.446191 
L 700.298706 104.675158 
L 700.82153 101.911101 
L 701.291345 99.157076 
L 701.706417 96.416139 
L 702.065013 93.691346 
L 702.3654 90.985753 
L 702.605846 88.302415 
L 702.784617 85.64439 
L 702.899979 83.014731 
L 702.950201 80.416496 
L 702.93355 77.85274 
L 702.848291 75.32652 
L 702.692693 72.84089 
L 702.465021 70.398908 
L 702.163547 68.003626 
L 701.78731 65.657268 
L 701.337261 63.360013 
L 700.814633 61.111729 
L 700.220665 58.912285 
L 699.556592 56.761549 
L 698.823649 54.659392 
L 698.023074 52.605681 
L 697.156102 50.600285 
L 696.223969 48.643073 
L 695.227912 46.733914 
L 694.169167 44.872677 
L 693.04897 43.05923 
L 691.868557 41.293442 
L 690.629164 39.575183 
L 689.332027 37.90432 
L 687.978383 36.280722 
L 686.569468 34.704259 
L 685.106517 33.174799 
L 683.590767 31.692211 
L 682.023455 30.256364 
L 680.405815 28.867126 
L 678.739085 27.524367 
L 677.0245 26.227954 
L 675.263297 24.977758 
L 673.456712 23.773646 
L 671.605981 22.615488 
L 669.71234 21.503151 
L 667.777025 20.436506 
L 665.801272 19.415421 
L 663.786318 18.439765 
L 661.733399 17.509406 
L 659.64375 16.624213 
L 657.518608 15.784055 
L 655.35921 14.9888 
L 653.16679 14.238319 
L 650.942587 13.532479 
L 648.687834 12.871149 
L 646.403769 12.254198 
L 644.091629 11.681494 
L 641.752648 11.152907 
L 639.388063 10.668306 
L 636.99911 10.227559 
L 634.587026 9.830534 
L 632.153047 9.477101 
L 629.698408 9.167129 
L 627.224346 8.900486 
L 624.732097 8.677041 
L 622.222897 8.496663 
L 619.697982 8.35922 
L 617.158589 8.264582 
L 614.605953 8.212618 
L 612.041311 8.203195 
z
" clip-path="url(#p92940831d8)" style="fill: #ff0000; opacity: 0.2; stroke: #ff0000; stroke-width: 0.3; stroke-linejoin: miter"/>
   </g>
   <g id="patch_12">
    <path d="M 361.8 190.784659 
L 361.8 7.2 
" style="fill: none"/>
   </g>
   <g id="patch_13">
    <path d="M 705.6 190.784659 
L 705.6 7.2 
" style="fill: none"/>
   </g>
   <g id="patch_14">
    <path d="M 361.8 190.784659 
L 705.6 190.784659 
" style="fill: none"/>
   </g>
   <g id="patch_15">
    <path d="M 361.8 7.2 
L 705.6 7.2 
" style="fill: none"/>
   </g>
   <g id="text_2">
    <!-- (b) Sample in the neighbourhood. -->
    <g style="fill: #262626" transform="translate(444.647813 204.978971)scale(0.12 -0.12)">
     <defs>
      <path id="ArialMT-62" d="M 941 0 
L 419 0 
L 419 4581 
L 981 4581 
L 981 2947 
Q 1338 3394 1891 3394 
Q 2197 3394 2470 3270 
Q 2744 3147 2920 2923 
Q 3097 2700 3197 2384 
Q 3297 2069 3297 1709 
Q 3297 856 2875 390 
Q 2453 -75 1863 -75 
Q 1275 -75 941 416 
L 941 0 
z
M 934 1684 
Q 934 1088 1097 822 
Q 1363 388 1816 388 
Q 2184 388 2453 708 
Q 2722 1028 2722 1663 
Q 2722 2313 2464 2622 
Q 2206 2931 1841 2931 
Q 1472 2931 1203 2611 
Q 934 2291 934 1684 
z
" transform="scale(0.015625)"/>
      <path id="ArialMT-6d" d="M 422 0 
L 422 3319 
L 925 3319 
L 925 2853 
Q 1081 3097 1340 3245 
Q 1600 3394 1931 3394 
Q 2300 3394 2536 3241 
Q 2772 3088 2869 2813 
Q 3263 3394 3894 3394 
Q 4388 3394 4653 3120 
Q 4919 2847 4919 2278 
L 4919 0 
L 4359 0 
L 4359 2091 
Q 4359 2428 4304 2576 
Q 4250 2725 4106 2815 
Q 3963 2906 3769 2906 
Q 3419 2906 3187 2673 
Q 2956 2441 2956 1928 
L 2956 0 
L 2394 0 
L 2394 2156 
Q 2394 2531 2256 2718 
Q 2119 2906 1806 2906 
Q 1569 2906 1367 2781 
Q 1166 2656 1075 2415 
Q 984 2175 984 1722 
L 984 0 
L 422 0 
z
" transform="scale(0.015625)"/>
      <path id="ArialMT-70" d="M 422 -1272 
L 422 3319 
L 934 3319 
L 934 2888 
Q 1116 3141 1344 3267 
Q 1572 3394 1897 3394 
Q 2322 3394 2647 3175 
Q 2972 2956 3137 2557 
Q 3303 2159 3303 1684 
Q 3303 1175 3120 767 
Q 2938 359 2589 142 
Q 2241 -75 1856 -75 
Q 1575 -75 1351 44 
Q 1128 163 984 344 
L 984 -1272 
L 422 -1272 
z
M 931 1641 
Q 931 1000 1190 694 
Q 1450 388 1819 388 
Q 2194 388 2461 705 
Q 2728 1022 2728 1688 
Q 2728 2322 2467 2637 
Q 2206 2953 1844 2953 
Q 1484 2953 1207 2617 
Q 931 2281 931 1641 
z
" transform="scale(0.015625)"/>
      <path id="ArialMT-68" d="M 422 0 
L 422 4581 
L 984 4581 
L 984 2938 
Q 1378 3394 1978 3394 
Q 2347 3394 2619 3248 
Q 2891 3103 3008 2847 
Q 3125 2591 3125 2103 
L 3125 0 
L 2563 0 
L 2563 2103 
Q 2563 2525 2380 2717 
Q 2197 2909 1863 2909 
Q 1613 2909 1392 2779 
Q 1172 2650 1078 2428 
Q 984 2206 984 1816 
L 984 0 
L 422 0 
z
" transform="scale(0.015625)"/>
      <path id="ArialMT-67" d="M 319 -275 
L 866 -356 
Q 900 -609 1056 -725 
Q 1266 -881 1628 -881 
Q 2019 -881 2231 -725 
Q 2444 -569 2519 -288 
Q 2563 -116 2559 434 
Q 2191 0 1641 0 
Q 956 0 581 494 
Q 206 988 206 1678 
Q 206 2153 378 2554 
Q 550 2956 876 3175 
Q 1203 3394 1644 3394 
Q 2231 3394 2613 2919 
L 2613 3319 
L 3131 3319 
L 3131 450 
Q 3131 -325 2973 -648 
Q 2816 -972 2473 -1159 
Q 2131 -1347 1631 -1347 
Q 1038 -1347 672 -1080 
Q 306 -813 319 -275 
z
M 784 1719 
Q 784 1066 1043 766 
Q 1303 466 1694 466 
Q 2081 466 2343 764 
Q 2606 1063 2606 1700 
Q 2606 2309 2336 2618 
Q 2066 2928 1684 2928 
Q 1309 2928 1046 2623 
Q 784 2319 784 1719 
z
" transform="scale(0.015625)"/>
      <path id="ArialMT-6f" d="M 213 1659 
Q 213 2581 725 3025 
Q 1153 3394 1769 3394 
Q 2453 3394 2887 2945 
Q 3322 2497 3322 1706 
Q 3322 1066 3130 698 
Q 2938 331 2570 128 
Q 2203 -75 1769 -75 
Q 1072 -75 642 372 
Q 213 819 213 1659 
z
M 791 1659 
Q 791 1022 1069 705 
Q 1347 388 1769 388 
Q 2188 388 2466 706 
Q 2744 1025 2744 1678 
Q 2744 2294 2464 2611 
Q 2184 2928 1769 2928 
Q 1347 2928 1069 2612 
Q 791 2297 791 1659 
z
" transform="scale(0.015625)"/>
      <path id="ArialMT-75" d="M 2597 0 
L 2597 488 
Q 2209 -75 1544 -75 
Q 1250 -75 995 37 
Q 741 150 617 320 
Q 494 491 444 738 
Q 409 903 409 1263 
L 409 3319 
L 972 3319 
L 972 1478 
Q 972 1038 1006 884 
Q 1059 663 1231 536 
Q 1403 409 1656 409 
Q 1909 409 2131 539 
Q 2353 669 2445 892 
Q 2538 1116 2538 1541 
L 2538 3319 
L 3100 3319 
L 3100 0 
L 2597 0 
z
" transform="scale(0.015625)"/>
      <path id="ArialMT-72" d="M 416 0 
L 416 3319 
L 922 3319 
L 922 2816 
Q 1116 3169 1280 3281 
Q 1444 3394 1641 3394 
Q 1925 3394 2219 3213 
L 2025 2691 
Q 1819 2813 1613 2813 
Q 1428 2813 1281 2702 
Q 1134 2591 1072 2394 
Q 978 2094 978 1738 
L 978 0 
L 416 0 
z
" transform="scale(0.015625)"/>
      <path id="ArialMT-64" d="M 2575 0 
L 2575 419 
Q 2259 -75 1647 -75 
Q 1250 -75 917 144 
Q 584 363 401 755 
Q 219 1147 219 1656 
Q 219 2153 384 2558 
Q 550 2963 881 3178 
Q 1213 3394 1622 3394 
Q 1922 3394 2156 3267 
Q 2391 3141 2538 2938 
L 2538 4581 
L 3097 4581 
L 3097 0 
L 2575 0 
z
M 797 1656 
Q 797 1019 1065 703 
Q 1334 388 1700 388 
Q 2069 388 2326 689 
Q 2584 991 2584 1609 
Q 2584 2291 2321 2609 
Q 2059 2928 1675 2928 
Q 1300 2928 1048 2622 
Q 797 2316 797 1656 
z
" transform="scale(0.015625)"/>
     </defs>
     <use xlink:href="#ArialMT-28"/>
     <use xlink:href="#ArialMT-62" x="33.300781"/>
     <use xlink:href="#ArialMT-29" x="88.916016"/>
     <use xlink:href="#ArialMT-20" x="122.216797"/>
     <use xlink:href="#ArialMT-53" x="150"/>
     <use xlink:href="#ArialMT-61" x="216.699219"/>
     <use xlink:href="#ArialMT-6d" x="272.314453"/>
     <use xlink:href="#ArialMT-70" x="355.615234"/>
     <use xlink:href="#ArialMT-6c" x="411.230469"/>
     <use xlink:href="#ArialMT-65" x="433.447266"/>
     <use xlink:href="#ArialMT-20" x="489.0625"/>
     <use xlink:href="#ArialMT-69" x="516.845703"/>
     <use xlink:href="#ArialMT-6e" x="539.0625"/>
     <use xlink:href="#ArialMT-20" x="594.677734"/>
     <use xlink:href="#ArialMT-74" x="622.460938"/>
     <use xlink:href="#ArialMT-68" x="650.244141"/>
     <use xlink:href="#ArialMT-65" x="705.859375"/>
     <use xlink:href="#ArialMT-20" x="761.474609"/>
     <use xlink:href="#ArialMT-6e" x="789.257812"/>
     <use xlink:href="#ArialMT-65" x="844.873047"/>
     <use xlink:href="#ArialMT-69" x="900.488281"/>
     <use xlink:href="#ArialMT-67" x="922.705078"/>
     <use xlink:href="#ArialMT-68" x="978.320312"/>
     <use xlink:href="#ArialMT-62" x="1033.935547"/>
     <use xlink:href="#ArialMT-6f" x="1089.550781"/>
     <use xlink:href="#ArialMT-75" x="1145.166016"/>
     <use xlink:href="#ArialMT-72" x="1200.78125"/>
     <use xlink:href="#ArialMT-68" x="1234.082031"/>
     <use xlink:href="#ArialMT-6f" x="1289.697266"/>
     <use xlink:href="#ArialMT-6f" x="1345.3125"/>
     <use xlink:href="#ArialMT-64" x="1400.927734"/>
     <use xlink:href="#ArialMT-2e" x="1456.542969"/>
    </g>
   </g>
   <g id="PathCollection_2">
    <defs>
     <path id="m9bb35fcdcd" d="M -1.666667 5 
L 1.666667 5 
L 1.666667 1.666667 
L 5 1.666667 
L 5 -1.666667 
L 1.666667 -1.666667 
L 1.666667 -5 
L -1.666667 -5 
L -1.666667 -1.666667 
L -5 -1.666667 
L -5 1.666667 
L -1.666667 1.666667 
z
" style="stroke: #d62728; stroke-opacity: 0.8; stroke-width: 0.3"/>
    </defs>
    <g clip-path="url(#p92940831d8)">
     <use xlink:href="#m9bb35fcdcd" x="471.945999" y="42.621912" style="fill: #d62728; fill-opacity: 0.8; stroke: #d62728; stroke-opacity: 0.8; stroke-width: 0.3"/>
     <use xlink:href="#m9bb35fcdcd" x="457.035643" y="95.505333" style="fill: #d62728; fill-opacity: 0.8; stroke: #d62728; stroke-opacity: 0.8; stroke-width: 0.3"/>
     <use xlink:href="#m9bb35fcdcd" x="453.056789" y="72.12998" style="fill: #d62728; fill-opacity: 0.8; stroke: #d62728; stroke-opacity: 0.8; stroke-width: 0.3"/>
     <use xlink:href="#m9bb35fcdcd" x="453.159197" y="102.475314" style="fill: #d62728; fill-opacity: 0.8; stroke: #d62728; stroke-opacity: 0.8; stroke-width: 0.3"/>
     <use xlink:href="#m9bb35fcdcd" x="431.829504" y="105.381302" style="fill: #d62728; fill-opacity: 0.8; stroke: #d62728; stroke-opacity: 0.8; stroke-width: 0.3"/>
     <use xlink:href="#m9bb35fcdcd" x="443.869606" y="79.001244" style="fill: #d62728; fill-opacity: 0.8; stroke: #d62728; stroke-opacity: 0.8; stroke-width: 0.3"/>
     <use xlink:href="#m9bb35fcdcd" x="445.641704" y="130.963258" style="fill: #d62728; fill-opacity: 0.8; stroke: #d62728; stroke-opacity: 0.8; stroke-width: 0.3"/>
     <use xlink:href="#m9bb35fcdcd" x="451.790224" y="85.120474" style="fill: #d62728; fill-opacity: 0.8; stroke: #d62728; stroke-opacity: 0.8; stroke-width: 0.3"/>
     <use xlink:href="#m9bb35fcdcd" x="441.533528" y="77.151834" style="fill: #d62728; fill-opacity: 0.8; stroke: #d62728; stroke-opacity: 0.8; stroke-width: 0.3"/>
     <use xlink:href="#m9bb35fcdcd" x="450.839037" y="97.237553" style="fill: #d62728; fill-opacity: 0.8; stroke: #d62728; stroke-opacity: 0.8; stroke-width: 0.3"/>
     <use xlink:href="#m9bb35fcdcd" x="450.82098" y="32.712905" style="fill: #d62728; fill-opacity: 0.8; stroke: #d62728; stroke-opacity: 0.8; stroke-width: 0.3"/>
     <use xlink:href="#m9bb35fcdcd" x="460.76654" y="120.291488" style="fill: #d62728; fill-opacity: 0.8; stroke: #d62728; stroke-opacity: 0.8; stroke-width: 0.3"/>
     <use xlink:href="#m9bb35fcdcd" x="438.537523" y="82.534078" style="fill: #d62728; fill-opacity: 0.8; stroke: #d62728; stroke-opacity: 0.8; stroke-width: 0.3"/>
    </g>
   </g>
   <g id="PathCollection_3">
    <defs>
     <path id="mff43fc76bc" d="M 5 1.721551 
L -3.937065 1.721551 
L -3.937065 -2.601537 
L 5 -2.601537 
L 5 1.721551 
z
" style="stroke: #1f77b4; stroke-opacity: 0.8; stroke-width: 0.3"/>
    </defs>
    <g clip-path="url(#p92940831d8)">
     <use xlink:href="#mff43fc76bc" x="469.393295" y="92.619964" style="fill: #1f77b4; fill-opacity: 0.8; stroke: #1f77b4; stroke-opacity: 0.8; stroke-width: 0.3"/>
     <use xlink:href="#mff43fc76bc" x="487.696395" y="65.362186" style="fill: #1f77b4; fill-opacity: 0.8; stroke: #1f77b4; stroke-opacity: 0.8; stroke-width: 0.3"/>
     <use xlink:href="#mff43fc76bc" x="465.0859" y="146.04057" style="fill: #1f77b4; fill-opacity: 0.8; stroke: #1f77b4; stroke-opacity: 0.8; stroke-width: 0.3"/>
     <use xlink:href="#mff43fc76bc" x="485.776232" y="95.253712" style="fill: #1f77b4; fill-opacity: 0.8; stroke: #1f77b4; stroke-opacity: 0.8; stroke-width: 0.3"/>
     <use xlink:href="#mff43fc76bc" x="462.136534" y="131.337785" style="fill: #1f77b4; fill-opacity: 0.8; stroke: #1f77b4; stroke-opacity: 0.8; stroke-width: 0.3"/>
     <use xlink:href="#mff43fc76bc" x="474.902505" y="125.201105" style="fill: #1f77b4; fill-opacity: 0.8; stroke: #1f77b4; stroke-opacity: 0.8; stroke-width: 0.3"/>
     <use xlink:href="#mff43fc76bc" x="464.526261" y="147.436713" style="fill: #1f77b4; fill-opacity: 0.8; stroke: #1f77b4; stroke-opacity: 0.8; stroke-width: 0.3"/>
    </g>
   </g>
   <g id="PathCollection_4">
    <g clip-path="url(#p92940831d8)">
     <use xlink:href="#maf43d42136" x="460.994754" y="88.458783" style="fill: #d62728; fill-opacity: 0.9; stroke: #2ca02c; stroke-opacity: 0.9; stroke-width: 2"/>
    </g>
   </g>
  </g>
  <g id="axes_3">
   <g id="patch_16">
    <path d="M 7.2 401.384659 
L 351 401.384659 
L 351 217.8 
L 7.2 217.8 
z
" style="fill: #eaeaf2"/>
   </g>
   <g id="matplotlib.axis_5"/>
   <g id="matplotlib.axis_6"/>
   <g id="patch_17">
    <path d="M -1.817705 409.410217 
L 370.162623 409.410217 
L 370.162623 208.771246 
L -1.817705 208.771246 
z
" clip-path="url(#p78d1121ebf)" style="fill: #0000ff; opacity: 0.1"/>
   </g>
   <g id="patch_18">
    <path d="M 9.454426 238.867092 
L 10.668266 239.852888 
L 12.084992 240.771859 
L 13.690394 241.628683 
L 15.470265 242.428043 
L 17.410395 243.174616 
L 19.496574 243.873085 
L 21.714595 244.528128 
L 24.050247 245.144426 
L 26.489323 245.726659 
L 29.017612 246.279508 
L 31.620907 246.807651 
L 34.284998 247.31577 
L 36.995675 247.808544 
L 39.738731 248.290653 
L 42.499955 248.766778 
L 45.26514 249.241599 
L 48.020076 249.719795 
L 50.750553 250.206047 
L 53.442364 250.705036 
L 56.081299 251.22144 
L 58.653149 251.75994 
L 61.143705 252.325217 
L 63.538758 252.92195 
L 65.824099 253.55482 
L 67.985519 254.228506 
L 70.008809 254.947688 
L 71.879761 255.717048 
L 73.584164 256.541264 
L 75.107811 257.425018 
L 76.436491 258.372988 
L 77.556331 259.389759 
L 78.463701 260.476973 
L 79.166871 261.63285 
L 79.674779 262.855422 
L 79.996365 264.142719 
L 80.140568 265.49277 
L 80.116325 266.903606 
L 79.932576 268.373257 
L 79.598259 269.899753 
L 79.122314 271.481124 
L 78.513678 273.115401 
L 77.781291 274.800613 
L 76.934091 276.534792 
L 75.981017 278.315966 
L 74.931008 280.142167 
L 73.793002 282.011423 
L 72.575939 283.921767 
L 71.288756 285.871227 
L 69.940393 287.857834 
L 68.539788 289.879618 
L 67.095881 291.934609 
L 65.617609 294.020838 
L 64.113911 296.136334 
L 62.593727 298.279127 
L 61.065995 300.447249 
L 59.539653 302.638729 
L 58.023641 304.851596 
L 56.526897 307.083883 
L 55.05836 309.333617 
L 53.626968 311.598831 
L 52.241661 313.877553 
L 50.911376 316.167815 
L 49.645054 318.467645 
L 48.451631 320.775075 
L 47.340048 323.088135 
L 46.319243 325.404854 
L 45.398154 327.723264 
L 44.585721 330.041393 
L 43.890881 332.357272 
L 43.322575 334.668932 
L 42.88974 336.974403 
L 42.601315 339.271714 
L 42.466239 341.558896 
L 42.49345 343.833979 
L 42.691888 346.094994 
L 43.070491 348.33997 
L 43.637403 350.566709 
L 44.389173 352.76968 
L 45.313577 354.940829 
L 46.398174 357.072042 
L 47.630521 359.155202 
L 48.998178 361.182195 
L 50.488703 363.144903 
L 52.089655 365.035212 
L 53.788592 366.845006 
L 55.573073 368.56617 
L 57.430655 370.190588 
L 59.348899 371.710144 
L 61.315363 373.116723 
L 63.317604 374.402209 
L 65.343182 375.558486 
L 67.379655 376.577439 
L 69.414581 377.450953 
L 71.43552 378.170911 
L 73.430029 378.729198 
L 75.385668 379.117699 
L 77.289997 379.328301 
L 79.133657 379.355966 
L 80.916224 379.204586 
L 82.638886 378.879661 
L 84.302832 378.386694 
L 85.90925 377.731186 
L 87.459328 376.918639 
L 88.954256 375.954554 
L 90.395222 374.844433 
L 91.783413 373.593778 
L 93.12002 372.208089 
L 94.40623 370.69287 
L 95.643232 369.053621 
L 96.832214 367.295843 
L 97.974365 365.42504 
L 99.070873 363.446711 
L 100.122927 361.36636 
L 101.131715 359.189486 
L 102.098426 356.921593 
L 103.024249 354.568181 
L 103.910371 352.134752 
L 104.757982 349.626808 
L 105.56827 347.049851 
L 106.342423 344.409381 
L 107.08163 341.710901 
L 107.78708 338.959913 
L 108.45996 336.161917 
L 109.10146 333.322415 
L 109.712768 330.44691 
L 110.295073 327.540902 
L 110.849562 324.609893 
L 111.377425 321.659385 
L 111.87985 318.69488 
L 112.358025 315.721879 
L 112.81314 312.745883 
L 113.246382 309.772394 
L 113.65894 306.806915 
L 114.052002 303.854945 
L 114.426758 300.921988 
L 114.784395 298.013545 
L 115.126102 295.135116 
L 115.453068 292.292205 
L 115.766481 289.490312 
L 116.06753 286.734939 
L 116.357403 284.031588 
L 116.637288 281.38576 
L 116.908375 278.802957 
L 117.171851 276.28868 
L 117.428905 273.848432 
L 117.680726 271.487713 
L 117.928502 269.212026 
L 118.173422 267.026871 
L 118.416675 264.937751 
L 118.659448 262.950167 
L 118.90293 261.069621 
L 119.14831 259.301614 
L 119.396776 257.651648 
L 119.649517 256.125224 
L 119.907721 254.727845 
L 120.172577 253.465011 
L 120.445273 252.342225 
L 120.726998 251.364988 
L 121.018941 250.538801 
L 121.322289 249.869166 
L 121.638232 249.361585 
L 121.967957 249.021559 
L 122.312644 248.854485 
L 122.673082 248.861422 
L 123.049543 249.037681 
L 123.442261 249.378172 
L 123.851474 249.877807 
L 124.277416 250.531498 
L 124.720323 251.334157 
L 125.180432 252.280696 
L 125.657977 253.366025 
L 126.153195 254.585057 
L 126.666321 255.932703 
L 127.197592 257.403875 
L 127.747242 258.993485 
L 128.315508 260.696444 
L 128.902626 262.507664 
L 129.508831 264.422057 
L 130.134359 266.434534 
L 130.779445 268.540007 
L 131.444326 270.733388 
L 132.129237 273.009588 
L 132.834414 275.363519 
L 133.560093 277.790093 
L 134.306509 280.284221 
L 135.073899 282.840815 
L 135.862497 285.454786 
L 136.672541 288.121048 
L 137.504265 290.83451 
L 138.357905 293.590084 
L 139.233697 296.382683 
L 140.131877 299.207219 
L 141.052681 302.058601 
L 141.996343 304.931743 
L 142.963102 307.821557 
L 143.95319 310.722952 
L 144.966846 313.630843 
L 146.004304 316.540139 
L 147.0658 319.445753 
L 148.151569 322.342596 
L 149.261849 325.22558 
L 150.396874 328.089617 
L 151.55688 330.929619 
L 152.742102 333.740496 
L 153.952778 336.517161 
L 155.189142 339.254526 
L 156.45143 341.947501 
L 157.739878 344.590999 
L 159.054722 347.179932 
L 160.396197 349.70921 
L 161.76454 352.173747 
L 163.159985 354.568453 
L 164.582769 356.888239 
L 166.033128 359.128019 
L 167.511297 361.282703 
L 169.017512 363.347203 
L 170.552009 365.31643 
L 172.115023 367.185297 
L 173.70679 368.948715 
L 175.327547 370.601596 
L 176.977528 372.138851 
L 178.65697 373.555393 
L 180.366108 374.846132 
L 182.105179 376.00598 
L 183.874417 377.02985 
L 185.674059 377.912652 
L 187.50434 378.649299 
L 189.365496 379.234701 
L 191.257763 379.663772 
L 193.181377 379.931422 
L 195.136573 380.032563 
L 197.123587 379.962106 
L 199.142655 379.714964 
L 201.194012 379.286049 
L 203.275893 378.673276 
L 205.379732 377.884757 
L 207.495525 376.930767 
L 209.613268 375.821579 
L 211.722956 374.567467 
L 213.814584 373.178707 
L 215.878147 371.66557 
L 217.903641 370.038332 
L 219.881061 368.307267 
L 221.800402 366.482649 
L 223.651659 364.574751 
L 225.424828 362.593848 
L 227.109904 360.550213 
L 228.696882 358.454122 
L 230.175758 356.315847 
L 231.536526 354.145663 
L 232.769183 351.953843 
L 233.863722 349.750663 
L 234.810141 347.546395 
L 235.598433 345.351315 
L 236.218594 343.175695 
L 236.66062 341.029811 
L 236.914505 338.923935 
L 236.970245 336.868342 
L 236.817835 334.873307 
L 236.447271 332.949103 
L 235.848548 331.106003 
L 235.01166 329.354283 
L 233.930261 327.702101 
L 232.618882 326.14554 
L 231.099454 324.676405 
L 229.393917 323.286493 
L 227.524211 321.967604 
L 225.512274 320.711536 
L 223.380047 319.51009 
L 221.149469 318.355062 
L 218.842479 317.238253 
L 216.481018 316.15146 
L 214.087025 315.086484 
L 211.682438 314.035123 
L 209.289199 312.989175 
L 206.929247 311.94044 
L 204.62452 310.880716 
L 202.396959 309.801802 
L 200.268503 308.695498 
L 198.261092 307.553601 
L 196.396665 306.367911 
L 194.697162 305.130227 
L 193.184523 303.832348 
L 191.880686 302.466072 
L 190.807592 301.023198 
L 189.987181 299.495526 
L 189.4391 297.876083 
L 189.161278 296.169555 
L 189.139652 294.387065 
L 189.360035 292.5398 
L 189.808237 290.638949 
L 190.470073 288.695701 
L 191.331352 286.721245 
L 192.377888 284.726769 
L 193.595493 282.723461 
L 194.969978 280.722511 
L 196.487156 278.735107 
L 198.132839 276.772438 
L 199.892838 274.845692 
L 201.752967 272.966058 
L 203.699036 271.144725 
L 205.716859 269.392881 
L 207.792246 267.721715 
L 209.911011 266.142416 
L 212.058965 264.666171 
L 214.22192 263.304171 
L 216.385688 262.067603 
L 218.536082 260.967656 
L 220.658913 260.015519 
L 222.739994 259.22238 
L 224.765607 258.598958 
L 226.730082 258.147912 
L 228.63451 257.865136 
L 230.480191 257.746311 
L 232.268425 257.787121 
L 234.000513 257.983247 
L 235.677755 258.330374 
L 237.30145 258.824183 
L 238.872899 259.460358 
L 240.393402 260.23458 
L 241.864259 261.142533 
L 243.28677 262.179899 
L 244.662236 263.342361 
L 245.991957 264.625602 
L 247.277233 266.025305 
L 248.519363 267.537151 
L 249.719649 269.156824 
L 250.87939 270.880006 
L 251.999886 272.702381 
L 253.082438 274.61963 
L 254.128345 276.627437 
L 255.138909 278.721484 
L 256.115428 280.897454 
L 257.059204 283.15103 
L 257.971536 285.477894 
L 258.853725 287.873728 
L 259.70707 290.334217 
L 260.532872 292.855041 
L 261.332431 295.431885 
L 262.107047 298.06043 
L 262.85802 300.736359 
L 263.586651 303.455356 
L 264.29424 306.213102 
L 264.982086 309.005281 
L 265.65149 311.827575 
L 266.303752 314.675667 
L 266.940172 317.545239 
L 267.562051 320.431975 
L 268.170688 323.331556 
L 268.767384 326.239666 
L 269.353438 329.151987 
L 269.930152 332.064202 
L 270.498825 334.971993 
L 271.060757 337.871044 
L 271.617248 340.757037 
L 272.169599 343.625654 
L 272.71911 346.472579 
L 273.267081 349.293494 
L 273.814812 352.084082 
L 274.363603 354.840025 
L 274.914754 357.557006 
L 275.469566 360.230709 
L 276.029338 362.856814 
L 276.595372 365.431006 
L 277.168966 367.948966 
L 277.751422 370.406378 
L 278.344038 372.798925 
L 278.948117 375.122288 
L 279.564956 377.372151 
L 280.195858 379.544196 
L 280.842121 381.634106 
L 281.505047 383.637564 
L 282.185935 385.550253 
L 282.886085 387.367854 
L 283.606797 389.086051 
L 284.349373 390.700526 
L 285.115111 392.206963 
L 285.905312 393.601043 
L 286.721276 394.87845 
L 287.564304 396.034866 
L 288.435695 397.065974 
L 289.33675 397.967457 
L 290.268768 398.734996 
L 291.23305 399.364276 
L 292.230428 399.852117 
L 293.259714 400.200251 
L 294.319173 400.411734 
L 295.407074 400.489623 
L 296.521683 400.436972 
L 297.661267 400.256838 
L 298.824094 399.952277 
L 300.00843 399.526344 
L 301.212542 398.982096 
L 302.434697 398.322588 
L 303.673163 397.550877 
L 304.926206 396.670018 
L 306.192093 395.683067 
L 307.469092 394.59308 
L 308.755469 393.403113 
L 310.04949 392.116221 
L 311.349425 390.735462 
L 312.653538 389.26389 
L 313.960098 387.704561 
L 315.267371 386.060532 
L 316.573624 384.334858 
L 317.877124 382.530595 
L 319.176139 380.650799 
L 320.468935 378.698527 
L 321.753779 376.676833 
L 323.028939 374.588773 
L 324.29268 372.437405 
L 325.543271 370.225783 
L 326.778978 367.956963 
L 327.998069 365.634002 
L 329.198809 363.259955 
L 330.379467 360.837878 
L 331.538309 358.370827 
L 332.673602 355.861858 
L 333.783614 353.314026 
L 334.86661 350.730389 
L 335.920859 348.114001 
L 336.944627 345.467918 
L 337.936181 342.795197 
L 338.893789 340.098893 
L 339.815717 337.382062 
L 340.700232 334.647761 
L 341.545601 331.899044 
L 342.350091 329.138968 
L 343.11197 326.370589 
L 343.829503 323.596962 
L 344.500959 320.821144 
L 345.124604 318.046191 
L 345.698706 315.275158 
L 346.22153 312.511101 
L 346.691345 309.757076 
L 347.106417 307.016139 
L 347.465013 304.291346 
L 347.7654 301.585753 
L 348.005846 298.902415 
L 348.184617 296.24439 
L 348.299979 293.614731 
L 348.350201 291.016496 
L 348.33355 288.45274 
L 348.248291 285.92652 
L 348.092693 283.44089 
L 347.865021 280.998908 
L 347.563547 278.603626 
L 347.18731 276.257268 
L 346.737261 273.960013 
L 346.214633 271.711729 
L 345.620665 269.512285 
L 344.956592 267.361549 
L 344.223649 265.259392 
L 343.423074 263.205681 
L 342.556102 261.200285 
L 341.623969 259.243073 
L 340.627912 257.333914 
L 339.569167 255.472677 
L 338.44897 253.65923 
L 337.268557 251.893442 
L 336.029164 250.175183 
L 334.732027 248.50432 
L 333.378383 246.880722 
L 331.969468 245.304259 
L 330.506517 243.774799 
L 328.990767 242.292211 
L 327.423455 240.856364 
L 325.805815 239.467126 
L 324.139085 238.124367 
L 322.4245 236.827954 
L 320.663297 235.577758 
L 318.856712 234.373646 
L 317.005981 233.215488 
L 315.11234 232.103151 
L 313.177025 231.036506 
L 311.201272 230.015421 
L 309.186318 229.039765 
L 307.133399 228.109406 
L 305.04375 227.224213 
L 302.918608 226.384055 
L 300.75921 225.5888 
L 298.56679 224.838319 
L 296.342587 224.132479 
L 294.087834 223.471149 
L 291.803769 222.854198 
L 289.491629 222.281494 
L 287.152648 221.752907 
L 284.788063 221.268306 
L 282.39911 220.827559 
L 279.987026 220.430534 
L 277.553047 220.077101 
L 275.098408 219.767129 
L 272.624346 219.500486 
L 270.132097 219.277041 
L 267.622897 219.096663 
L 265.097982 218.95922 
L 262.558589 218.864582 
L 260.005953 218.812618 
L 257.441311 218.803195 
z
" clip-path="url(#p78d1121ebf)" style="fill: #ff0000; opacity: 0.2; stroke: #ff0000; stroke-width: 0.3; stroke-linejoin: miter"/>
   </g>
   <g id="patch_19">
    <path d="M 7.2 401.384659 
L 7.2 217.8 
" style="fill: none"/>
   </g>
   <g id="patch_20">
    <path d="M 351 401.384659 
L 351 217.8 
" style="fill: none"/>
   </g>
   <g id="patch_21">
    <path d="M 7.2 401.384659 
L 351 401.384659 
" style="fill: none"/>
   </g>
   <g id="patch_22">
    <path d="M 7.2 217.8 
L 351 217.8 
" style="fill: none"/>
   </g>
   <g id="text_3">
    <!-- (c) Scale the sample based on distance. -->
    <g style="fill: #262626" transform="translate(72.381562 415.578971)scale(0.12 -0.12)">
     <use xlink:href="#ArialMT-28"/>
     <use xlink:href="#ArialMT-63" x="33.300781"/>
     <use xlink:href="#ArialMT-29" x="83.300781"/>
     <use xlink:href="#ArialMT-20" x="116.601562"/>
     <use xlink:href="#ArialMT-53" x="144.384766"/>
     <use xlink:href="#ArialMT-63" x="211.083984"/>
     <use xlink:href="#ArialMT-61" x="261.083984"/>
     <use xlink:href="#ArialMT-6c" x="316.699219"/>
     <use xlink:href="#ArialMT-65" x="338.916016"/>
     <use xlink:href="#ArialMT-20" x="394.53125"/>
     <use xlink:href="#ArialMT-74" x="422.314453"/>
     <use xlink:href="#ArialMT-68" x="450.097656"/>
     <use xlink:href="#ArialMT-65" x="505.712891"/>
     <use xlink:href="#ArialMT-20" x="561.328125"/>
     <use xlink:href="#ArialMT-73" x="589.111328"/>
     <use xlink:href="#ArialMT-61" x="639.111328"/>
     <use xlink:href="#ArialMT-6d" x="694.726562"/>
     <use xlink:href="#ArialMT-70" x="778.027344"/>
     <use xlink:href="#ArialMT-6c" x="833.642578"/>
     <use xlink:href="#ArialMT-65" x="855.859375"/>
     <use xlink:href="#ArialMT-20" x="911.474609"/>
     <use xlink:href="#ArialMT-62" x="939.257812"/>
     <use xlink:href="#ArialMT-61" x="994.873047"/>
     <use xlink:href="#ArialMT-73" x="1050.488281"/>
     <use xlink:href="#ArialMT-65" x="1100.488281"/>
     <use xlink:href="#ArialMT-64" x="1156.103516"/>
     <use xlink:href="#ArialMT-20" x="1211.71875"/>
     <use xlink:href="#ArialMT-6f" x="1239.501953"/>
     <use xlink:href="#ArialMT-6e" x="1295.117188"/>
     <use xlink:href="#ArialMT-20" x="1350.732422"/>
     <use xlink:href="#ArialMT-64" x="1378.515625"/>
     <use xlink:href="#ArialMT-69" x="1434.130859"/>
     <use xlink:href="#ArialMT-73" x="1456.347656"/>
     <use xlink:href="#ArialMT-74" x="1506.347656"/>
     <use xlink:href="#ArialMT-61" x="1534.130859"/>
     <use xlink:href="#ArialMT-6e" x="1589.746094"/>
     <use xlink:href="#ArialMT-63" x="1645.361328"/>
     <use xlink:href="#ArialMT-65" x="1695.361328"/>
     <use xlink:href="#ArialMT-2e" x="1750.976562"/>
    </g>
   </g>
   <g id="PathCollection_5">
    <path d="M 116.57486 255.535329 
L 118.117139 255.535329 
L 118.117139 253.993051 
L 119.659417 253.993051 
L 119.659417 252.450773 
L 118.117139 252.450773 
L 118.117139 250.908494 
L 116.57486 250.908494 
L 116.57486 252.450773 
L 115.032582 252.450773 
L 115.032582 253.993051 
L 116.57486 253.993051 
z
" clip-path="url(#p78d1121ebf)" style="fill: #d62728; fill-opacity: 0.8; stroke: #d62728; stroke-opacity: 0.8; stroke-width: 0.3"/>
    <path d="M 100.55493 311.747473 
L 104.316356 311.747473 
L 104.316356 307.986046 
L 108.077783 307.986046 
L 108.077783 304.22462 
L 104.316356 304.22462 
L 104.316356 300.463193 
L 100.55493 300.463193 
L 100.55493 304.22462 
L 96.793503 304.22462 
L 96.793503 307.986046 
L 100.55493 307.986046 
z
" clip-path="url(#p78d1121ebf)" style="fill: #d62728; fill-opacity: 0.8; stroke: #d62728; stroke-opacity: 0.8; stroke-width: 0.3"/>
    <path d="M 97.205278 286.484513 
L 99.7083 286.484513 
L 99.7083 283.981491 
L 102.211322 283.981491 
L 102.211322 281.478469 
L 99.7083 281.478469 
L 99.7083 278.975446 
L 97.205278 278.975446 
L 97.205278 281.478469 
L 94.702255 281.478469 
L 94.702255 283.981491 
L 97.205278 283.981491 
z
" clip-path="url(#p78d1121ebf)" style="fill: #d62728; fill-opacity: 0.8; stroke: #d62728; stroke-opacity: 0.8; stroke-width: 0.3"/>
    <path d="M 97.225034 317.077803 
L 99.89336 317.077803 
L 99.89336 314.409477 
L 102.561686 314.409477 
L 102.561686 311.741151 
L 99.89336 311.741151 
L 99.89336 309.072825 
L 97.225034 309.072825 
L 97.225034 311.741151 
L 94.556707 311.741151 
L 94.556707 314.409477 
L 97.225034 314.409477 
z
" clip-path="url(#p78d1121ebf)" style="fill: #d62728; fill-opacity: 0.8; stroke: #d62728; stroke-opacity: 0.8; stroke-width: 0.3"/>
    <path d="M 76.28117 318.826304 
L 78.177838 318.826304 
L 78.177838 316.929636 
L 80.074506 316.929636 
L 80.074506 315.032968 
L 78.177838 315.032968 
L 78.177838 313.1363 
L 76.28117 313.1363 
L 76.28117 315.032968 
L 74.384502 315.032968 
L 74.384502 316.929636 
L 76.28117 316.929636 
z
" clip-path="url(#p78d1121ebf)" style="fill: #d62728; fill-opacity: 0.8; stroke: #d62728; stroke-opacity: 0.8; stroke-width: 0.3"/>
    <path d="M 88.023178 293.34053 
L 90.516035 293.34053 
L 90.516035 290.847673 
L 93.008892 290.847673 
L 93.008892 288.354815 
L 90.516035 288.354815 
L 90.516035 285.861958 
L 88.023178 285.861958 
L 88.023178 288.354815 
L 85.53032 288.354815 
L 85.53032 290.847673 
L 88.023178 290.847673 
z
" clip-path="url(#p78d1121ebf)" style="fill: #d62728; fill-opacity: 0.8; stroke: #d62728; stroke-opacity: 0.8; stroke-width: 0.3"/>
    <path d="M 90.251669 343.933363 
L 91.83174 343.933363 
L 91.83174 342.353293 
L 93.41181 342.353293 
L 93.41181 340.773222 
L 91.83174 340.773222 
L 91.83174 339.193152 
L 90.251669 339.193152 
L 90.251669 340.773222 
L 88.671599 340.773222 
L 88.671599 342.353293 
L 90.251669 342.353293 
z
" clip-path="url(#p78d1121ebf)" style="fill: #d62728; fill-opacity: 0.8; stroke: #d62728; stroke-opacity: 0.8; stroke-width: 0.3"/>
    <path d="M 95.415341 301.045124 
L 98.965107 301.045124 
L 98.965107 297.495357 
L 102.514874 297.495357 
L 102.514874 293.945591 
L 98.965107 293.945591 
L 98.965107 290.395824 
L 95.415341 290.395824 
L 95.415341 293.945591 
L 91.865574 293.945591 
L 91.865574 297.495357 
L 95.415341 297.495357 
z
" clip-path="url(#p78d1121ebf)" style="fill: #d62728; fill-opacity: 0.8; stroke: #d62728; stroke-opacity: 0.8; stroke-width: 0.3"/>
    <path d="M 85.77282 291.233959 
L 88.094237 291.233959 
L 88.094237 288.912542 
L 90.415654 288.912542 
L 90.415654 286.591125 
L 88.094237 286.591125 
L 88.094237 284.269708 
L 85.77282 284.269708 
L 85.77282 286.591125 
L 83.451403 286.591125 
L 83.451403 288.912542 
L 85.77282 288.912542 
z
" clip-path="url(#p78d1121ebf)" style="fill: #d62728; fill-opacity: 0.8; stroke: #d62728; stroke-opacity: 0.8; stroke-width: 0.3"/>
    <path d="M 94.75188 312.299025 
L 97.726194 312.299025 
L 97.726194 309.324711 
L 100.700509 309.324711 
L 100.700509 306.350396 
L 97.726194 306.350396 
L 97.726194 303.376081 
L 94.75188 303.376081 
L 94.75188 306.350396 
L 91.777565 306.350396 
L 91.777565 309.324711 
L 94.75188 309.324711 
z
" clip-path="url(#p78d1121ebf)" style="fill: #d62728; fill-opacity: 0.8; stroke: #d62728; stroke-opacity: 0.8; stroke-width: 0.3"/>
    <path d="M 95.518543 245.420218 
L 96.923418 245.420218 
L 96.923418 244.015343 
L 98.328294 244.015343 
L 98.328294 242.610467 
L 96.923418 242.610467 
L 96.923418 241.205592 
L 95.518543 241.205592 
L 95.518543 242.610467 
L 94.113667 242.610467 
L 94.113667 244.015343 
L 95.518543 244.015343 
z
" clip-path="url(#p78d1121ebf)" style="fill: #d62728; fill-opacity: 0.8; stroke: #d62728; stroke-opacity: 0.8; stroke-width: 0.3"/>
    <path d="M 105.230919 333.698353 
L 107.102162 333.698353 
L 107.102162 331.82711 
L 108.973405 331.82711 
L 108.973405 329.955867 
L 107.102162 329.955867 
L 107.102162 328.084624 
L 105.230919 328.084624 
L 105.230919 329.955867 
L 103.359676 329.955867 
L 103.359676 331.82711 
L 105.230919 331.82711 
z
" clip-path="url(#p78d1121ebf)" style="fill: #d62728; fill-opacity: 0.8; stroke: #d62728; stroke-opacity: 0.8; stroke-width: 0.3"/>
    <path d="M 82.781334 296.602646 
L 85.093712 296.602646 
L 85.093712 294.290267 
L 87.406091 294.290267 
L 87.406091 291.977889 
L 85.093712 291.977889 
L 85.093712 289.66551 
L 82.781334 289.66551 
L 82.781334 291.977889 
L 80.468955 291.977889 
L 80.468955 294.290267 
L 82.781334 294.290267 
z
" clip-path="url(#p78d1121ebf)" style="fill: #d62728; fill-opacity: 0.8; stroke: #d62728; stroke-opacity: 0.8; stroke-width: 0.3"/>
   </g>
   <g id="PathCollection_6">
    <path d="M 120.207801 305.084235 
L 110.529841 305.084235 
L 110.529841 300.402757 
L 120.207801 300.402757 
L 120.207801 305.084235 
z
" clip-path="url(#p78d1121ebf)" style="fill: #1f77b4; fill-opacity: 0.8; stroke: #1f77b4; stroke-opacity: 0.8; stroke-width: 0.3"/>
    <path d="M 135.847422 276.909393 
L 130.930201 276.909393 
L 130.930201 274.530807 
L 135.847422 274.530807 
L 135.847422 276.909393 
z
" clip-path="url(#p78d1121ebf)" style="fill: #1f77b4; fill-opacity: 0.8; stroke: #1f77b4; stroke-opacity: 0.8; stroke-width: 0.3"/>
    <path d="M 112.570807 357.358425 
L 108.844216 357.358425 
L 108.844216 355.555777 
L 112.570807 355.555777 
L 112.570807 357.358425 
z
" clip-path="url(#p78d1121ebf)" style="fill: #1f77b4; fill-opacity: 0.8; stroke: #1f77b4; stroke-opacity: 0.8; stroke-width: 0.3"/>
    <path d="M 134.472813 306.988759 
L 128.58046 306.988759 
L 128.58046 304.138476 
L 134.472813 304.138476 
L 134.472813 306.988759 
z
" clip-path="url(#p78d1121ebf)" style="fill: #1f77b4; fill-opacity: 0.8; stroke: #1f77b4; stroke-opacity: 0.8; stroke-width: 0.3"/>
    <path d="M 109.954663 342.770371 
L 105.632468 342.770371 
L 105.632468 340.679615 
L 109.954663 340.679615 
L 109.954663 342.770371 
z
" clip-path="url(#p78d1121ebf)" style="fill: #1f77b4; fill-opacity: 0.8; stroke: #1f77b4; stroke-opacity: 0.8; stroke-width: 0.3"/>
    <path d="M 122.845868 336.676811 
L 118.299828 336.676811 
L 118.299828 334.477775 
L 122.845868 334.477775 
L 122.845868 336.676811 
z
" clip-path="url(#p78d1121ebf)" style="fill: #1f77b4; fill-opacity: 0.8; stroke: #1f77b4; stroke-opacity: 0.8; stroke-width: 0.3"/>
    <path d="M 111.986938 358.746225 
L 108.303657 358.746225 
L 108.303657 356.964527 
L 111.986938 356.964527 
L 111.986938 358.746225 
z
" clip-path="url(#p78d1121ebf)" style="fill: #1f77b4; fill-opacity: 0.8; stroke: #1f77b4; stroke-opacity: 0.8; stroke-width: 0.3"/>
   </g>
   <g id="PathCollection_7">
    <defs>
     <path id="mc538506c86" d="M -2.635231 7.905694 
L 2.635231 7.905694 
L 2.635231 2.635231 
L 7.905694 2.635231 
L 7.905694 -2.635231 
L 2.635231 -2.635231 
L 2.635231 -7.905694 
L -2.635231 -7.905694 
L -2.635231 -2.635231 
L -7.905694 -2.635231 
L -7.905694 2.635231 
L -2.635231 2.635231 
z
" style="stroke: #2ca02c; stroke-opacity: 0.9; stroke-width: 2"/>
    </defs>
    <g clip-path="url(#p78d1121ebf)">
     <use xlink:href="#mc538506c86" x="106.394754" y="299.058783" style="fill: #d62728; fill-opacity: 0.9; stroke: #2ca02c; stroke-opacity: 0.9; stroke-width: 2"/>
    </g>
   </g>
  </g>
  <g id="axes_4">
   <g id="patch_23">
    <path d="M 361.8 401.384659 
L 705.6 401.384659 
L 705.6 217.8 
L 361.8 217.8 
z
" style="fill: #eaeaf2"/>
   </g>
   <g id="matplotlib.axis_7"/>
   <g id="matplotlib.axis_8"/>
   <g id="patch_24">
    <path d="M 352.782295 409.410217 
L 724.762623 409.410217 
L 724.762623 208.771246 
L 352.782295 208.771246 
z
" clip-path="url(#pda5caa6b48)" style="fill: #0000ff; opacity: 0.1"/>
   </g>
   <g id="patch_25">
    <path d="M 364.054426 238.867092 
L 365.268266 239.852888 
L 366.684992 240.771859 
L 368.290394 241.628683 
L 370.070265 242.428043 
L 372.010395 243.174616 
L 374.096574 243.873085 
L 376.314595 244.528128 
L 378.650247 245.144426 
L 381.089323 245.726659 
L 383.617612 246.279508 
L 386.220907 246.807651 
L 388.884998 247.31577 
L 391.595675 247.808544 
L 394.338731 248.290653 
L 397.099955 248.766778 
L 399.86514 249.241599 
L 402.620076 249.719795 
L 405.350553 250.206047 
L 408.042364 250.705036 
L 410.681299 251.22144 
L 413.253149 251.75994 
L 415.743705 252.325217 
L 418.138758 252.92195 
L 420.424099 253.55482 
L 422.585519 254.228506 
L 424.608809 254.947688 
L 426.479761 255.717048 
L 428.184164 256.541264 
L 429.707811 257.425018 
L 431.036491 258.372988 
L 432.156331 259.389759 
L 433.063701 260.476973 
L 433.766871 261.63285 
L 434.274779 262.855422 
L 434.596365 264.142719 
L 434.740568 265.49277 
L 434.716325 266.903606 
L 434.532576 268.373257 
L 434.198259 269.899753 
L 433.722314 271.481124 
L 433.113678 273.115401 
L 432.381291 274.800613 
L 431.534091 276.534792 
L 430.581017 278.315966 
L 429.531008 280.142167 
L 428.393002 282.011423 
L 427.175939 283.921767 
L 425.888756 285.871227 
L 424.540393 287.857834 
L 423.139788 289.879618 
L 421.695881 291.934609 
L 420.217609 294.020838 
L 418.713911 296.136334 
L 417.193727 298.279127 
L 415.665995 300.447249 
L 414.139653 302.638729 
L 412.623641 304.851596 
L 411.126897 307.083883 
L 409.65836 309.333617 
L 408.226968 311.598831 
L 406.841661 313.877553 
L 405.511376 316.167815 
L 404.245054 318.467645 
L 403.051631 320.775075 
L 401.940048 323.088135 
L 400.919243 325.404854 
L 399.998154 327.723264 
L 399.185721 330.041393 
L 398.490881 332.357272 
L 397.922575 334.668932 
L 397.48974 336.974403 
L 397.201315 339.271714 
L 397.066239 341.558896 
L 397.09345 343.833979 
L 397.291888 346.094994 
L 397.670491 348.33997 
L 398.237403 350.566709 
L 398.989173 352.76968 
L 399.913577 354.940829 
L 400.998174 357.072042 
L 402.230521 359.155202 
L 403.598178 361.182195 
L 405.088703 363.144903 
L 406.689655 365.035212 
L 408.388592 366.845006 
L 410.173073 368.56617 
L 412.030655 370.190588 
L 413.948899 371.710144 
L 415.915363 373.116723 
L 417.917604 374.402209 
L 419.943182 375.558486 
L 421.979655 376.577439 
L 424.014581 377.450953 
L 426.03552 378.170911 
L 428.030029 378.729198 
L 429.985668 379.117699 
L 431.889997 379.328301 
L 433.733657 379.355966 
L 435.516224 379.204586 
L 437.238886 378.879661 
L 438.902832 378.386694 
L 440.50925 377.731186 
L 442.059328 376.918639 
L 443.554256 375.954554 
L 444.995222 374.844433 
L 446.383413 373.593778 
L 447.72002 372.208089 
L 449.00623 370.69287 
L 450.243232 369.053621 
L 451.432214 367.295843 
L 452.574365 365.42504 
L 453.670873 363.446711 
L 454.722927 361.36636 
L 455.731715 359.189486 
L 456.698426 356.921593 
L 457.624249 354.568181 
L 458.510371 352.134752 
L 459.357982 349.626808 
L 460.16827 347.049851 
L 460.942423 344.409381 
L 461.68163 341.710901 
L 462.38708 338.959913 
L 463.05996 336.161917 
L 463.70146 333.322415 
L 464.312768 330.44691 
L 464.895073 327.540902 
L 465.449562 324.609893 
L 465.977425 321.659385 
L 466.47985 318.69488 
L 466.958025 315.721879 
L 467.41314 312.745883 
L 467.846382 309.772394 
L 468.25894 306.806915 
L 468.652002 303.854945 
L 469.026758 300.921988 
L 469.384395 298.013545 
L 469.726102 295.135116 
L 470.053068 292.292205 
L 470.366481 289.490312 
L 470.66753 286.734939 
L 470.957403 284.031588 
L 471.237288 281.38576 
L 471.508375 278.802957 
L 471.771851 276.28868 
L 472.028905 273.848432 
L 472.280726 271.487713 
L 472.528502 269.212026 
L 472.773422 267.026871 
L 473.016675 264.937751 
L 473.259448 262.950167 
L 473.50293 261.069621 
L 473.74831 259.301614 
L 473.996776 257.651648 
L 474.249517 256.125224 
L 474.507721 254.727845 
L 474.772577 253.465011 
L 475.045273 252.342225 
L 475.326998 251.364988 
L 475.618941 250.538801 
L 475.922289 249.869166 
L 476.238232 249.361585 
L 476.567957 249.021559 
L 476.912644 248.854485 
L 477.273082 248.861422 
L 477.649543 249.037681 
L 478.042261 249.378172 
L 478.451474 249.877807 
L 478.877416 250.531498 
L 479.320323 251.334157 
L 479.780432 252.280696 
L 480.257977 253.366025 
L 480.753195 254.585057 
L 481.266321 255.932703 
L 481.797592 257.403875 
L 482.347242 258.993485 
L 482.915508 260.696444 
L 483.502626 262.507664 
L 484.108831 264.422057 
L 484.734359 266.434534 
L 485.379445 268.540007 
L 486.044326 270.733388 
L 486.729237 273.009588 
L 487.434414 275.363519 
L 488.160093 277.790093 
L 488.906509 280.284221 
L 489.673899 282.840815 
L 490.462497 285.454786 
L 491.272541 288.121048 
L 492.104265 290.83451 
L 492.957905 293.590084 
L 493.833697 296.382683 
L 494.731877 299.207219 
L 495.652681 302.058601 
L 496.596343 304.931743 
L 497.563102 307.821557 
L 498.55319 310.722952 
L 499.566846 313.630843 
L 500.604304 316.540139 
L 501.6658 319.445753 
L 502.751569 322.342596 
L 503.861849 325.22558 
L 504.996874 328.089617 
L 506.15688 330.929619 
L 507.342102 333.740496 
L 508.552778 336.517161 
L 509.789142 339.254526 
L 511.05143 341.947501 
L 512.339878 344.590999 
L 513.654722 347.179932 
L 514.996197 349.70921 
L 516.36454 352.173747 
L 517.759985 354.568453 
L 519.182769 356.888239 
L 520.633128 359.128019 
L 522.111297 361.282703 
L 523.617512 363.347203 
L 525.152009 365.31643 
L 526.715023 367.185297 
L 528.30679 368.948715 
L 529.927547 370.601596 
L 531.577528 372.138851 
L 533.25697 373.555393 
L 534.966108 374.846132 
L 536.705179 376.00598 
L 538.474417 377.02985 
L 540.274059 377.912652 
L 542.10434 378.649299 
L 543.965496 379.234701 
L 545.857763 379.663772 
L 547.781377 379.931422 
L 549.736573 380.032563 
L 551.723587 379.962106 
L 553.742655 379.714964 
L 555.794012 379.286049 
L 557.875893 378.673276 
L 559.979732 377.884757 
L 562.095525 376.930767 
L 564.213268 375.821579 
L 566.322956 374.567467 
L 568.414584 373.178707 
L 570.478147 371.66557 
L 572.503641 370.038332 
L 574.481061 368.307267 
L 576.400402 366.482649 
L 578.251659 364.574751 
L 580.024828 362.593848 
L 581.709904 360.550213 
L 583.296882 358.454122 
L 584.775758 356.315847 
L 586.136526 354.145663 
L 587.369183 351.953843 
L 588.463722 349.750663 
L 589.410141 347.546395 
L 590.198433 345.351315 
L 590.818594 343.175695 
L 591.26062 341.029811 
L 591.514505 338.923935 
L 591.570245 336.868342 
L 591.417835 334.873307 
L 591.047271 332.949103 
L 590.448548 331.106003 
L 589.61166 329.354283 
L 588.530261 327.702101 
L 587.218882 326.14554 
L 585.699454 324.676405 
L 583.993917 323.286493 
L 582.124211 321.967604 
L 580.112274 320.711536 
L 577.980047 319.51009 
L 575.749469 318.355062 
L 573.442479 317.238253 
L 571.081018 316.15146 
L 568.687025 315.086484 
L 566.282438 314.035123 
L 563.889199 312.989175 
L 561.529247 311.94044 
L 559.22452 310.880716 
L 556.996959 309.801802 
L 554.868503 308.695498 
L 552.861092 307.553601 
L 550.996665 306.367911 
L 549.297162 305.130227 
L 547.784523 303.832348 
L 546.480686 302.466072 
L 545.407592 301.023198 
L 544.587181 299.495526 
L 544.0391 297.876083 
L 543.761278 296.169555 
L 543.739652 294.387065 
L 543.960035 292.5398 
L 544.408237 290.638949 
L 545.070073 288.695701 
L 545.931352 286.721245 
L 546.977888 284.726769 
L 548.195493 282.723461 
L 549.569978 280.722511 
L 551.087156 278.735107 
L 552.732839 276.772438 
L 554.492838 274.845692 
L 556.352967 272.966058 
L 558.299036 271.144725 
L 560.316859 269.392881 
L 562.392246 267.721715 
L 564.511011 266.142416 
L 566.658965 264.666171 
L 568.82192 263.304171 
L 570.985688 262.067603 
L 573.136082 260.967656 
L 575.258913 260.015519 
L 577.339994 259.22238 
L 579.365607 258.598958 
L 581.330082 258.147912 
L 583.23451 257.865136 
L 585.080191 257.746311 
L 586.868425 257.787121 
L 588.600513 257.983247 
L 590.277755 258.330374 
L 591.90145 258.824183 
L 593.472899 259.460358 
L 594.993402 260.23458 
L 596.464259 261.142533 
L 597.88677 262.179899 
L 599.262236 263.342361 
L 600.591957 264.625602 
L 601.877233 266.025305 
L 603.119363 267.537151 
L 604.319649 269.156824 
L 605.47939 270.880006 
L 606.599886 272.702381 
L 607.682438 274.61963 
L 608.728345 276.627437 
L 609.738909 278.721484 
L 610.715428 280.897454 
L 611.659204 283.15103 
L 612.571536 285.477894 
L 613.453725 287.873728 
L 614.30707 290.334217 
L 615.132872 292.855041 
L 615.932431 295.431885 
L 616.707047 298.06043 
L 617.45802 300.736359 
L 618.186651 303.455356 
L 618.89424 306.213102 
L 619.582086 309.005281 
L 620.25149 311.827575 
L 620.903752 314.675667 
L 621.540172 317.545239 
L 622.162051 320.431975 
L 622.770688 323.331556 
L 623.367384 326.239666 
L 623.953438 329.151987 
L 624.530152 332.064202 
L 625.098825 334.971993 
L 625.660757 337.871044 
L 626.217248 340.757037 
L 626.769599 343.625654 
L 627.31911 346.472579 
L 627.867081 349.293494 
L 628.414812 352.084082 
L 628.963603 354.840025 
L 629.514754 357.557006 
L 630.069566 360.230709 
L 630.629338 362.856814 
L 631.195372 365.431006 
L 631.768966 367.948966 
L 632.351422 370.406378 
L 632.944038 372.798925 
L 633.548117 375.122288 
L 634.164956 377.372151 
L 634.795858 379.544196 
L 635.442121 381.634106 
L 636.105047 383.637564 
L 636.785935 385.550253 
L 637.486085 387.367854 
L 638.206797 389.086051 
L 638.949373 390.700526 
L 639.715111 392.206963 
L 640.505312 393.601043 
L 641.321276 394.87845 
L 642.164304 396.034866 
L 643.035695 397.065974 
L 643.93675 397.967457 
L 644.868768 398.734996 
L 645.83305 399.364276 
L 646.830428 399.852117 
L 647.859714 400.200251 
L 648.919173 400.411734 
L 650.007074 400.489623 
L 651.121683 400.436972 
L 652.261267 400.256838 
L 653.424094 399.952277 
L 654.60843 399.526344 
L 655.812542 398.982096 
L 657.034697 398.322588 
L 658.273163 397.550877 
L 659.526206 396.670018 
L 660.792093 395.683067 
L 662.069092 394.59308 
L 663.355469 393.403113 
L 664.64949 392.116221 
L 665.949425 390.735462 
L 667.253538 389.26389 
L 668.560098 387.704561 
L 669.867371 386.060532 
L 671.173624 384.334858 
L 672.477124 382.530595 
L 673.776139 380.650799 
L 675.068935 378.698527 
L 676.353779 376.676833 
L 677.628939 374.588773 
L 678.89268 372.437405 
L 680.143271 370.225783 
L 681.378978 367.956963 
L 682.598069 365.634002 
L 683.798809 363.259955 
L 684.979467 360.837878 
L 686.138309 358.370827 
L 687.273602 355.861858 
L 688.383614 353.314026 
L 689.46661 350.730389 
L 690.520859 348.114001 
L 691.544627 345.467918 
L 692.536181 342.795197 
L 693.493789 340.098893 
L 694.415717 337.382062 
L 695.300232 334.647761 
L 696.145601 331.899044 
L 696.950091 329.138968 
L 697.71197 326.370589 
L 698.429503 323.596962 
L 699.100959 320.821144 
L 699.724604 318.046191 
L 700.298706 315.275158 
L 700.82153 312.511101 
L 701.291345 309.757076 
L 701.706417 307.016139 
L 702.065013 304.291346 
L 702.3654 301.585753 
L 702.605846 298.902415 
L 702.784617 296.24439 
L 702.899979 293.614731 
L 702.950201 291.016496 
L 702.93355 288.45274 
L 702.848291 285.92652 
L 702.692693 283.44089 
L 702.465021 280.998908 
L 702.163547 278.603626 
L 701.78731 276.257268 
L 701.337261 273.960013 
L 700.814633 271.711729 
L 700.220665 269.512285 
L 699.556592 267.361549 
L 698.823649 265.259392 
L 698.023074 263.205681 
L 697.156102 261.200285 
L 696.223969 259.243073 
L 695.227912 257.333914 
L 694.169167 255.472677 
L 693.04897 253.65923 
L 691.868557 251.893442 
L 690.629164 250.175183 
L 689.332027 248.50432 
L 687.978383 246.880722 
L 686.569468 245.304259 
L 685.106517 243.774799 
L 683.590767 242.292211 
L 682.023455 240.856364 
L 680.405815 239.467126 
L 678.739085 238.124367 
L 677.0245 236.827954 
L 675.263297 235.577758 
L 673.456712 234.373646 
L 671.605981 233.215488 
L 669.71234 232.103151 
L 667.777025 231.036506 
L 665.801272 230.015421 
L 663.786318 229.039765 
L 661.733399 228.109406 
L 659.64375 227.224213 
L 657.518608 226.384055 
L 655.35921 225.5888 
L 653.16679 224.838319 
L 650.942587 224.132479 
L 648.687834 223.471149 
L 646.403769 222.854198 
L 644.091629 222.281494 
L 641.752648 221.752907 
L 639.388063 221.268306 
L 636.99911 220.827559 
L 634.587026 220.430534 
L 632.153047 220.077101 
L 629.698408 219.767129 
L 627.224346 219.500486 
L 624.732097 219.277041 
L 622.222897 219.096663 
L 619.697982 218.95922 
L 617.158589 218.864582 
L 614.605953 218.812618 
L 612.041311 218.803195 
z
" clip-path="url(#pda5caa6b48)" style="fill: #ff0000; opacity: 0.2; stroke: #ff0000; stroke-width: 0.3; stroke-linejoin: miter"/>
   </g>
   <g id="line2d_1">
    <path d="M 449.722623 419.442166 
L 480.157377 218.803195 
" clip-path="url(#pda5caa6b48)" style="fill: none; stroke-dasharray: 11.1,4.8; stroke-dashoffset: 0; stroke: #000000; stroke-opacity: 0.7; stroke-width: 3"/>
   </g>
   <g id="patch_26">
    <path d="M 361.8 401.384659 
L 361.8 217.8 
" style="fill: none"/>
   </g>
   <g id="patch_27">
    <path d="M 705.6 401.384659 
L 705.6 217.8 
" style="fill: none"/>
   </g>
   <g id="patch_28">
    <path d="M 361.8 401.384659 
L 705.6 401.384659 
" style="fill: none"/>
   </g>
   <g id="patch_29">
    <path d="M 361.8 217.8 
L 705.6 217.8 
" style="fill: none"/>
   </g>
   <g id="text_4">
    <!-- (d) Fit a linear surrogate. -->
    <g style="fill: #262626" transform="translate(468.013125 415.578971)scale(0.12 -0.12)">
     <defs>
      <path id="ArialMT-46" d="M 525 0 
L 525 4581 
L 3616 4581 
L 3616 4041 
L 1131 4041 
L 1131 2622 
L 3281 2622 
L 3281 2081 
L 1131 2081 
L 1131 0 
L 525 0 
z
" transform="scale(0.015625)"/>
     </defs>
     <use xlink:href="#ArialMT-28"/>
     <use xlink:href="#ArialMT-64" x="33.300781"/>
     <use xlink:href="#ArialMT-29" x="88.916016"/>
     <use xlink:href="#ArialMT-20" x="122.216797"/>
     <use xlink:href="#ArialMT-46" x="150"/>
     <use xlink:href="#ArialMT-69" x="211.083984"/>
     <use xlink:href="#ArialMT-74" x="233.300781"/>
     <use xlink:href="#ArialMT-20" x="261.083984"/>
     <use xlink:href="#ArialMT-61" x="288.867188"/>
     <use xlink:href="#ArialMT-20" x="344.482422"/>
     <use xlink:href="#ArialMT-6c" x="372.265625"/>
     <use xlink:href="#ArialMT-69" x="394.482422"/>
     <use xlink:href="#ArialMT-6e" x="416.699219"/>
     <use xlink:href="#ArialMT-65" x="472.314453"/>
     <use xlink:href="#ArialMT-61" x="527.929688"/>
     <use xlink:href="#ArialMT-72" x="583.544922"/>
     <use xlink:href="#ArialMT-20" x="616.845703"/>
     <use xlink:href="#ArialMT-73" x="644.628906"/>
     <use xlink:href="#ArialMT-75" x="694.628906"/>
     <use xlink:href="#ArialMT-72" x="750.244141"/>
     <use xlink:href="#ArialMT-72" x="783.544922"/>
     <use xlink:href="#ArialMT-6f" x="816.845703"/>
     <use xlink:href="#ArialMT-67" x="872.460938"/>
     <use xlink:href="#ArialMT-61" x="928.076172"/>
     <use xlink:href="#ArialMT-74" x="983.691406"/>
     <use xlink:href="#ArialMT-65" x="1011.474609"/>
     <use xlink:href="#ArialMT-2e" x="1067.089844"/>
    </g>
   </g>
   <g id="PathCollection_8">
    <path d="M 471.17486 255.535329 
L 472.717139 255.535329 
L 472.717139 253.993051 
L 474.259417 253.993051 
L 474.259417 252.450773 
L 472.717139 252.450773 
L 472.717139 250.908494 
L 471.17486 250.908494 
L 471.17486 252.450773 
L 469.632582 252.450773 
L 469.632582 253.993051 
L 471.17486 253.993051 
z
" clip-path="url(#pda5caa6b48)" style="fill: #d62728; fill-opacity: 0.8; stroke: #d62728; stroke-opacity: 0.8; stroke-width: 0.3"/>
    <path d="M 455.15493 311.747473 
L 458.916356 311.747473 
L 458.916356 307.986046 
L 462.677783 307.986046 
L 462.677783 304.22462 
L 458.916356 304.22462 
L 458.916356 300.463193 
L 455.15493 300.463193 
L 455.15493 304.22462 
L 451.393503 304.22462 
L 451.393503 307.986046 
L 455.15493 307.986046 
z
" clip-path="url(#pda5caa6b48)" style="fill: #d62728; fill-opacity: 0.8; stroke: #d62728; stroke-opacity: 0.8; stroke-width: 0.3"/>
    <path d="M 451.805278 286.484513 
L 454.3083 286.484513 
L 454.3083 283.981491 
L 456.811322 283.981491 
L 456.811322 281.478469 
L 454.3083 281.478469 
L 454.3083 278.975446 
L 451.805278 278.975446 
L 451.805278 281.478469 
L 449.302255 281.478469 
L 449.302255 283.981491 
L 451.805278 283.981491 
z
" clip-path="url(#pda5caa6b48)" style="fill: #d62728; fill-opacity: 0.8; stroke: #d62728; stroke-opacity: 0.8; stroke-width: 0.3"/>
    <path d="M 451.825034 317.077803 
L 454.49336 317.077803 
L 454.49336 314.409477 
L 457.161686 314.409477 
L 457.161686 311.741151 
L 454.49336 311.741151 
L 454.49336 309.072825 
L 451.825034 309.072825 
L 451.825034 311.741151 
L 449.156707 311.741151 
L 449.156707 314.409477 
L 451.825034 314.409477 
z
" clip-path="url(#pda5caa6b48)" style="fill: #d62728; fill-opacity: 0.8; stroke: #d62728; stroke-opacity: 0.8; stroke-width: 0.3"/>
    <path d="M 430.88117 318.826304 
L 432.777838 318.826304 
L 432.777838 316.929636 
L 434.674506 316.929636 
L 434.674506 315.032968 
L 432.777838 315.032968 
L 432.777838 313.1363 
L 430.88117 313.1363 
L 430.88117 315.032968 
L 428.984502 315.032968 
L 428.984502 316.929636 
L 430.88117 316.929636 
z
" clip-path="url(#pda5caa6b48)" style="fill: #d62728; fill-opacity: 0.8; stroke: #d62728; stroke-opacity: 0.8; stroke-width: 0.3"/>
    <path d="M 442.623178 293.34053 
L 445.116035 293.34053 
L 445.116035 290.847673 
L 447.608892 290.847673 
L 447.608892 288.354815 
L 445.116035 288.354815 
L 445.116035 285.861958 
L 442.623178 285.861958 
L 442.623178 288.354815 
L 440.13032 288.354815 
L 440.13032 290.847673 
L 442.623178 290.847673 
z
" clip-path="url(#pda5caa6b48)" style="fill: #d62728; fill-opacity: 0.8; stroke: #d62728; stroke-opacity: 0.8; stroke-width: 0.3"/>
    <path d="M 444.851669 343.933363 
L 446.43174 343.933363 
L 446.43174 342.353293 
L 448.01181 342.353293 
L 448.01181 340.773222 
L 446.43174 340.773222 
L 446.43174 339.193152 
L 444.851669 339.193152 
L 444.851669 340.773222 
L 443.271599 340.773222 
L 443.271599 342.353293 
L 444.851669 342.353293 
z
" clip-path="url(#pda5caa6b48)" style="fill: #d62728; fill-opacity: 0.8; stroke: #d62728; stroke-opacity: 0.8; stroke-width: 0.3"/>
    <path d="M 450.015341 301.045124 
L 453.565107 301.045124 
L 453.565107 297.495357 
L 457.114874 297.495357 
L 457.114874 293.945591 
L 453.565107 293.945591 
L 453.565107 290.395824 
L 450.015341 290.395824 
L 450.015341 293.945591 
L 446.465574 293.945591 
L 446.465574 297.495357 
L 450.015341 297.495357 
z
" clip-path="url(#pda5caa6b48)" style="fill: #d62728; fill-opacity: 0.8; stroke: #d62728; stroke-opacity: 0.8; stroke-width: 0.3"/>
    <path d="M 440.37282 291.233959 
L 442.694237 291.233959 
L 442.694237 288.912542 
L 445.015654 288.912542 
L 445.015654 286.591125 
L 442.694237 286.591125 
L 442.694237 284.269708 
L 440.37282 284.269708 
L 440.37282 286.591125 
L 438.051403 286.591125 
L 438.051403 288.912542 
L 440.37282 288.912542 
z
" clip-path="url(#pda5caa6b48)" style="fill: #d62728; fill-opacity: 0.8; stroke: #d62728; stroke-opacity: 0.8; stroke-width: 0.3"/>
    <path d="M 449.35188 312.299025 
L 452.326194 312.299025 
L 452.326194 309.324711 
L 455.300509 309.324711 
L 455.300509 306.350396 
L 452.326194 306.350396 
L 452.326194 303.376081 
L 449.35188 303.376081 
L 449.35188 306.350396 
L 446.377565 306.350396 
L 446.377565 309.324711 
L 449.35188 309.324711 
z
" clip-path="url(#pda5caa6b48)" style="fill: #d62728; fill-opacity: 0.8; stroke: #d62728; stroke-opacity: 0.8; stroke-width: 0.3"/>
    <path d="M 450.118543 245.420218 
L 451.523418 245.420218 
L 451.523418 244.015343 
L 452.928294 244.015343 
L 452.928294 242.610467 
L 451.523418 242.610467 
L 451.523418 241.205592 
L 450.118543 241.205592 
L 450.118543 242.610467 
L 448.713667 242.610467 
L 448.713667 244.015343 
L 450.118543 244.015343 
z
" clip-path="url(#pda5caa6b48)" style="fill: #d62728; fill-opacity: 0.8; stroke: #d62728; stroke-opacity: 0.8; stroke-width: 0.3"/>
    <path d="M 459.830919 333.698353 
L 461.702162 333.698353 
L 461.702162 331.82711 
L 463.573405 331.82711 
L 463.573405 329.955867 
L 461.702162 329.955867 
L 461.702162 328.084624 
L 459.830919 328.084624 
L 459.830919 329.955867 
L 457.959676 329.955867 
L 457.959676 331.82711 
L 459.830919 331.82711 
z
" clip-path="url(#pda5caa6b48)" style="fill: #d62728; fill-opacity: 0.8; stroke: #d62728; stroke-opacity: 0.8; stroke-width: 0.3"/>
    <path d="M 437.381334 296.602646 
L 439.693712 296.602646 
L 439.693712 294.290267 
L 442.006091 294.290267 
L 442.006091 291.977889 
L 439.693712 291.977889 
L 439.693712 289.66551 
L 437.381334 289.66551 
L 437.381334 291.977889 
L 435.068955 291.977889 
L 435.068955 294.290267 
L 437.381334 294.290267 
z
" clip-path="url(#pda5caa6b48)" style="fill: #d62728; fill-opacity: 0.8; stroke: #d62728; stroke-opacity: 0.8; stroke-width: 0.3"/>
   </g>
   <g id="PathCollection_9">
    <path d="M 474.807801 305.084235 
L 465.129841 305.084235 
L 465.129841 300.402757 
L 474.807801 300.402757 
L 474.807801 305.084235 
z
" clip-path="url(#pda5caa6b48)" style="fill: #1f77b4; fill-opacity: 0.8; stroke: #1f77b4; stroke-opacity: 0.8; stroke-width: 0.3"/>
    <path d="M 490.447422 276.909393 
L 485.530201 276.909393 
L 485.530201 274.530807 
L 490.447422 274.530807 
L 490.447422 276.909393 
z
" clip-path="url(#pda5caa6b48)" style="fill: #1f77b4; fill-opacity: 0.8; stroke: #1f77b4; stroke-opacity: 0.8; stroke-width: 0.3"/>
    <path d="M 467.170807 357.358425 
L 463.444216 357.358425 
L 463.444216 355.555777 
L 467.170807 355.555777 
L 467.170807 357.358425 
z
" clip-path="url(#pda5caa6b48)" style="fill: #1f77b4; fill-opacity: 0.8; stroke: #1f77b4; stroke-opacity: 0.8; stroke-width: 0.3"/>
    <path d="M 489.072813 306.988759 
L 483.18046 306.988759 
L 483.18046 304.138476 
L 489.072813 304.138476 
L 489.072813 306.988759 
z
" clip-path="url(#pda5caa6b48)" style="fill: #1f77b4; fill-opacity: 0.8; stroke: #1f77b4; stroke-opacity: 0.8; stroke-width: 0.3"/>
    <path d="M 464.554663 342.770371 
L 460.232468 342.770371 
L 460.232468 340.679615 
L 464.554663 340.679615 
L 464.554663 342.770371 
z
" clip-path="url(#pda5caa6b48)" style="fill: #1f77b4; fill-opacity: 0.8; stroke: #1f77b4; stroke-opacity: 0.8; stroke-width: 0.3"/>
    <path d="M 477.445868 336.676811 
L 472.899828 336.676811 
L 472.899828 334.477775 
L 477.445868 334.477775 
L 477.445868 336.676811 
z
" clip-path="url(#pda5caa6b48)" style="fill: #1f77b4; fill-opacity: 0.8; stroke: #1f77b4; stroke-opacity: 0.8; stroke-width: 0.3"/>
    <path d="M 466.586938 358.746225 
L 462.903657 358.746225 
L 462.903657 356.964527 
L 466.586938 356.964527 
L 466.586938 358.746225 
z
" clip-path="url(#pda5caa6b48)" style="fill: #1f77b4; fill-opacity: 0.8; stroke: #1f77b4; stroke-opacity: 0.8; stroke-width: 0.3"/>
   </g>
   <g id="PathCollection_10">
    <g clip-path="url(#pda5caa6b48)">
     <use xlink:href="#mc538506c86" x="460.994754" y="299.058783" style="fill: #d62728; fill-opacity: 0.9; stroke: #2ca02c; stroke-opacity: 0.9; stroke-width: 2"/>
    </g>
   </g>
  </g>
 </g>
 <defs>
  <clipPath id="pf12afb10e3">
   <rect x="7.2" y="7.2" width="343.8" height="183.584659"/>
  </clipPath>
  <clipPath id="p92940831d8">
   <rect x="361.8" y="7.2" width="343.8" height="183.584659"/>
  </clipPath>
  <clipPath id="p78d1121ebf">
   <rect x="7.2" y="217.8" width="343.8" height="183.584659"/>
  </clipPath>
  <clipPath id="pda5caa6b48">
   <rect x="361.8" y="217.8" width="343.8" height="183.584659"/>
  </clipPath>
 </defs>
</svg>
