<?xml version="1.0" encoding="utf-8" standalone="no"?>
<!DOCTYPE svg PUBLIC "-//W3C//DTD SVG 1.1//EN"
  "http://www.w3.org/Graphics/SVG/1.1/DTD/svg11.dtd">
<svg xmlns:xlink="http://www.w3.org/1999/xlink" width="712.8pt" height="425.517438pt" viewBox="0 0 712.8 425.517438" xmlns="http://www.w3.org/2000/svg" version="1.1">
 <metadata>
  <rdf:RDF xmlns:dc="http://purl.org/dc/elements/1.1/" xmlns:cc="http://creativecommons.org/ns#" xmlns:rdf="http://www.w3.org/1999/02/22-rdf-syntax-ns#">
   <cc:Work>
    <dc:type rdf:resource="http://purl.org/dc/dcmitype/StillImage"/>
    <dc:date>2022-07-10T23:02:47.189836</dc:date>
    <dc:format>image/svg+xml</dc:format>
    <dc:creator>
     <cc:Agent>
      <dc:title>Matplotlib v3.5.2, https://matplotlib.org/</dc:title>
     </cc:Agent>
    </dc:creator>
   </cc:Work>
  </rdf:RDF>
 </metadata>
 <defs>
  <style type="text/css">*{stroke-linejoin: round; stroke-linecap: butt}</style>
 </defs>
 <g id="figure_1">
  <g id="patch_1">
   <path d="M 0 425.517438 
L 712.8 425.517438 
L 712.8 0 
L 0 0 
L 0 425.517438 
z
" style="fill: none"/>
  </g>
  <g id="axes_1">
   <g id="patch_2">
    <path d="M 7.2 190.976408 
L 351 190.976408 
L 351 7.2 
L 7.2 7.2 
z
" style="fill: #eaeaf2"/>
   </g>
   <g id="matplotlib.axis_1"/>
   <g id="matplotlib.axis_2"/>
   <g id="patch_3">
    <path d="M -1.817705 199.010349 
L 370.162623 199.010349 
L 370.162623 -1.838184 
L -1.817705 -1.838184 
z
" clip-path="url(#p79c6529c3a)" style="fill: #0000ff; opacity: 0.1"/>
   </g>
   <g id="patch_4">
    <path d="M 9.454426 28.289096 
L 10.668266 29.275922 
L 12.084992 30.195852 
L 13.690394 31.053572 
L 15.470265 31.853766 
L 17.410395 32.60112 
L 19.496574 33.300318 
L 21.714595 33.956045 
L 24.050247 34.572987 
L 26.489323 35.155828 
L 29.017612 35.709254 
L 31.620907 36.237949 
L 34.284998 36.746598 
L 36.995675 37.239887 
L 39.738731 37.7225 
L 42.499955 38.199122 
L 45.26514 38.674439 
L 48.020076 39.153134 
L 50.750553 39.639895 
L 53.442364 40.139404 
L 56.081299 40.656348 
L 58.653149 41.195411 
L 61.143705 41.761278 
L 63.538758 42.358634 
L 65.824099 42.992165 
L 67.985519 43.666554 
L 70.008809 44.386488 
L 71.879761 45.156651 
L 73.584164 45.981728 
L 75.107811 46.866405 
L 76.436491 47.815365 
L 77.556331 48.833199 
L 78.463701 49.921548 
L 79.166871 51.078633 
L 79.674779 52.302481 
L 79.996365 53.591122 
L 80.140568 54.942584 
L 80.116325 56.354893 
L 79.932576 57.826079 
L 79.598259 59.354169 
L 79.122314 60.937192 
L 78.513678 62.573176 
L 77.781291 64.260149 
L 76.934091 65.996139 
L 75.981017 67.779173 
L 74.931008 69.607281 
L 73.793002 71.478491 
L 72.575939 73.390829 
L 71.288756 75.342325 
L 69.940393 77.331007 
L 68.539788 79.354903 
L 67.095881 81.412041 
L 65.617609 83.500448 
L 64.113911 85.618154 
L 62.593727 87.763186 
L 61.065995 89.933572 
L 59.539653 92.12734 
L 58.023641 94.342519 
L 56.526897 96.577137 
L 55.05836 98.829222 
L 53.626968 101.096801 
L 52.241661 103.377904 
L 50.911376 105.670557 
L 49.645054 107.97279 
L 48.451631 110.28263 
L 47.340048 112.598106 
L 46.319243 114.917245 
L 45.398154 117.238075 
L 44.585721 119.558626 
L 43.890881 121.876924 
L 43.322575 124.190999 
L 42.88974 126.498877 
L 42.601315 128.798588 
L 42.466239 131.088159 
L 42.49345 133.365619 
L 42.691888 135.628995 
L 43.070491 137.876315 
L 43.637403 140.10538 
L 44.389173 142.310652 
L 45.313577 144.484069 
L 46.398174 146.617508 
L 47.630521 148.702844 
L 48.998178 150.731953 
L 50.488703 152.696712 
L 52.089655 154.588995 
L 53.788592 156.40068 
L 55.573073 158.123641 
L 57.430655 159.749756 
L 59.348899 161.270899 
L 61.315363 162.678947 
L 63.317604 163.965775 
L 65.343182 165.12326 
L 67.379655 166.143278 
L 69.414581 167.017704 
L 71.43552 167.738414 
L 73.430029 168.297284 
L 75.385668 168.686191 
L 77.289997 168.897013 
L 79.133657 168.924707 
L 80.916224 168.773168 
L 82.638886 168.447904 
L 84.302832 167.954422 
L 85.90925 167.29823 
L 87.459328 166.484834 
L 88.954256 165.519742 
L 90.395222 164.408462 
L 91.783413 163.1565 
L 93.12002 161.769364 
L 94.40623 160.252562 
L 95.643232 158.611601 
L 96.832214 156.851988 
L 97.974365 154.97923 
L 99.070873 152.998835 
L 100.122927 150.916311 
L 101.131715 148.737164 
L 102.098426 146.466901 
L 103.024249 144.111031 
L 103.910371 141.675061 
L 104.757982 139.164498 
L 105.56827 136.584849 
L 106.342423 133.941621 
L 107.08163 131.240323 
L 107.78708 128.486461 
L 108.45996 125.685543 
L 109.10146 122.843075 
L 109.712768 119.964566 
L 110.295073 117.055523 
L 110.849562 114.121453 
L 111.377425 111.167864 
L 111.87985 108.200262 
L 112.358025 105.224155 
L 112.81314 102.245051 
L 113.246382 99.268457 
L 113.65894 96.29988 
L 114.052002 93.344827 
L 114.426758 90.408807 
L 114.784395 87.497326 
L 115.126102 84.615891 
L 115.453068 81.77001 
L 115.766481 78.965191 
L 116.06753 76.20694 
L 116.357403 73.500765 
L 116.637288 70.852174 
L 116.908375 68.266673 
L 117.171851 65.74977 
L 117.428905 63.306973 
L 117.680726 60.943788 
L 117.928502 58.665724 
L 118.173422 56.478287 
L 118.416675 54.386985 
L 118.659448 52.397325 
L 118.90293 50.514815 
L 119.14831 48.744961 
L 119.396776 47.093272 
L 119.649517 45.565254 
L 119.907721 44.166415 
L 120.172577 42.902262 
L 120.445273 41.778303 
L 120.726998 40.800045 
L 121.018941 39.972995 
L 121.322289 39.302661 
L 121.638232 38.79455 
L 121.967957 38.45417 
L 122.312644 38.28692 
L 122.673082 38.293865 
L 123.049543 38.470307 
L 123.442261 38.811154 
L 123.851474 39.311311 
L 124.277416 39.965685 
L 124.720323 40.769183 
L 125.180432 41.71671 
L 125.657977 42.803172 
L 126.153195 44.023478 
L 126.666321 45.372531 
L 127.197592 46.84524 
L 127.747242 48.43651 
L 128.315508 50.141248 
L 128.902626 51.95436 
L 129.508831 53.870752 
L 130.134359 55.885331 
L 130.779445 57.993004 
L 131.444326 60.188675 
L 132.129237 62.467253 
L 132.834414 64.823642 
L 133.560093 67.252751 
L 134.306509 69.749484 
L 135.073899 72.308748 
L 135.862497 74.92545 
L 136.672541 77.594496 
L 137.504265 80.310792 
L 138.357905 83.069245 
L 139.233697 85.864761 
L 140.131877 88.692246 
L 141.052681 91.546607 
L 141.996343 94.42275 
L 142.963102 97.315582 
L 143.95319 100.220008 
L 144.966846 103.130935 
L 146.004304 106.04327 
L 147.0658 108.951919 
L 148.151569 111.851788 
L 149.261849 114.737783 
L 150.396874 117.604812 
L 151.55688 120.447779 
L 152.742102 123.261593 
L 153.952778 126.041158 
L 155.189142 128.781381 
L 156.45143 131.47717 
L 157.739878 134.123429 
L 159.054722 136.715066 
L 160.396197 139.246986 
L 161.76454 141.714096 
L 163.159985 144.111303 
L 164.582769 146.433513 
L 166.033128 148.675632 
L 167.511297 150.832566 
L 169.017512 152.899223 
L 170.552009 154.870507 
L 172.115023 156.741326 
L 173.70679 158.506586 
L 175.327547 160.161193 
L 176.977528 161.700054 
L 178.65697 163.118075 
L 180.366108 164.410162 
L 182.105179 165.571222 
L 183.874417 166.596161 
L 185.674059 167.479885 
L 187.50434 168.217301 
L 189.365496 168.803315 
L 191.257763 169.232834 
L 193.181377 169.500763 
L 195.136573 169.60201 
L 197.123587 169.53148 
L 199.142655 169.28408 
L 201.194012 168.854717 
L 203.275893 168.241304 
L 205.379732 167.451961 
L 207.495525 166.496974 
L 209.613268 165.386628 
L 211.722956 164.131207 
L 213.814584 162.740995 
L 215.878147 161.226279 
L 217.903641 159.597341 
L 219.881061 157.864468 
L 221.800402 156.037944 
L 223.651659 154.128053 
L 225.424828 152.145081 
L 227.109904 150.099312 
L 228.696882 148.001031 
L 230.175758 145.860523 
L 231.536526 143.688072 
L 232.769183 141.493963 
L 233.863722 139.288482 
L 234.810141 137.081912 
L 235.598433 134.884539 
L 236.218594 132.706647 
L 236.66062 130.558521 
L 236.914505 128.450446 
L 236.970245 126.392706 
L 236.817835 124.395587 
L 236.447271 122.469373 
L 235.848548 120.624348 
L 235.01166 118.870799 
L 233.930261 117.216891 
L 232.618882 115.658704 
L 231.099454 114.188034 
L 229.393917 112.796671 
L 227.524211 111.476404 
L 225.512274 110.219025 
L 223.380047 109.016323 
L 221.149469 107.860089 
L 218.842479 106.742113 
L 216.481018 105.654186 
L 214.087025 104.588097 
L 211.682438 103.535638 
L 209.289199 102.488597 
L 206.929247 101.438767 
L 204.62452 100.377936 
L 202.396959 99.297895 
L 200.268503 98.190435 
L 198.261092 97.047346 
L 196.396665 95.860418 
L 194.697162 94.621441 
L 193.184523 93.322206 
L 191.880686 91.954503 
L 190.807592 90.510123 
L 189.987181 88.980855 
L 189.4391 87.35972 
L 189.161278 85.65141 
L 189.139652 83.867058 
L 189.360035 82.017864 
L 189.808237 80.115028 
L 190.470073 78.16975 
L 191.331352 76.193231 
L 192.377888 74.196672 
L 193.595493 72.191272 
L 194.969978 70.188232 
L 196.487156 68.198752 
L 198.132839 66.234033 
L 199.892838 64.305275 
L 201.752967 62.423678 
L 203.699036 60.600442 
L 205.716859 58.846768 
L 207.792246 57.173857 
L 209.911011 55.592908 
L 212.058965 54.115122 
L 214.22192 52.751699 
L 216.385688 51.513839 
L 218.536082 50.412743 
L 220.658913 49.459612 
L 222.739994 48.665645 
L 224.765607 48.041572 
L 226.730082 47.590055 
L 228.63451 47.306983 
L 230.480191 47.188034 
L 232.268425 47.228886 
L 234.000513 47.425218 
L 235.677755 47.772707 
L 237.30145 48.267032 
L 238.872899 48.903871 
L 240.393402 49.678902 
L 241.864259 50.587803 
L 243.28677 51.626253 
L 244.662236 52.789929 
L 245.991957 54.07451 
L 247.277233 55.475675 
L 248.519363 56.9891 
L 249.719649 58.610465 
L 250.87939 60.335447 
L 251.999886 62.159725 
L 253.082438 64.078977 
L 254.128345 66.088881 
L 255.138909 68.185115 
L 256.115428 70.363358 
L 257.059204 72.619287 
L 257.971536 74.948581 
L 258.853725 77.346918 
L 259.70707 79.809976 
L 260.532872 82.333434 
L 261.332431 84.912969 
L 262.107047 87.54426 
L 262.85802 90.222984 
L 263.586651 92.944821 
L 264.29424 95.705448 
L 264.982086 98.500543 
L 265.65149 101.325784 
L 266.303752 104.176851 
L 266.940172 107.04942 
L 267.562051 109.939171 
L 268.170688 112.841781 
L 268.767384 115.752928 
L 269.353438 118.668291 
L 269.930152 121.583547 
L 270.498825 124.494376 
L 271.060757 127.396455 
L 271.617248 130.285462 
L 272.169599 133.157076 
L 272.71911 136.006974 
L 273.267081 138.830836 
L 273.814812 141.624338 
L 274.363603 144.38316 
L 274.914754 147.102979 
L 275.469566 149.779473 
L 276.029338 152.408322 
L 276.595372 154.985202 
L 277.168966 157.505793 
L 277.751422 159.965772 
L 278.344038 162.360817 
L 278.948117 164.686607 
L 279.564956 166.93882 
L 280.195858 169.113134 
L 280.842121 171.205227 
L 281.505047 173.210777 
L 282.185935 175.125463 
L 282.886085 176.944963 
L 283.606797 178.664955 
L 284.349373 180.281116 
L 285.115111 181.789126 
L 285.905312 183.184663 
L 286.721276 184.463404 
L 287.564304 185.621028 
L 288.435695 186.653213 
L 289.33675 187.555637 
L 290.268768 188.323978 
L 291.23305 188.953915 
L 292.230428 189.442265 
L 293.259714 189.790763 
L 294.319173 190.002467 
L 295.407074 190.080437 
L 296.521683 190.027731 
L 297.661267 189.847409 
L 298.824094 189.54253 
L 300.00843 189.116152 
L 301.212542 188.571336 
L 302.434697 187.911139 
L 303.673163 187.138622 
L 304.926206 186.256843 
L 306.192093 185.268861 
L 307.469092 184.177735 
L 308.755469 182.986525 
L 310.04949 181.69829 
L 311.349425 180.316088 
L 312.653538 178.842979 
L 313.960098 177.282022 
L 315.267371 175.636275 
L 316.573624 173.908799 
L 317.877124 172.102652 
L 319.176139 170.220893 
L 320.468935 168.266581 
L 321.753779 166.242775 
L 323.028939 164.152535 
L 324.29268 161.998919 
L 325.543271 159.784987 
L 326.778978 157.513798 
L 327.998069 155.18841 
L 329.198809 152.811884 
L 330.379467 150.387277 
L 331.538309 147.917649 
L 332.673602 145.406059 
L 333.783614 142.855567 
L 334.86661 140.269231 
L 335.920859 137.65011 
L 336.944627 135.001264 
L 337.936181 132.325751 
L 338.893789 129.626631 
L 339.815717 126.906962 
L 340.700232 124.169805 
L 341.545601 121.418217 
L 342.350091 118.655258 
L 343.11197 115.883988 
L 343.829503 113.107464 
L 344.500959 110.328747 
L 345.124604 107.550895 
L 345.698706 104.776968 
L 346.22153 102.010024 
L 346.691345 99.253122 
L 347.106417 96.509323 
L 347.465013 93.781684 
L 347.7654 91.073265 
L 348.005846 88.387125 
L 348.184617 85.726323 
L 348.299979 83.093918 
L 348.350201 80.492969 
L 348.33355 77.926535 
L 348.248291 75.397676 
L 348.092693 72.909451 
L 347.865021 70.464917 
L 347.563547 68.067134 
L 347.18731 65.718325 
L 346.737261 63.41867 
L 346.214633 61.168038 
L 345.620665 58.966297 
L 344.956592 56.813315 
L 344.223649 54.708962 
L 343.423074 52.653106 
L 342.556102 50.645615 
L 341.623969 48.686359 
L 340.627912 46.775206 
L 339.569167 44.912025 
L 338.44897 43.096684 
L 337.268557 41.329052 
L 336.029164 39.608998 
L 334.732027 37.936389 
L 333.378383 36.311096 
L 331.969468 34.732986 
L 330.506517 33.201929 
L 328.990767 31.717793 
L 327.423455 30.280446 
L 325.805815 28.889757 
L 324.139085 27.545595 
L 322.4245 26.247828 
L 320.663297 24.996326 
L 318.856712 23.790957 
L 317.005981 22.631589 
L 315.11234 21.518091 
L 313.177025 20.450332 
L 311.201272 19.42818 
L 309.186318 18.451504 
L 307.133399 17.520173 
L 305.04375 16.634056 
L 302.918608 15.79302 
L 300.75921 14.996936 
L 298.56679 14.24567 
L 296.342587 13.539093 
L 294.087834 12.877072 
L 291.803769 12.259477 
L 289.491629 11.686175 
L 287.152648 11.157036 
L 284.788063 10.671928 
L 282.39911 10.230721 
L 279.987026 9.833282 
L 277.553047 9.47948 
L 275.098408 9.169184 
L 272.624346 8.902262 
L 270.132097 8.678584 
L 267.622897 8.498017 
L 265.097982 8.360431 
L 262.558589 8.265694 
L 260.005953 8.213675 
L 257.441311 8.204243 
z
" clip-path="url(#p79c6529c3a)" style="fill: #ff0000; opacity: 0.2; stroke: #ff0000; stroke-width: 0.3; stroke-linejoin: miter"/>
   </g>
   <g id="patch_5">
    <path d="M 72.578361 118.670936 
L 140.211148 118.670936 
L 140.211148 58.416376 
L 72.578361 58.416376 
z
" clip-path="url(#p79c6529c3a)" style="fill: #808080; opacity: 0.5"/>
   </g>
   <g id="line2d_1">
    <path d="M 95.122623 209.052776 
L 125.557377 8.204243 
" clip-path="url(#p79c6529c3a)" style="fill: none; stroke-dasharray: 11.1,4.8; stroke-dashoffset: 0; stroke: #000000; stroke-opacity: 0.7; stroke-width: 3"/>
   </g>
   <g id="patch_6">
    <path d="M 7.2 190.976408 
L 7.2 7.2 
" style="fill: none"/>
   </g>
   <g id="patch_7">
    <path d="M 351 190.976408 
L 351 7.2 
" style="fill: none"/>
   </g>
   <g id="patch_8">
    <path d="M 7.2 190.976408 
L 351 190.976408 
" style="fill: none"/>
   </g>
   <g id="patch_9">
    <path d="M 7.2 7.2 
L 351 7.2 
" style="fill: none"/>
   </g>
   <g id="text_1">
    <!-- (a) Data subspace (data local). -->
    <g style="fill: #262626" transform="translate(97.065937 205.191813)scale(0.12 -0.12)">
     <defs>
      <path id="ArialMT-28" d="M 1497 -1347 
Q 1031 -759 709 28 
Q 388 816 388 1659 
Q 388 2403 628 3084 
Q 909 3875 1497 4659 
L 1900 4659 
Q 1522 4009 1400 3731 
Q 1209 3300 1100 2831 
Q 966 2247 966 1656 
Q 966 153 1900 -1347 
L 1497 -1347 
z
" transform="scale(0.015625)"/>
      <path id="ArialMT-61" d="M 2588 409 
Q 2275 144 1986 34 
Q 1697 -75 1366 -75 
Q 819 -75 525 192 
Q 231 459 231 875 
Q 231 1119 342 1320 
Q 453 1522 633 1644 
Q 813 1766 1038 1828 
Q 1203 1872 1538 1913 
Q 2219 1994 2541 2106 
Q 2544 2222 2544 2253 
Q 2544 2597 2384 2738 
Q 2169 2928 1744 2928 
Q 1347 2928 1158 2789 
Q 969 2650 878 2297 
L 328 2372 
Q 403 2725 575 2942 
Q 747 3159 1072 3276 
Q 1397 3394 1825 3394 
Q 2250 3394 2515 3294 
Q 2781 3194 2906 3042 
Q 3031 2891 3081 2659 
Q 3109 2516 3109 2141 
L 3109 1391 
Q 3109 606 3145 398 
Q 3181 191 3288 0 
L 2700 0 
Q 2613 175 2588 409 
z
M 2541 1666 
Q 2234 1541 1622 1453 
Q 1275 1403 1131 1340 
Q 988 1278 909 1158 
Q 831 1038 831 891 
Q 831 666 1001 516 
Q 1172 366 1500 366 
Q 1825 366 2078 508 
Q 2331 650 2450 897 
Q 2541 1088 2541 1459 
L 2541 1666 
z
" transform="scale(0.015625)"/>
      <path id="ArialMT-29" d="M 791 -1347 
L 388 -1347 
Q 1322 153 1322 1656 
Q 1322 2244 1188 2822 
Q 1081 3291 891 3722 
Q 769 4003 388 4659 
L 791 4659 
Q 1378 3875 1659 3084 
Q 1900 2403 1900 1659 
Q 1900 816 1576 28 
Q 1253 -759 791 -1347 
z
" transform="scale(0.015625)"/>
      <path id="ArialMT-20" transform="scale(0.015625)"/>
      <path id="ArialMT-44" d="M 494 0 
L 494 4581 
L 2072 4581 
Q 2606 4581 2888 4516 
Q 3281 4425 3559 4188 
Q 3922 3881 4101 3404 
Q 4281 2928 4281 2316 
Q 4281 1794 4159 1391 
Q 4038 988 3847 723 
Q 3656 459 3429 307 
Q 3203 156 2883 78 
Q 2563 0 2147 0 
L 494 0 
z
M 1100 541 
L 2078 541 
Q 2531 541 2789 625 
Q 3047 709 3200 863 
Q 3416 1078 3536 1442 
Q 3656 1806 3656 2325 
Q 3656 3044 3420 3430 
Q 3184 3816 2847 3947 
Q 2603 4041 2063 4041 
L 1100 4041 
L 1100 541 
z
" transform="scale(0.015625)"/>
      <path id="ArialMT-74" d="M 1650 503 
L 1731 6 
Q 1494 -44 1306 -44 
Q 1000 -44 831 53 
Q 663 150 594 308 
Q 525 466 525 972 
L 525 2881 
L 113 2881 
L 113 3319 
L 525 3319 
L 525 4141 
L 1084 4478 
L 1084 3319 
L 1650 3319 
L 1650 2881 
L 1084 2881 
L 1084 941 
Q 1084 700 1114 631 
Q 1144 563 1211 522 
Q 1278 481 1403 481 
Q 1497 481 1650 503 
z
" transform="scale(0.015625)"/>
      <path id="ArialMT-73" d="M 197 991 
L 753 1078 
Q 800 744 1014 566 
Q 1228 388 1613 388 
Q 2000 388 2187 545 
Q 2375 703 2375 916 
Q 2375 1106 2209 1216 
Q 2094 1291 1634 1406 
Q 1016 1563 777 1677 
Q 538 1791 414 1992 
Q 291 2194 291 2438 
Q 291 2659 392 2848 
Q 494 3038 669 3163 
Q 800 3259 1026 3326 
Q 1253 3394 1513 3394 
Q 1903 3394 2198 3281 
Q 2494 3169 2634 2976 
Q 2775 2784 2828 2463 
L 2278 2388 
Q 2241 2644 2061 2787 
Q 1881 2931 1553 2931 
Q 1166 2931 1000 2803 
Q 834 2675 834 2503 
Q 834 2394 903 2306 
Q 972 2216 1119 2156 
Q 1203 2125 1616 2013 
Q 2213 1853 2448 1751 
Q 2684 1650 2818 1456 
Q 2953 1263 2953 975 
Q 2953 694 2789 445 
Q 2625 197 2315 61 
Q 2006 -75 1616 -75 
Q 969 -75 630 194 
Q 291 463 197 991 
z
" transform="scale(0.015625)"/>
      <path id="ArialMT-75" d="M 2597 0 
L 2597 488 
Q 2209 -75 1544 -75 
Q 1250 -75 995 37 
Q 741 150 617 320 
Q 494 491 444 738 
Q 409 903 409 1263 
L 409 3319 
L 972 3319 
L 972 1478 
Q 972 1038 1006 884 
Q 1059 663 1231 536 
Q 1403 409 1656 409 
Q 1909 409 2131 539 
Q 2353 669 2445 892 
Q 2538 1116 2538 1541 
L 2538 3319 
L 3100 3319 
L 3100 0 
L 2597 0 
z
" transform="scale(0.015625)"/>
      <path id="ArialMT-62" d="M 941 0 
L 419 0 
L 419 4581 
L 981 4581 
L 981 2947 
Q 1338 3394 1891 3394 
Q 2197 3394 2470 3270 
Q 2744 3147 2920 2923 
Q 3097 2700 3197 2384 
Q 3297 2069 3297 1709 
Q 3297 856 2875 390 
Q 2453 -75 1863 -75 
Q 1275 -75 941 416 
L 941 0 
z
M 934 1684 
Q 934 1088 1097 822 
Q 1363 388 1816 388 
Q 2184 388 2453 708 
Q 2722 1028 2722 1663 
Q 2722 2313 2464 2622 
Q 2206 2931 1841 2931 
Q 1472 2931 1203 2611 
Q 934 2291 934 1684 
z
" transform="scale(0.015625)"/>
      <path id="ArialMT-70" d="M 422 -1272 
L 422 3319 
L 934 3319 
L 934 2888 
Q 1116 3141 1344 3267 
Q 1572 3394 1897 3394 
Q 2322 3394 2647 3175 
Q 2972 2956 3137 2557 
Q 3303 2159 3303 1684 
Q 3303 1175 3120 767 
Q 2938 359 2589 142 
Q 2241 -75 1856 -75 
Q 1575 -75 1351 44 
Q 1128 163 984 344 
L 984 -1272 
L 422 -1272 
z
M 931 1641 
Q 931 1000 1190 694 
Q 1450 388 1819 388 
Q 2194 388 2461 705 
Q 2728 1022 2728 1688 
Q 2728 2322 2467 2637 
Q 2206 2953 1844 2953 
Q 1484 2953 1207 2617 
Q 931 2281 931 1641 
z
" transform="scale(0.015625)"/>
      <path id="ArialMT-63" d="M 2588 1216 
L 3141 1144 
Q 3050 572 2676 248 
Q 2303 -75 1759 -75 
Q 1078 -75 664 370 
Q 250 816 250 1647 
Q 250 2184 428 2587 
Q 606 2991 970 3192 
Q 1334 3394 1763 3394 
Q 2303 3394 2647 3120 
Q 2991 2847 3088 2344 
L 2541 2259 
Q 2463 2594 2264 2762 
Q 2066 2931 1784 2931 
Q 1359 2931 1093 2626 
Q 828 2322 828 1663 
Q 828 994 1084 691 
Q 1341 388 1753 388 
Q 2084 388 2306 591 
Q 2528 794 2588 1216 
z
" transform="scale(0.015625)"/>
      <path id="ArialMT-65" d="M 2694 1069 
L 3275 997 
Q 3138 488 2766 206 
Q 2394 -75 1816 -75 
Q 1088 -75 661 373 
Q 234 822 234 1631 
Q 234 2469 665 2931 
Q 1097 3394 1784 3394 
Q 2450 3394 2872 2941 
Q 3294 2488 3294 1666 
Q 3294 1616 3291 1516 
L 816 1516 
Q 847 969 1125 678 
Q 1403 388 1819 388 
Q 2128 388 2347 550 
Q 2566 713 2694 1069 
z
M 847 1978 
L 2700 1978 
Q 2663 2397 2488 2606 
Q 2219 2931 1791 2931 
Q 1403 2931 1139 2672 
Q 875 2413 847 1978 
z
" transform="scale(0.015625)"/>
      <path id="ArialMT-64" d="M 2575 0 
L 2575 419 
Q 2259 -75 1647 -75 
Q 1250 -75 917 144 
Q 584 363 401 755 
Q 219 1147 219 1656 
Q 219 2153 384 2558 
Q 550 2963 881 3178 
Q 1213 3394 1622 3394 
Q 1922 3394 2156 3267 
Q 2391 3141 2538 2938 
L 2538 4581 
L 3097 4581 
L 3097 0 
L 2575 0 
z
M 797 1656 
Q 797 1019 1065 703 
Q 1334 388 1700 388 
Q 2069 388 2326 689 
Q 2584 991 2584 1609 
Q 2584 2291 2321 2609 
Q 2059 2928 1675 2928 
Q 1300 2928 1048 2622 
Q 797 2316 797 1656 
z
" transform="scale(0.015625)"/>
      <path id="ArialMT-6c" d="M 409 0 
L 409 4581 
L 972 4581 
L 972 0 
L 409 0 
z
" transform="scale(0.015625)"/>
      <path id="ArialMT-6f" d="M 213 1659 
Q 213 2581 725 3025 
Q 1153 3394 1769 3394 
Q 2453 3394 2887 2945 
Q 3322 2497 3322 1706 
Q 3322 1066 3130 698 
Q 2938 331 2570 128 
Q 2203 -75 1769 -75 
Q 1072 -75 642 372 
Q 213 819 213 1659 
z
M 791 1659 
Q 791 1022 1069 705 
Q 1347 388 1769 388 
Q 2188 388 2466 706 
Q 2744 1025 2744 1678 
Q 2744 2294 2464 2611 
Q 2184 2928 1769 2928 
Q 1347 2928 1069 2612 
Q 791 2297 791 1659 
z
" transform="scale(0.015625)"/>
      <path id="ArialMT-2e" d="M 581 0 
L 581 641 
L 1222 641 
L 1222 0 
L 581 0 
z
" transform="scale(0.015625)"/>
     </defs>
     <use xlink:href="#ArialMT-28"/>
     <use xlink:href="#ArialMT-61" x="33.300781"/>
     <use xlink:href="#ArialMT-29" x="88.916016"/>
     <use xlink:href="#ArialMT-20" x="122.216797"/>
     <use xlink:href="#ArialMT-44" x="150"/>
     <use xlink:href="#ArialMT-61" x="222.216797"/>
     <use xlink:href="#ArialMT-74" x="277.832031"/>
     <use xlink:href="#ArialMT-61" x="305.615234"/>
     <use xlink:href="#ArialMT-20" x="361.230469"/>
     <use xlink:href="#ArialMT-73" x="389.013672"/>
     <use xlink:href="#ArialMT-75" x="439.013672"/>
     <use xlink:href="#ArialMT-62" x="494.628906"/>
     <use xlink:href="#ArialMT-73" x="550.244141"/>
     <use xlink:href="#ArialMT-70" x="600.244141"/>
     <use xlink:href="#ArialMT-61" x="655.859375"/>
     <use xlink:href="#ArialMT-63" x="711.474609"/>
     <use xlink:href="#ArialMT-65" x="761.474609"/>
     <use xlink:href="#ArialMT-20" x="817.089844"/>
     <use xlink:href="#ArialMT-28" x="844.873047"/>
     <use xlink:href="#ArialMT-64" x="878.173828"/>
     <use xlink:href="#ArialMT-61" x="933.789062"/>
     <use xlink:href="#ArialMT-74" x="989.404297"/>
     <use xlink:href="#ArialMT-61" x="1017.1875"/>
     <use xlink:href="#ArialMT-20" x="1072.802734"/>
     <use xlink:href="#ArialMT-6c" x="1100.585938"/>
     <use xlink:href="#ArialMT-6f" x="1122.802734"/>
     <use xlink:href="#ArialMT-63" x="1178.417969"/>
     <use xlink:href="#ArialMT-61" x="1228.417969"/>
     <use xlink:href="#ArialMT-6c" x="1284.033203"/>
     <use xlink:href="#ArialMT-29" x="1306.25"/>
     <use xlink:href="#ArialMT-2e" x="1339.550781"/>
    </g>
   </g>
  </g>
  <g id="axes_2">
   <g id="patch_10">
    <path d="M 361.8 190.976408 
L 705.6 190.976408 
L 705.6 7.2 
L 361.8 7.2 
z
" style="fill: #eaeaf2"/>
   </g>
   <g id="matplotlib.axis_3"/>
   <g id="matplotlib.axis_4"/>
   <g id="patch_11">
    <path d="M 352.782295 199.010349 
L 724.762623 199.010349 
L 724.762623 -1.838184 
L 352.782295 -1.838184 
z
" clip-path="url(#pa8bdee7818)" style="fill: #0000ff; opacity: 0.1"/>
   </g>
   <g id="patch_12">
    <path d="M 364.054426 28.289096 
L 365.268266 29.275922 
L 366.684992 30.195852 
L 368.290394 31.053572 
L 370.070265 31.853766 
L 372.010395 32.60112 
L 374.096574 33.300318 
L 376.314595 33.956045 
L 378.650247 34.572987 
L 381.089323 35.155828 
L 383.617612 35.709254 
L 386.220907 36.237949 
L 388.884998 36.746598 
L 391.595675 37.239887 
L 394.338731 37.7225 
L 397.099955 38.199122 
L 399.86514 38.674439 
L 402.620076 39.153134 
L 405.350553 39.639895 
L 408.042364 40.139404 
L 410.681299 40.656348 
L 413.253149 41.195411 
L 415.743705 41.761278 
L 418.138758 42.358634 
L 420.424099 42.992165 
L 422.585519 43.666554 
L 424.608809 44.386488 
L 426.479761 45.156651 
L 428.184164 45.981728 
L 429.707811 46.866405 
L 431.036491 47.815365 
L 432.156331 48.833199 
L 433.063701 49.921548 
L 433.766871 51.078633 
L 434.274779 52.302481 
L 434.596365 53.591122 
L 434.740568 54.942584 
L 434.716325 56.354893 
L 434.532576 57.826079 
L 434.198259 59.354169 
L 433.722314 60.937192 
L 433.113678 62.573176 
L 432.381291 64.260149 
L 431.534091 65.996139 
L 430.581017 67.779173 
L 429.531008 69.607281 
L 428.393002 71.478491 
L 427.175939 73.390829 
L 425.888756 75.342325 
L 424.540393 77.331007 
L 423.139788 79.354903 
L 421.695881 81.412041 
L 420.217609 83.500448 
L 418.713911 85.618154 
L 417.193727 87.763186 
L 415.665995 89.933572 
L 414.139653 92.12734 
L 412.623641 94.342519 
L 411.126897 96.577137 
L 409.65836 98.829222 
L 408.226968 101.096801 
L 406.841661 103.377904 
L 405.511376 105.670557 
L 404.245054 107.97279 
L 403.051631 110.28263 
L 401.940048 112.598106 
L 400.919243 114.917245 
L 399.998154 117.238075 
L 399.185721 119.558626 
L 398.490881 121.876924 
L 397.922575 124.190999 
L 397.48974 126.498877 
L 397.201315 128.798588 
L 397.066239 131.088159 
L 397.09345 133.365619 
L 397.291888 135.628995 
L 397.670491 137.876315 
L 398.237403 140.10538 
L 398.989173 142.310652 
L 399.913577 144.484069 
L 400.998174 146.617508 
L 402.230521 148.702844 
L 403.598178 150.731953 
L 405.088703 152.696712 
L 406.689655 154.588995 
L 408.388592 156.40068 
L 410.173073 158.123641 
L 412.030655 159.749756 
L 413.948899 161.270899 
L 415.915363 162.678947 
L 417.917604 163.965775 
L 419.943182 165.12326 
L 421.979655 166.143278 
L 424.014581 167.017704 
L 426.03552 167.738414 
L 428.030029 168.297284 
L 429.985668 168.686191 
L 431.889997 168.897013 
L 433.733657 168.924707 
L 435.516224 168.773168 
L 437.238886 168.447904 
L 438.902832 167.954422 
L 440.50925 167.29823 
L 442.059328 166.484834 
L 443.554256 165.519742 
L 444.995222 164.408462 
L 446.383413 163.1565 
L 447.72002 161.769364 
L 449.00623 160.252562 
L 450.243232 158.611601 
L 451.432214 156.851988 
L 452.574365 154.97923 
L 453.670873 152.998835 
L 454.722927 150.916311 
L 455.731715 148.737164 
L 456.698426 146.466901 
L 457.624249 144.111031 
L 458.510371 141.675061 
L 459.357982 139.164498 
L 460.16827 136.584849 
L 460.942423 133.941621 
L 461.68163 131.240323 
L 462.38708 128.486461 
L 463.05996 125.685543 
L 463.70146 122.843075 
L 464.312768 119.964566 
L 464.895073 117.055523 
L 465.449562 114.121453 
L 465.977425 111.167864 
L 466.47985 108.200262 
L 466.958025 105.224155 
L 467.41314 102.245051 
L 467.846382 99.268457 
L 468.25894 96.29988 
L 468.652002 93.344827 
L 469.026758 90.408807 
L 469.384395 87.497326 
L 469.726102 84.615891 
L 470.053068 81.77001 
L 470.366481 78.965191 
L 470.66753 76.20694 
L 470.957403 73.500765 
L 471.237288 70.852174 
L 471.508375 68.266673 
L 471.771851 65.74977 
L 472.028905 63.306973 
L 472.280726 60.943788 
L 472.528502 58.665724 
L 472.773422 56.478287 
L 473.016675 54.386985 
L 473.259448 52.397325 
L 473.50293 50.514815 
L 473.74831 48.744961 
L 473.996776 47.093272 
L 474.249517 45.565254 
L 474.507721 44.166415 
L 474.772577 42.902262 
L 475.045273 41.778303 
L 475.326998 40.800045 
L 475.618941 39.972995 
L 475.922289 39.302661 
L 476.238232 38.79455 
L 476.567957 38.45417 
L 476.912644 38.28692 
L 477.273082 38.293865 
L 477.649543 38.470307 
L 478.042261 38.811154 
L 478.451474 39.311311 
L 478.877416 39.965685 
L 479.320323 40.769183 
L 479.780432 41.71671 
L 480.257977 42.803172 
L 480.753195 44.023478 
L 481.266321 45.372531 
L 481.797592 46.84524 
L 482.347242 48.43651 
L 482.915508 50.141248 
L 483.502626 51.95436 
L 484.108831 53.870752 
L 484.734359 55.885331 
L 485.379445 57.993004 
L 486.044326 60.188675 
L 486.729237 62.467253 
L 487.434414 64.823642 
L 488.160093 67.252751 
L 488.906509 69.749484 
L 489.673899 72.308748 
L 490.462497 74.92545 
L 491.272541 77.594496 
L 492.104265 80.310792 
L 492.957905 83.069245 
L 493.833697 85.864761 
L 494.731877 88.692246 
L 495.652681 91.546607 
L 496.596343 94.42275 
L 497.563102 97.315582 
L 498.55319 100.220008 
L 499.566846 103.130935 
L 500.604304 106.04327 
L 501.6658 108.951919 
L 502.751569 111.851788 
L 503.861849 114.737783 
L 504.996874 117.604812 
L 506.15688 120.447779 
L 507.342102 123.261593 
L 508.552778 126.041158 
L 509.789142 128.781381 
L 511.05143 131.47717 
L 512.339878 134.123429 
L 513.654722 136.715066 
L 514.996197 139.246986 
L 516.36454 141.714096 
L 517.759985 144.111303 
L 519.182769 146.433513 
L 520.633128 148.675632 
L 522.111297 150.832566 
L 523.617512 152.899223 
L 525.152009 154.870507 
L 526.715023 156.741326 
L 528.30679 158.506586 
L 529.927547 160.161193 
L 531.577528 161.700054 
L 533.25697 163.118075 
L 534.966108 164.410162 
L 536.705179 165.571222 
L 538.474417 166.596161 
L 540.274059 167.479885 
L 542.10434 168.217301 
L 543.965496 168.803315 
L 545.857763 169.232834 
L 547.781377 169.500763 
L 549.736573 169.60201 
L 551.723587 169.53148 
L 553.742655 169.28408 
L 555.794012 168.854717 
L 557.875893 168.241304 
L 559.979732 167.451961 
L 562.095525 166.496974 
L 564.213268 165.386628 
L 566.322956 164.131207 
L 568.414584 162.740995 
L 570.478147 161.226279 
L 572.503641 159.597341 
L 574.481061 157.864468 
L 576.400402 156.037944 
L 578.251659 154.128053 
L 580.024828 152.145081 
L 581.709904 150.099312 
L 583.296882 148.001031 
L 584.775758 145.860523 
L 586.136526 143.688072 
L 587.369183 141.493963 
L 588.463722 139.288482 
L 589.410141 137.081912 
L 590.198433 134.884539 
L 590.818594 132.706647 
L 591.26062 130.558521 
L 591.514505 128.450446 
L 591.570245 126.392706 
L 591.417835 124.395587 
L 591.047271 122.469373 
L 590.448548 120.624348 
L 589.61166 118.870799 
L 588.530261 117.216891 
L 587.218882 115.658704 
L 585.699454 114.188034 
L 583.993917 112.796671 
L 582.124211 111.476404 
L 580.112274 110.219025 
L 577.980047 109.016323 
L 575.749469 107.860089 
L 573.442479 106.742113 
L 571.081018 105.654186 
L 568.687025 104.588097 
L 566.282438 103.535638 
L 563.889199 102.488597 
L 561.529247 101.438767 
L 559.22452 100.377936 
L 556.996959 99.297895 
L 554.868503 98.190435 
L 552.861092 97.047346 
L 550.996665 95.860418 
L 549.297162 94.621441 
L 547.784523 93.322206 
L 546.480686 91.954503 
L 545.407592 90.510123 
L 544.587181 88.980855 
L 544.0391 87.35972 
L 543.761278 85.65141 
L 543.739652 83.867058 
L 543.960035 82.017864 
L 544.408237 80.115028 
L 545.070073 78.16975 
L 545.931352 76.193231 
L 546.977888 74.196672 
L 548.195493 72.191272 
L 549.569978 70.188232 
L 551.087156 68.198752 
L 552.732839 66.234033 
L 554.492838 64.305275 
L 556.352967 62.423678 
L 558.299036 60.600442 
L 560.316859 58.846768 
L 562.392246 57.173857 
L 564.511011 55.592908 
L 566.658965 54.115122 
L 568.82192 52.751699 
L 570.985688 51.513839 
L 573.136082 50.412743 
L 575.258913 49.459612 
L 577.339994 48.665645 
L 579.365607 48.041572 
L 581.330082 47.590055 
L 583.23451 47.306983 
L 585.080191 47.188034 
L 586.868425 47.228886 
L 588.600513 47.425218 
L 590.277755 47.772707 
L 591.90145 48.267032 
L 593.472899 48.903871 
L 594.993402 49.678902 
L 596.464259 50.587803 
L 597.88677 51.626253 
L 599.262236 52.789929 
L 600.591957 54.07451 
L 601.877233 55.475675 
L 603.119363 56.9891 
L 604.319649 58.610465 
L 605.47939 60.335447 
L 606.599886 62.159725 
L 607.682438 64.078977 
L 608.728345 66.088881 
L 609.738909 68.185115 
L 610.715428 70.363358 
L 611.659204 72.619287 
L 612.571536 74.948581 
L 613.453725 77.346918 
L 614.30707 79.809976 
L 615.132872 82.333434 
L 615.932431 84.912969 
L 616.707047 87.54426 
L 617.45802 90.222984 
L 618.186651 92.944821 
L 618.89424 95.705448 
L 619.582086 98.500543 
L 620.25149 101.325784 
L 620.903752 104.176851 
L 621.540172 107.04942 
L 622.162051 109.939171 
L 622.770688 112.841781 
L 623.367384 115.752928 
L 623.953438 118.668291 
L 624.530152 121.583547 
L 625.098825 124.494376 
L 625.660757 127.396455 
L 626.217248 130.285462 
L 626.769599 133.157076 
L 627.31911 136.006974 
L 627.867081 138.830836 
L 628.414812 141.624338 
L 628.963603 144.38316 
L 629.514754 147.102979 
L 630.069566 149.779473 
L 630.629338 152.408322 
L 631.195372 154.985202 
L 631.768966 157.505793 
L 632.351422 159.965772 
L 632.944038 162.360817 
L 633.548117 164.686607 
L 634.164956 166.93882 
L 634.795858 169.113134 
L 635.442121 171.205227 
L 636.105047 173.210777 
L 636.785935 175.125463 
L 637.486085 176.944963 
L 638.206797 178.664955 
L 638.949373 180.281116 
L 639.715111 181.789126 
L 640.505312 183.184663 
L 641.321276 184.463404 
L 642.164304 185.621028 
L 643.035695 186.653213 
L 643.93675 187.555637 
L 644.868768 188.323978 
L 645.83305 188.953915 
L 646.830428 189.442265 
L 647.859714 189.790763 
L 648.919173 190.002467 
L 650.007074 190.080437 
L 651.121683 190.027731 
L 652.261267 189.847409 
L 653.424094 189.54253 
L 654.60843 189.116152 
L 655.812542 188.571336 
L 657.034697 187.911139 
L 658.273163 187.138622 
L 659.526206 186.256843 
L 660.792093 185.268861 
L 662.069092 184.177735 
L 663.355469 182.986525 
L 664.64949 181.69829 
L 665.949425 180.316088 
L 667.253538 178.842979 
L 668.560098 177.282022 
L 669.867371 175.636275 
L 671.173624 173.908799 
L 672.477124 172.102652 
L 673.776139 170.220893 
L 675.068935 168.266581 
L 676.353779 166.242775 
L 677.628939 164.152535 
L 678.89268 161.998919 
L 680.143271 159.784987 
L 681.378978 157.513798 
L 682.598069 155.18841 
L 683.798809 152.811884 
L 684.979467 150.387277 
L 686.138309 147.917649 
L 687.273602 145.406059 
L 688.383614 142.855567 
L 689.46661 140.269231 
L 690.520859 137.65011 
L 691.544627 135.001264 
L 692.536181 132.325751 
L 693.493789 129.626631 
L 694.415717 126.906962 
L 695.300232 124.169805 
L 696.145601 121.418217 
L 696.950091 118.655258 
L 697.71197 115.883988 
L 698.429503 113.107464 
L 699.100959 110.328747 
L 699.724604 107.550895 
L 700.298706 104.776968 
L 700.82153 102.010024 
L 701.291345 99.253122 
L 701.706417 96.509323 
L 702.065013 93.781684 
L 702.3654 91.073265 
L 702.605846 88.387125 
L 702.784617 85.726323 
L 702.899979 83.093918 
L 702.950201 80.492969 
L 702.93355 77.926535 
L 702.848291 75.397676 
L 702.692693 72.909451 
L 702.465021 70.464917 
L 702.163547 68.067134 
L 701.78731 65.718325 
L 701.337261 63.41867 
L 700.814633 61.168038 
L 700.220665 58.966297 
L 699.556592 56.813315 
L 698.823649 54.708962 
L 698.023074 52.653106 
L 697.156102 50.645615 
L 696.223969 48.686359 
L 695.227912 46.775206 
L 694.169167 44.912025 
L 693.04897 43.096684 
L 691.868557 41.329052 
L 690.629164 39.608998 
L 689.332027 37.936389 
L 687.978383 36.311096 
L 686.569468 34.732986 
L 685.106517 33.201929 
L 683.590767 31.717793 
L 682.023455 30.280446 
L 680.405815 28.889757 
L 678.739085 27.545595 
L 677.0245 26.247828 
L 675.263297 24.996326 
L 673.456712 23.790957 
L 671.605981 22.631589 
L 669.71234 21.518091 
L 667.777025 20.450332 
L 665.801272 19.42818 
L 663.786318 18.451504 
L 661.733399 17.520173 
L 659.64375 16.634056 
L 657.518608 15.79302 
L 655.35921 14.996936 
L 653.16679 14.24567 
L 650.942587 13.539093 
L 648.687834 12.877072 
L 646.403769 12.259477 
L 644.091629 11.686175 
L 641.752648 11.157036 
L 639.388063 10.671928 
L 636.99911 10.230721 
L 634.587026 9.833282 
L 632.153047 9.47948 
L 629.698408 9.169184 
L 627.224346 8.902262 
L 624.732097 8.678584 
L 622.222897 8.498017 
L 619.697982 8.360431 
L 617.158589 8.265694 
L 614.605953 8.213675 
L 612.041311 8.204243 
z
" clip-path="url(#pa8bdee7818)" style="fill: #ff0000; opacity: 0.2; stroke: #ff0000; stroke-width: 0.3; stroke-linejoin: miter"/>
   </g>
   <g id="patch_13">
    <path d="M 352.782295 199.010349 
L 724.762623 199.010349 
L 724.762623 -1.838184 
L 352.782295 -1.838184 
z
" clip-path="url(#pa8bdee7818)" style="fill: #808080; opacity: 0.5"/>
   </g>
   <g id="line2d_2">
    <path d="M 449.722623 209.052776 
L 480.157377 8.204243 
" clip-path="url(#pa8bdee7818)" style="fill: none; stroke-dasharray: 11.1,4.8; stroke-dashoffset: 0; stroke: #000000; stroke-opacity: 0.7; stroke-width: 3"/>
   </g>
   <g id="patch_14">
    <path d="M 361.8 190.976408 
L 361.8 7.2 
" style="fill: none"/>
   </g>
   <g id="patch_15">
    <path d="M 705.6 190.976408 
L 705.6 7.2 
" style="fill: none"/>
   </g>
   <g id="patch_16">
    <path d="M 361.8 190.976408 
L 705.6 190.976408 
" style="fill: none"/>
   </g>
   <g id="patch_17">
    <path d="M 361.8 7.2 
L 705.6 7.2 
" style="fill: none"/>
   </g>
   <g id="text_2">
    <!-- (b) Full data space (data global). -->
    <g style="fill: #262626" transform="translate(447.328125 205.191813)scale(0.12 -0.12)">
     <defs>
      <path id="ArialMT-46" d="M 525 0 
L 525 4581 
L 3616 4581 
L 3616 4041 
L 1131 4041 
L 1131 2622 
L 3281 2622 
L 3281 2081 
L 1131 2081 
L 1131 0 
L 525 0 
z
" transform="scale(0.015625)"/>
      <path id="ArialMT-67" d="M 319 -275 
L 866 -356 
Q 900 -609 1056 -725 
Q 1266 -881 1628 -881 
Q 2019 -881 2231 -725 
Q 2444 -569 2519 -288 
Q 2563 -116 2559 434 
Q 2191 0 1641 0 
Q 956 0 581 494 
Q 206 988 206 1678 
Q 206 2153 378 2554 
Q 550 2956 876 3175 
Q 1203 3394 1644 3394 
Q 2231 3394 2613 2919 
L 2613 3319 
L 3131 3319 
L 3131 450 
Q 3131 -325 2973 -648 
Q 2816 -972 2473 -1159 
Q 2131 -1347 1631 -1347 
Q 1038 -1347 672 -1080 
Q 306 -813 319 -275 
z
M 784 1719 
Q 784 1066 1043 766 
Q 1303 466 1694 466 
Q 2081 466 2343 764 
Q 2606 1063 2606 1700 
Q 2606 2309 2336 2618 
Q 2066 2928 1684 2928 
Q 1309 2928 1046 2623 
Q 784 2319 784 1719 
z
" transform="scale(0.015625)"/>
     </defs>
     <use xlink:href="#ArialMT-28"/>
     <use xlink:href="#ArialMT-62" x="33.300781"/>
     <use xlink:href="#ArialMT-29" x="88.916016"/>
     <use xlink:href="#ArialMT-20" x="122.216797"/>
     <use xlink:href="#ArialMT-46" x="150"/>
     <use xlink:href="#ArialMT-75" x="211.083984"/>
     <use xlink:href="#ArialMT-6c" x="266.699219"/>
     <use xlink:href="#ArialMT-6c" x="288.916016"/>
     <use xlink:href="#ArialMT-20" x="311.132812"/>
     <use xlink:href="#ArialMT-64" x="338.916016"/>
     <use xlink:href="#ArialMT-61" x="394.53125"/>
     <use xlink:href="#ArialMT-74" x="450.146484"/>
     <use xlink:href="#ArialMT-61" x="477.929688"/>
     <use xlink:href="#ArialMT-20" x="533.544922"/>
     <use xlink:href="#ArialMT-73" x="561.328125"/>
     <use xlink:href="#ArialMT-70" x="611.328125"/>
     <use xlink:href="#ArialMT-61" x="666.943359"/>
     <use xlink:href="#ArialMT-63" x="722.558594"/>
     <use xlink:href="#ArialMT-65" x="772.558594"/>
     <use xlink:href="#ArialMT-20" x="828.173828"/>
     <use xlink:href="#ArialMT-28" x="855.957031"/>
     <use xlink:href="#ArialMT-64" x="889.257812"/>
     <use xlink:href="#ArialMT-61" x="944.873047"/>
     <use xlink:href="#ArialMT-74" x="1000.488281"/>
     <use xlink:href="#ArialMT-61" x="1028.271484"/>
     <use xlink:href="#ArialMT-20" x="1083.886719"/>
     <use xlink:href="#ArialMT-67" x="1111.669922"/>
     <use xlink:href="#ArialMT-6c" x="1167.285156"/>
     <use xlink:href="#ArialMT-6f" x="1189.501953"/>
     <use xlink:href="#ArialMT-62" x="1245.117188"/>
     <use xlink:href="#ArialMT-61" x="1300.732422"/>
     <use xlink:href="#ArialMT-6c" x="1356.347656"/>
     <use xlink:href="#ArialMT-29" x="1378.564453"/>
     <use xlink:href="#ArialMT-2e" x="1411.865234"/>
    </g>
   </g>
  </g>
  <g id="axes_3">
   <g id="patch_18">
    <path d="M 7.2 401.576408 
L 351 401.576408 
L 351 217.8 
L 7.2 217.8 
z
" style="fill: #eaeaf2"/>
   </g>
   <g id="matplotlib.axis_5"/>
   <g id="matplotlib.axis_6"/>
   <g id="patch_19">
    <path d="M -1.817705 409.610349 
L 370.162623 409.610349 
L 370.162623 208.761816 
L -1.817705 208.761816 
z
" clip-path="url(#p087c0d2bfa)" style="fill: #0000ff; opacity: 0.1"/>
   </g>
   <g id="patch_20">
    <path d="M 9.454426 238.889096 
L 10.668266 239.875922 
L 12.084992 240.795852 
L 13.690394 241.653572 
L 15.470265 242.453766 
L 17.410395 243.20112 
L 19.496574 243.900318 
L 21.714595 244.556045 
L 24.050247 245.172987 
L 26.489323 245.755828 
L 29.017612 246.309254 
L 31.620907 246.837949 
L 34.284998 247.346598 
L 36.995675 247.839887 
L 39.738731 248.3225 
L 42.499955 248.799122 
L 45.26514 249.274439 
L 48.020076 249.753134 
L 50.750553 250.239895 
L 53.442364 250.739404 
L 56.081299 251.256348 
L 58.653149 251.795411 
L 61.143705 252.361278 
L 63.538758 252.958634 
L 65.824099 253.592165 
L 67.985519 254.266554 
L 70.008809 254.986488 
L 71.879761 255.756651 
L 73.584164 256.581728 
L 75.107811 257.466405 
L 76.436491 258.415365 
L 77.556331 259.433199 
L 78.463701 260.521548 
L 79.166871 261.678633 
L 79.674779 262.902481 
L 79.996365 264.191122 
L 80.140568 265.542584 
L 80.116325 266.954893 
L 79.932576 268.426079 
L 79.598259 269.954169 
L 79.122314 271.537192 
L 78.513678 273.173176 
L 77.781291 274.860149 
L 76.934091 276.596139 
L 75.981017 278.379173 
L 74.931008 280.207281 
L 73.793002 282.078491 
L 72.575939 283.990829 
L 71.288756 285.942325 
L 69.940393 287.931007 
L 68.539788 289.954903 
L 67.095881 292.012041 
L 65.617609 294.100448 
L 64.113911 296.218154 
L 62.593727 298.363186 
L 61.065995 300.533572 
L 59.539653 302.72734 
L 58.023641 304.942519 
L 56.526897 307.177137 
L 55.05836 309.429222 
L 53.626968 311.696801 
L 52.241661 313.977904 
L 50.911376 316.270557 
L 49.645054 318.57279 
L 48.451631 320.88263 
L 47.340048 323.198106 
L 46.319243 325.517245 
L 45.398154 327.838075 
L 44.585721 330.158626 
L 43.890881 332.476924 
L 43.322575 334.790999 
L 42.88974 337.098877 
L 42.601315 339.398588 
L 42.466239 341.688159 
L 42.49345 343.965619 
L 42.691888 346.228995 
L 43.070491 348.476315 
L 43.637403 350.70538 
L 44.389173 352.910652 
L 45.313577 355.084069 
L 46.398174 357.217508 
L 47.630521 359.302844 
L 48.998178 361.331953 
L 50.488703 363.296712 
L 52.089655 365.188995 
L 53.788592 367.00068 
L 55.573073 368.723641 
L 57.430655 370.349756 
L 59.348899 371.870899 
L 61.315363 373.278947 
L 63.317604 374.565775 
L 65.343182 375.72326 
L 67.379655 376.743278 
L 69.414581 377.617704 
L 71.43552 378.338414 
L 73.430029 378.897284 
L 75.385668 379.286191 
L 77.289997 379.497013 
L 79.133657 379.524707 
L 80.916224 379.373168 
L 82.638886 379.047904 
L 84.302832 378.554422 
L 85.90925 377.89823 
L 87.459328 377.084834 
L 88.954256 376.119742 
L 90.395222 375.008462 
L 91.783413 373.7565 
L 93.12002 372.369364 
L 94.40623 370.852562 
L 95.643232 369.211601 
L 96.832214 367.451988 
L 97.974365 365.57923 
L 99.070873 363.598835 
L 100.122927 361.516311 
L 101.131715 359.337164 
L 102.098426 357.066901 
L 103.024249 354.711031 
L 103.910371 352.275061 
L 104.757982 349.764498 
L 105.56827 347.184849 
L 106.342423 344.541621 
L 107.08163 341.840323 
L 107.78708 339.086461 
L 108.45996 336.285543 
L 109.10146 333.443075 
L 109.712768 330.564566 
L 110.295073 327.655523 
L 110.849562 324.721453 
L 111.377425 321.767864 
L 111.87985 318.800262 
L 112.358025 315.824155 
L 112.81314 312.845051 
L 113.246382 309.868457 
L 113.65894 306.89988 
L 114.052002 303.944827 
L 114.426758 301.008807 
L 114.784395 298.097326 
L 115.126102 295.215891 
L 115.453068 292.37001 
L 115.766481 289.565191 
L 116.06753 286.80694 
L 116.357403 284.100765 
L 116.637288 281.452174 
L 116.908375 278.866673 
L 117.171851 276.34977 
L 117.428905 273.906973 
L 117.680726 271.543788 
L 117.928502 269.265724 
L 118.173422 267.078287 
L 118.416675 264.986985 
L 118.659448 262.997325 
L 118.90293 261.114815 
L 119.14831 259.344961 
L 119.396776 257.693272 
L 119.649517 256.165254 
L 119.907721 254.766415 
L 120.172577 253.502262 
L 120.445273 252.378303 
L 120.726998 251.400045 
L 121.018941 250.572995 
L 121.322289 249.902661 
L 121.638232 249.39455 
L 121.967957 249.05417 
L 122.312644 248.88692 
L 122.673082 248.893865 
L 123.049543 249.070307 
L 123.442261 249.411154 
L 123.851474 249.911311 
L 124.277416 250.565685 
L 124.720323 251.369183 
L 125.180432 252.31671 
L 125.657977 253.403172 
L 126.153195 254.623478 
L 126.666321 255.972531 
L 127.197592 257.44524 
L 127.747242 259.03651 
L 128.315508 260.741248 
L 128.902626 262.55436 
L 129.508831 264.470752 
L 130.134359 266.485331 
L 130.779445 268.593004 
L 131.444326 270.788675 
L 132.129237 273.067253 
L 132.834414 275.423642 
L 133.560093 277.852751 
L 134.306509 280.349484 
L 135.073899 282.908748 
L 135.862497 285.52545 
L 136.672541 288.194496 
L 137.504265 290.910792 
L 138.357905 293.669245 
L 139.233697 296.464761 
L 140.131877 299.292246 
L 141.052681 302.146607 
L 141.996343 305.02275 
L 142.963102 307.915582 
L 143.95319 310.820008 
L 144.966846 313.730935 
L 146.004304 316.64327 
L 147.0658 319.551919 
L 148.151569 322.451788 
L 149.261849 325.337783 
L 150.396874 328.204812 
L 151.55688 331.047779 
L 152.742102 333.861593 
L 153.952778 336.641158 
L 155.189142 339.381381 
L 156.45143 342.07717 
L 157.739878 344.723429 
L 159.054722 347.315066 
L 160.396197 349.846986 
L 161.76454 352.314096 
L 163.159985 354.711303 
L 164.582769 357.033513 
L 166.033128 359.275632 
L 167.511297 361.432566 
L 169.017512 363.499223 
L 170.552009 365.470507 
L 172.115023 367.341326 
L 173.70679 369.106586 
L 175.327547 370.761193 
L 176.977528 372.300054 
L 178.65697 373.718075 
L 180.366108 375.010162 
L 182.105179 376.171222 
L 183.874417 377.196161 
L 185.674059 378.079885 
L 187.50434 378.817301 
L 189.365496 379.403315 
L 191.257763 379.832834 
L 193.181377 380.100763 
L 195.136573 380.20201 
L 197.123587 380.13148 
L 199.142655 379.88408 
L 201.194012 379.454717 
L 203.275893 378.841304 
L 205.379732 378.051961 
L 207.495525 377.096974 
L 209.613268 375.986628 
L 211.722956 374.731207 
L 213.814584 373.340995 
L 215.878147 371.826279 
L 217.903641 370.197341 
L 219.881061 368.464468 
L 221.800402 366.637944 
L 223.651659 364.728053 
L 225.424828 362.745081 
L 227.109904 360.699312 
L 228.696882 358.601031 
L 230.175758 356.460523 
L 231.536526 354.288072 
L 232.769183 352.093963 
L 233.863722 349.888482 
L 234.810141 347.681912 
L 235.598433 345.484539 
L 236.218594 343.306647 
L 236.66062 341.158521 
L 236.914505 339.050446 
L 236.970245 336.992706 
L 236.817835 334.995587 
L 236.447271 333.069373 
L 235.848548 331.224348 
L 235.01166 329.470799 
L 233.930261 327.816891 
L 232.618882 326.258704 
L 231.099454 324.788034 
L 229.393917 323.396671 
L 227.524211 322.076404 
L 225.512274 320.819025 
L 223.380047 319.616323 
L 221.149469 318.460089 
L 218.842479 317.342113 
L 216.481018 316.254186 
L 214.087025 315.188097 
L 211.682438 314.135638 
L 209.289199 313.088597 
L 206.929247 312.038767 
L 204.62452 310.977936 
L 202.396959 309.897895 
L 200.268503 308.790435 
L 198.261092 307.647346 
L 196.396665 306.460418 
L 194.697162 305.221441 
L 193.184523 303.922206 
L 191.880686 302.554503 
L 190.807592 301.110123 
L 189.987181 299.580855 
L 189.4391 297.95972 
L 189.161278 296.25141 
L 189.139652 294.467058 
L 189.360035 292.617864 
L 189.808237 290.715028 
L 190.470073 288.76975 
L 191.331352 286.793231 
L 192.377888 284.796672 
L 193.595493 282.791272 
L 194.969978 280.788232 
L 196.487156 278.798752 
L 198.132839 276.834033 
L 199.892838 274.905275 
L 201.752967 273.023678 
L 203.699036 271.200442 
L 205.716859 269.446768 
L 207.792246 267.773857 
L 209.911011 266.192908 
L 212.058965 264.715122 
L 214.22192 263.351699 
L 216.385688 262.113839 
L 218.536082 261.012743 
L 220.658913 260.059612 
L 222.739994 259.265645 
L 224.765607 258.641572 
L 226.730082 258.190055 
L 228.63451 257.906983 
L 230.480191 257.788034 
L 232.268425 257.828886 
L 234.000513 258.025218 
L 235.677755 258.372707 
L 237.30145 258.867032 
L 238.872899 259.503871 
L 240.393402 260.278902 
L 241.864259 261.187803 
L 243.28677 262.226253 
L 244.662236 263.389929 
L 245.991957 264.67451 
L 247.277233 266.075675 
L 248.519363 267.5891 
L 249.719649 269.210465 
L 250.87939 270.935447 
L 251.999886 272.759725 
L 253.082438 274.678977 
L 254.128345 276.688881 
L 255.138909 278.785115 
L 256.115428 280.963358 
L 257.059204 283.219287 
L 257.971536 285.548581 
L 258.853725 287.946918 
L 259.70707 290.409976 
L 260.532872 292.933434 
L 261.332431 295.512969 
L 262.107047 298.14426 
L 262.85802 300.822984 
L 263.586651 303.544821 
L 264.29424 306.305448 
L 264.982086 309.100543 
L 265.65149 311.925784 
L 266.303752 314.776851 
L 266.940172 317.64942 
L 267.562051 320.539171 
L 268.170688 323.441781 
L 268.767384 326.352928 
L 269.353438 329.268291 
L 269.930152 332.183547 
L 270.498825 335.094376 
L 271.060757 337.996455 
L 271.617248 340.885462 
L 272.169599 343.757076 
L 272.71911 346.606974 
L 273.267081 349.430836 
L 273.814812 352.224338 
L 274.363603 354.98316 
L 274.914754 357.702979 
L 275.469566 360.379473 
L 276.029338 363.008322 
L 276.595372 365.585202 
L 277.168966 368.105793 
L 277.751422 370.565772 
L 278.344038 372.960817 
L 278.948117 375.286607 
L 279.564956 377.53882 
L 280.195858 379.713134 
L 280.842121 381.805227 
L 281.505047 383.810777 
L 282.185935 385.725463 
L 282.886085 387.544963 
L 283.606797 389.264955 
L 284.349373 390.881116 
L 285.115111 392.389126 
L 285.905312 393.784663 
L 286.721276 395.063404 
L 287.564304 396.221028 
L 288.435695 397.253213 
L 289.33675 398.155637 
L 290.268768 398.923978 
L 291.23305 399.553915 
L 292.230428 400.042265 
L 293.259714 400.390763 
L 294.319173 400.602467 
L 295.407074 400.680437 
L 296.521683 400.627731 
L 297.661267 400.447409 
L 298.824094 400.14253 
L 300.00843 399.716152 
L 301.212542 399.171336 
L 302.434697 398.511139 
L 303.673163 397.738622 
L 304.926206 396.856843 
L 306.192093 395.868861 
L 307.469092 394.777735 
L 308.755469 393.586525 
L 310.04949 392.29829 
L 311.349425 390.916088 
L 312.653538 389.442979 
L 313.960098 387.882022 
L 315.267371 386.236275 
L 316.573624 384.508799 
L 317.877124 382.702652 
L 319.176139 380.820893 
L 320.468935 378.866581 
L 321.753779 376.842775 
L 323.028939 374.752535 
L 324.29268 372.598919 
L 325.543271 370.384987 
L 326.778978 368.113798 
L 327.998069 365.78841 
L 329.198809 363.411884 
L 330.379467 360.987277 
L 331.538309 358.517649 
L 332.673602 356.006059 
L 333.783614 353.455567 
L 334.86661 350.869231 
L 335.920859 348.25011 
L 336.944627 345.601264 
L 337.936181 342.925751 
L 338.893789 340.226631 
L 339.815717 337.506962 
L 340.700232 334.769805 
L 341.545601 332.018217 
L 342.350091 329.255258 
L 343.11197 326.483988 
L 343.829503 323.707464 
L 344.500959 320.928747 
L 345.124604 318.150895 
L 345.698706 315.376968 
L 346.22153 312.610024 
L 346.691345 309.853122 
L 347.106417 307.109323 
L 347.465013 304.381684 
L 347.7654 301.673265 
L 348.005846 298.987125 
L 348.184617 296.326323 
L 348.299979 293.693918 
L 348.350201 291.092969 
L 348.33355 288.526535 
L 348.248291 285.997676 
L 348.092693 283.509451 
L 347.865021 281.064917 
L 347.563547 278.667134 
L 347.18731 276.318325 
L 346.737261 274.01867 
L 346.214633 271.768038 
L 345.620665 269.566297 
L 344.956592 267.413315 
L 344.223649 265.308962 
L 343.423074 263.253106 
L 342.556102 261.245615 
L 341.623969 259.286359 
L 340.627912 257.375206 
L 339.569167 255.512025 
L 338.44897 253.696684 
L 337.268557 251.929052 
L 336.029164 250.208998 
L 334.732027 248.536389 
L 333.378383 246.911096 
L 331.969468 245.332986 
L 330.506517 243.801929 
L 328.990767 242.317793 
L 327.423455 240.880446 
L 325.805815 239.489757 
L 324.139085 238.145595 
L 322.4245 236.847828 
L 320.663297 235.596326 
L 318.856712 234.390957 
L 317.005981 233.231589 
L 315.11234 232.118091 
L 313.177025 231.050332 
L 311.201272 230.02818 
L 309.186318 229.051504 
L 307.133399 228.120173 
L 305.04375 227.234056 
L 302.918608 226.39302 
L 300.75921 225.596936 
L 298.56679 224.84567 
L 296.342587 224.139093 
L 294.087834 223.477072 
L 291.803769 222.859477 
L 289.491629 222.286175 
L 287.152648 221.757036 
L 284.788063 221.271928 
L 282.39911 220.830721 
L 279.987026 220.433282 
L 277.553047 220.07948 
L 275.098408 219.769184 
L 272.624346 219.502262 
L 270.132097 219.278584 
L 267.622897 219.098017 
L 265.097982 218.960431 
L 262.558589 218.865694 
L 260.005953 218.813675 
L 257.441311 218.804243 
z
" clip-path="url(#p087c0d2bfa)" style="fill: #ff0000; opacity: 0.2; stroke: #ff0000; stroke-width: 0.3; stroke-linejoin: miter"/>
   </g>
   <g id="PolyCollection_1">
    <defs>
     <path id="m27a1b5c2b7" d="M 83.850492 -5.864662 
L 106.394754 -5.864662 
L 136.829508 -206.713195 
L 114.285246 -206.713195 
L 114.285246 -206.713195 
L 83.850492 -5.864662 
z
" style="stroke: #808080; stroke-opacity: 0.5; stroke-width: 0.3"/>
    </defs>
    <g clip-path="url(#p087c0d2bfa)">
     <use xlink:href="#m27a1b5c2b7" x="0" y="425.517438" style="fill: #808080; fill-opacity: 0.5; stroke: #808080; stroke-opacity: 0.5; stroke-width: 0.3"/>
    </g>
   </g>
   <g id="line2d_3">
    <path d="M 95.122623 419.652776 
L 125.557377 218.804243 
" clip-path="url(#p087c0d2bfa)" style="fill: none; stroke-dasharray: 11.1,4.8; stroke-dashoffset: 0; stroke: #000000; stroke-opacity: 0.7; stroke-width: 3"/>
   </g>
   <g id="patch_21">
    <path d="M 7.2 401.576408 
L 7.2 217.8 
" style="fill: none"/>
   </g>
   <g id="patch_22">
    <path d="M 351 401.576408 
L 351 217.8 
" style="fill: none"/>
   </g>
   <g id="patch_23">
    <path d="M 7.2 401.576408 
L 351 401.576408 
" style="fill: none"/>
   </g>
   <g id="patch_24">
    <path d="M 7.2 217.8 
L 351 217.8 
" style="fill: none"/>
   </g>
   <g id="text_3">
    <!-- (c) Surrogate decision boundary (model local). -->
    <g style="fill: #262626" transform="translate(56.050312 415.791813)scale(0.12 -0.12)">
     <defs>
      <path id="ArialMT-53" d="M 288 1472 
L 859 1522 
Q 900 1178 1048 958 
Q 1197 738 1509 602 
Q 1822 466 2213 466 
Q 2559 466 2825 569 
Q 3091 672 3220 851 
Q 3350 1031 3350 1244 
Q 3350 1459 3225 1620 
Q 3100 1781 2813 1891 
Q 2628 1963 1997 2114 
Q 1366 2266 1113 2400 
Q 784 2572 623 2826 
Q 463 3081 463 3397 
Q 463 3744 659 4045 
Q 856 4347 1234 4503 
Q 1613 4659 2075 4659 
Q 2584 4659 2973 4495 
Q 3363 4331 3572 4012 
Q 3781 3694 3797 3291 
L 3216 3247 
Q 3169 3681 2898 3903 
Q 2628 4125 2100 4125 
Q 1550 4125 1298 3923 
Q 1047 3722 1047 3438 
Q 1047 3191 1225 3031 
Q 1400 2872 2139 2705 
Q 2878 2538 3153 2413 
Q 3553 2228 3743 1945 
Q 3934 1663 3934 1294 
Q 3934 928 3725 604 
Q 3516 281 3123 101 
Q 2731 -78 2241 -78 
Q 1619 -78 1198 103 
Q 778 284 539 648 
Q 300 1013 288 1472 
z
" transform="scale(0.015625)"/>
      <path id="ArialMT-72" d="M 416 0 
L 416 3319 
L 922 3319 
L 922 2816 
Q 1116 3169 1280 3281 
Q 1444 3394 1641 3394 
Q 1925 3394 2219 3213 
L 2025 2691 
Q 1819 2813 1613 2813 
Q 1428 2813 1281 2702 
Q 1134 2591 1072 2394 
Q 978 2094 978 1738 
L 978 0 
L 416 0 
z
" transform="scale(0.015625)"/>
      <path id="ArialMT-69" d="M 425 3934 
L 425 4581 
L 988 4581 
L 988 3934 
L 425 3934 
z
M 425 0 
L 425 3319 
L 988 3319 
L 988 0 
L 425 0 
z
" transform="scale(0.015625)"/>
      <path id="ArialMT-6e" d="M 422 0 
L 422 3319 
L 928 3319 
L 928 2847 
Q 1294 3394 1984 3394 
Q 2284 3394 2536 3286 
Q 2788 3178 2913 3003 
Q 3038 2828 3088 2588 
Q 3119 2431 3119 2041 
L 3119 0 
L 2556 0 
L 2556 2019 
Q 2556 2363 2490 2533 
Q 2425 2703 2258 2804 
Q 2091 2906 1866 2906 
Q 1506 2906 1245 2678 
Q 984 2450 984 1813 
L 984 0 
L 422 0 
z
" transform="scale(0.015625)"/>
      <path id="ArialMT-79" d="M 397 -1278 
L 334 -750 
Q 519 -800 656 -800 
Q 844 -800 956 -737 
Q 1069 -675 1141 -563 
Q 1194 -478 1313 -144 
Q 1328 -97 1363 -6 
L 103 3319 
L 709 3319 
L 1400 1397 
Q 1534 1031 1641 628 
Q 1738 1016 1872 1384 
L 2581 3319 
L 3144 3319 
L 1881 -56 
Q 1678 -603 1566 -809 
Q 1416 -1088 1222 -1217 
Q 1028 -1347 759 -1347 
Q 597 -1347 397 -1278 
z
" transform="scale(0.015625)"/>
      <path id="ArialMT-6d" d="M 422 0 
L 422 3319 
L 925 3319 
L 925 2853 
Q 1081 3097 1340 3245 
Q 1600 3394 1931 3394 
Q 2300 3394 2536 3241 
Q 2772 3088 2869 2813 
Q 3263 3394 3894 3394 
Q 4388 3394 4653 3120 
Q 4919 2847 4919 2278 
L 4919 0 
L 4359 0 
L 4359 2091 
Q 4359 2428 4304 2576 
Q 4250 2725 4106 2815 
Q 3963 2906 3769 2906 
Q 3419 2906 3187 2673 
Q 2956 2441 2956 1928 
L 2956 0 
L 2394 0 
L 2394 2156 
Q 2394 2531 2256 2718 
Q 2119 2906 1806 2906 
Q 1569 2906 1367 2781 
Q 1166 2656 1075 2415 
Q 984 2175 984 1722 
L 984 0 
L 422 0 
z
" transform="scale(0.015625)"/>
     </defs>
     <use xlink:href="#ArialMT-28"/>
     <use xlink:href="#ArialMT-63" x="33.300781"/>
     <use xlink:href="#ArialMT-29" x="83.300781"/>
     <use xlink:href="#ArialMT-20" x="116.601562"/>
     <use xlink:href="#ArialMT-53" x="144.384766"/>
     <use xlink:href="#ArialMT-75" x="211.083984"/>
     <use xlink:href="#ArialMT-72" x="266.699219"/>
     <use xlink:href="#ArialMT-72" x="300"/>
     <use xlink:href="#ArialMT-6f" x="333.300781"/>
     <use xlink:href="#ArialMT-67" x="388.916016"/>
     <use xlink:href="#ArialMT-61" x="444.53125"/>
     <use xlink:href="#ArialMT-74" x="500.146484"/>
     <use xlink:href="#ArialMT-65" x="527.929688"/>
     <use xlink:href="#ArialMT-20" x="583.544922"/>
     <use xlink:href="#ArialMT-64" x="611.328125"/>
     <use xlink:href="#ArialMT-65" x="666.943359"/>
     <use xlink:href="#ArialMT-63" x="722.558594"/>
     <use xlink:href="#ArialMT-69" x="772.558594"/>
     <use xlink:href="#ArialMT-73" x="794.775391"/>
     <use xlink:href="#ArialMT-69" x="844.775391"/>
     <use xlink:href="#ArialMT-6f" x="866.992188"/>
     <use xlink:href="#ArialMT-6e" x="922.607422"/>
     <use xlink:href="#ArialMT-20" x="978.222656"/>
     <use xlink:href="#ArialMT-62" x="1006.005859"/>
     <use xlink:href="#ArialMT-6f" x="1061.621094"/>
     <use xlink:href="#ArialMT-75" x="1117.236328"/>
     <use xlink:href="#ArialMT-6e" x="1172.851562"/>
     <use xlink:href="#ArialMT-64" x="1228.466797"/>
     <use xlink:href="#ArialMT-61" x="1284.082031"/>
     <use xlink:href="#ArialMT-72" x="1339.697266"/>
     <use xlink:href="#ArialMT-79" x="1372.998047"/>
     <use xlink:href="#ArialMT-20" x="1422.998047"/>
     <use xlink:href="#ArialMT-28" x="1450.78125"/>
     <use xlink:href="#ArialMT-6d" x="1484.082031"/>
     <use xlink:href="#ArialMT-6f" x="1567.382812"/>
     <use xlink:href="#ArialMT-64" x="1622.998047"/>
     <use xlink:href="#ArialMT-65" x="1678.613281"/>
     <use xlink:href="#ArialMT-6c" x="1734.228516"/>
     <use xlink:href="#ArialMT-20" x="1756.445312"/>
     <use xlink:href="#ArialMT-6c" x="1784.228516"/>
     <use xlink:href="#ArialMT-6f" x="1806.445312"/>
     <use xlink:href="#ArialMT-63" x="1862.060547"/>
     <use xlink:href="#ArialMT-61" x="1912.060547"/>
     <use xlink:href="#ArialMT-6c" x="1967.675781"/>
     <use xlink:href="#ArialMT-29" x="1989.892578"/>
     <use xlink:href="#ArialMT-2e" x="2023.193359"/>
    </g>
   </g>
  </g>
  <g id="axes_4">
   <g id="patch_25">
    <path d="M 361.8 401.576408 
L 705.6 401.576408 
L 705.6 217.8 
L 361.8 217.8 
z
" style="fill: #eaeaf2"/>
   </g>
   <g id="matplotlib.axis_7"/>
   <g id="matplotlib.axis_8"/>
   <g id="patch_26">
    <path d="M 352.782295 409.610349 
L 724.762623 409.610349 
L 724.762623 208.761816 
L 352.782295 208.761816 
z
" clip-path="url(#p61e070e02c)" style="fill: #0000ff; opacity: 0.1"/>
   </g>
   <g id="patch_27">
    <path d="M 364.054426 238.889096 
L 365.268266 239.875922 
L 366.684992 240.795852 
L 368.290394 241.653572 
L 370.070265 242.453766 
L 372.010395 243.20112 
L 374.096574 243.900318 
L 376.314595 244.556045 
L 378.650247 245.172987 
L 381.089323 245.755828 
L 383.617612 246.309254 
L 386.220907 246.837949 
L 388.884998 247.346598 
L 391.595675 247.839887 
L 394.338731 248.3225 
L 397.099955 248.799122 
L 399.86514 249.274439 
L 402.620076 249.753134 
L 405.350553 250.239895 
L 408.042364 250.739404 
L 410.681299 251.256348 
L 413.253149 251.795411 
L 415.743705 252.361278 
L 418.138758 252.958634 
L 420.424099 253.592165 
L 422.585519 254.266554 
L 424.608809 254.986488 
L 426.479761 255.756651 
L 428.184164 256.581728 
L 429.707811 257.466405 
L 431.036491 258.415365 
L 432.156331 259.433199 
L 433.063701 260.521548 
L 433.766871 261.678633 
L 434.274779 262.902481 
L 434.596365 264.191122 
L 434.740568 265.542584 
L 434.716325 266.954893 
L 434.532576 268.426079 
L 434.198259 269.954169 
L 433.722314 271.537192 
L 433.113678 273.173176 
L 432.381291 274.860149 
L 431.534091 276.596139 
L 430.581017 278.379173 
L 429.531008 280.207281 
L 428.393002 282.078491 
L 427.175939 283.990829 
L 425.888756 285.942325 
L 424.540393 287.931007 
L 423.139788 289.954903 
L 421.695881 292.012041 
L 420.217609 294.100448 
L 418.713911 296.218154 
L 417.193727 298.363186 
L 415.665995 300.533572 
L 414.139653 302.72734 
L 412.623641 304.942519 
L 411.126897 307.177137 
L 409.65836 309.429222 
L 408.226968 311.696801 
L 406.841661 313.977904 
L 405.511376 316.270557 
L 404.245054 318.57279 
L 403.051631 320.88263 
L 401.940048 323.198106 
L 400.919243 325.517245 
L 399.998154 327.838075 
L 399.185721 330.158626 
L 398.490881 332.476924 
L 397.922575 334.790999 
L 397.48974 337.098877 
L 397.201315 339.398588 
L 397.066239 341.688159 
L 397.09345 343.965619 
L 397.291888 346.228995 
L 397.670491 348.476315 
L 398.237403 350.70538 
L 398.989173 352.910652 
L 399.913577 355.084069 
L 400.998174 357.217508 
L 402.230521 359.302844 
L 403.598178 361.331953 
L 405.088703 363.296712 
L 406.689655 365.188995 
L 408.388592 367.00068 
L 410.173073 368.723641 
L 412.030655 370.349756 
L 413.948899 371.870899 
L 415.915363 373.278947 
L 417.917604 374.565775 
L 419.943182 375.72326 
L 421.979655 376.743278 
L 424.014581 377.617704 
L 426.03552 378.338414 
L 428.030029 378.897284 
L 429.985668 379.286191 
L 431.889997 379.497013 
L 433.733657 379.524707 
L 435.516224 379.373168 
L 437.238886 379.047904 
L 438.902832 378.554422 
L 440.50925 377.89823 
L 442.059328 377.084834 
L 443.554256 376.119742 
L 444.995222 375.008462 
L 446.383413 373.7565 
L 447.72002 372.369364 
L 449.00623 370.852562 
L 450.243232 369.211601 
L 451.432214 367.451988 
L 452.574365 365.57923 
L 453.670873 363.598835 
L 454.722927 361.516311 
L 455.731715 359.337164 
L 456.698426 357.066901 
L 457.624249 354.711031 
L 458.510371 352.275061 
L 459.357982 349.764498 
L 460.16827 347.184849 
L 460.942423 344.541621 
L 461.68163 341.840323 
L 462.38708 339.086461 
L 463.05996 336.285543 
L 463.70146 333.443075 
L 464.312768 330.564566 
L 464.895073 327.655523 
L 465.449562 324.721453 
L 465.977425 321.767864 
L 466.47985 318.800262 
L 466.958025 315.824155 
L 467.41314 312.845051 
L 467.846382 309.868457 
L 468.25894 306.89988 
L 468.652002 303.944827 
L 469.026758 301.008807 
L 469.384395 298.097326 
L 469.726102 295.215891 
L 470.053068 292.37001 
L 470.366481 289.565191 
L 470.66753 286.80694 
L 470.957403 284.100765 
L 471.237288 281.452174 
L 471.508375 278.866673 
L 471.771851 276.34977 
L 472.028905 273.906973 
L 472.280726 271.543788 
L 472.528502 269.265724 
L 472.773422 267.078287 
L 473.016675 264.986985 
L 473.259448 262.997325 
L 473.50293 261.114815 
L 473.74831 259.344961 
L 473.996776 257.693272 
L 474.249517 256.165254 
L 474.507721 254.766415 
L 474.772577 253.502262 
L 475.045273 252.378303 
L 475.326998 251.400045 
L 475.618941 250.572995 
L 475.922289 249.902661 
L 476.238232 249.39455 
L 476.567957 249.05417 
L 476.912644 248.88692 
L 477.273082 248.893865 
L 477.649543 249.070307 
L 478.042261 249.411154 
L 478.451474 249.911311 
L 478.877416 250.565685 
L 479.320323 251.369183 
L 479.780432 252.31671 
L 480.257977 253.403172 
L 480.753195 254.623478 
L 481.266321 255.972531 
L 481.797592 257.44524 
L 482.347242 259.03651 
L 482.915508 260.741248 
L 483.502626 262.55436 
L 484.108831 264.470752 
L 484.734359 266.485331 
L 485.379445 268.593004 
L 486.044326 270.788675 
L 486.729237 273.067253 
L 487.434414 275.423642 
L 488.160093 277.852751 
L 488.906509 280.349484 
L 489.673899 282.908748 
L 490.462497 285.52545 
L 491.272541 288.194496 
L 492.104265 290.910792 
L 492.957905 293.669245 
L 493.833697 296.464761 
L 494.731877 299.292246 
L 495.652681 302.146607 
L 496.596343 305.02275 
L 497.563102 307.915582 
L 498.55319 310.820008 
L 499.566846 313.730935 
L 500.604304 316.64327 
L 501.6658 319.551919 
L 502.751569 322.451788 
L 503.861849 325.337783 
L 504.996874 328.204812 
L 506.15688 331.047779 
L 507.342102 333.861593 
L 508.552778 336.641158 
L 509.789142 339.381381 
L 511.05143 342.07717 
L 512.339878 344.723429 
L 513.654722 347.315066 
L 514.996197 349.846986 
L 516.36454 352.314096 
L 517.759985 354.711303 
L 519.182769 357.033513 
L 520.633128 359.275632 
L 522.111297 361.432566 
L 523.617512 363.499223 
L 525.152009 365.470507 
L 526.715023 367.341326 
L 528.30679 369.106586 
L 529.927547 370.761193 
L 531.577528 372.300054 
L 533.25697 373.718075 
L 534.966108 375.010162 
L 536.705179 376.171222 
L 538.474417 377.196161 
L 540.274059 378.079885 
L 542.10434 378.817301 
L 543.965496 379.403315 
L 545.857763 379.832834 
L 547.781377 380.100763 
L 549.736573 380.20201 
L 551.723587 380.13148 
L 553.742655 379.88408 
L 555.794012 379.454717 
L 557.875893 378.841304 
L 559.979732 378.051961 
L 562.095525 377.096974 
L 564.213268 375.986628 
L 566.322956 374.731207 
L 568.414584 373.340995 
L 570.478147 371.826279 
L 572.503641 370.197341 
L 574.481061 368.464468 
L 576.400402 366.637944 
L 578.251659 364.728053 
L 580.024828 362.745081 
L 581.709904 360.699312 
L 583.296882 358.601031 
L 584.775758 356.460523 
L 586.136526 354.288072 
L 587.369183 352.093963 
L 588.463722 349.888482 
L 589.410141 347.681912 
L 590.198433 345.484539 
L 590.818594 343.306647 
L 591.26062 341.158521 
L 591.514505 339.050446 
L 591.570245 336.992706 
L 591.417835 334.995587 
L 591.047271 333.069373 
L 590.448548 331.224348 
L 589.61166 329.470799 
L 588.530261 327.816891 
L 587.218882 326.258704 
L 585.699454 324.788034 
L 583.993917 323.396671 
L 582.124211 322.076404 
L 580.112274 320.819025 
L 577.980047 319.616323 
L 575.749469 318.460089 
L 573.442479 317.342113 
L 571.081018 316.254186 
L 568.687025 315.188097 
L 566.282438 314.135638 
L 563.889199 313.088597 
L 561.529247 312.038767 
L 559.22452 310.977936 
L 556.996959 309.897895 
L 554.868503 308.790435 
L 552.861092 307.647346 
L 550.996665 306.460418 
L 549.297162 305.221441 
L 547.784523 303.922206 
L 546.480686 302.554503 
L 545.407592 301.110123 
L 544.587181 299.580855 
L 544.0391 297.95972 
L 543.761278 296.25141 
L 543.739652 294.467058 
L 543.960035 292.617864 
L 544.408237 290.715028 
L 545.070073 288.76975 
L 545.931352 286.793231 
L 546.977888 284.796672 
L 548.195493 282.791272 
L 549.569978 280.788232 
L 551.087156 278.798752 
L 552.732839 276.834033 
L 554.492838 274.905275 
L 556.352967 273.023678 
L 558.299036 271.200442 
L 560.316859 269.446768 
L 562.392246 267.773857 
L 564.511011 266.192908 
L 566.658965 264.715122 
L 568.82192 263.351699 
L 570.985688 262.113839 
L 573.136082 261.012743 
L 575.258913 260.059612 
L 577.339994 259.265645 
L 579.365607 258.641572 
L 581.330082 258.190055 
L 583.23451 257.906983 
L 585.080191 257.788034 
L 586.868425 257.828886 
L 588.600513 258.025218 
L 590.277755 258.372707 
L 591.90145 258.867032 
L 593.472899 259.503871 
L 594.993402 260.278902 
L 596.464259 261.187803 
L 597.88677 262.226253 
L 599.262236 263.389929 
L 600.591957 264.67451 
L 601.877233 266.075675 
L 603.119363 267.5891 
L 604.319649 269.210465 
L 605.47939 270.935447 
L 606.599886 272.759725 
L 607.682438 274.678977 
L 608.728345 276.688881 
L 609.738909 278.785115 
L 610.715428 280.963358 
L 611.659204 283.219287 
L 612.571536 285.548581 
L 613.453725 287.946918 
L 614.30707 290.409976 
L 615.132872 292.933434 
L 615.932431 295.512969 
L 616.707047 298.14426 
L 617.45802 300.822984 
L 618.186651 303.544821 
L 618.89424 306.305448 
L 619.582086 309.100543 
L 620.25149 311.925784 
L 620.903752 314.776851 
L 621.540172 317.64942 
L 622.162051 320.539171 
L 622.770688 323.441781 
L 623.367384 326.352928 
L 623.953438 329.268291 
L 624.530152 332.183547 
L 625.098825 335.094376 
L 625.660757 337.996455 
L 626.217248 340.885462 
L 626.769599 343.757076 
L 627.31911 346.606974 
L 627.867081 349.430836 
L 628.414812 352.224338 
L 628.963603 354.98316 
L 629.514754 357.702979 
L 630.069566 360.379473 
L 630.629338 363.008322 
L 631.195372 365.585202 
L 631.768966 368.105793 
L 632.351422 370.565772 
L 632.944038 372.960817 
L 633.548117 375.286607 
L 634.164956 377.53882 
L 634.795858 379.713134 
L 635.442121 381.805227 
L 636.105047 383.810777 
L 636.785935 385.725463 
L 637.486085 387.544963 
L 638.206797 389.264955 
L 638.949373 390.881116 
L 639.715111 392.389126 
L 640.505312 393.784663 
L 641.321276 395.063404 
L 642.164304 396.221028 
L 643.035695 397.253213 
L 643.93675 398.155637 
L 644.868768 398.923978 
L 645.83305 399.553915 
L 646.830428 400.042265 
L 647.859714 400.390763 
L 648.919173 400.602467 
L 650.007074 400.680437 
L 651.121683 400.627731 
L 652.261267 400.447409 
L 653.424094 400.14253 
L 654.60843 399.716152 
L 655.812542 399.171336 
L 657.034697 398.511139 
L 658.273163 397.738622 
L 659.526206 396.856843 
L 660.792093 395.868861 
L 662.069092 394.777735 
L 663.355469 393.586525 
L 664.64949 392.29829 
L 665.949425 390.916088 
L 667.253538 389.442979 
L 668.560098 387.882022 
L 669.867371 386.236275 
L 671.173624 384.508799 
L 672.477124 382.702652 
L 673.776139 380.820893 
L 675.068935 378.866581 
L 676.353779 376.842775 
L 677.628939 374.752535 
L 678.89268 372.598919 
L 680.143271 370.384987 
L 681.378978 368.113798 
L 682.598069 365.78841 
L 683.798809 363.411884 
L 684.979467 360.987277 
L 686.138309 358.517649 
L 687.273602 356.006059 
L 688.383614 353.455567 
L 689.46661 350.869231 
L 690.520859 348.25011 
L 691.544627 345.601264 
L 692.536181 342.925751 
L 693.493789 340.226631 
L 694.415717 337.506962 
L 695.300232 334.769805 
L 696.145601 332.018217 
L 696.950091 329.255258 
L 697.71197 326.483988 
L 698.429503 323.707464 
L 699.100959 320.928747 
L 699.724604 318.150895 
L 700.298706 315.376968 
L 700.82153 312.610024 
L 701.291345 309.853122 
L 701.706417 307.109323 
L 702.065013 304.381684 
L 702.3654 301.673265 
L 702.605846 298.987125 
L 702.784617 296.326323 
L 702.899979 293.693918 
L 702.950201 291.092969 
L 702.93355 288.526535 
L 702.848291 285.997676 
L 702.692693 283.509451 
L 702.465021 281.064917 
L 702.163547 278.667134 
L 701.78731 276.318325 
L 701.337261 274.01867 
L 700.814633 271.768038 
L 700.220665 269.566297 
L 699.556592 267.413315 
L 698.823649 265.308962 
L 698.023074 263.253106 
L 697.156102 261.245615 
L 696.223969 259.286359 
L 695.227912 257.375206 
L 694.169167 255.512025 
L 693.04897 253.696684 
L 691.868557 251.929052 
L 690.629164 250.208998 
L 689.332027 248.536389 
L 687.978383 246.911096 
L 686.569468 245.332986 
L 685.106517 243.801929 
L 683.590767 242.317793 
L 682.023455 240.880446 
L 680.405815 239.489757 
L 678.739085 238.145595 
L 677.0245 236.847828 
L 675.263297 235.596326 
L 673.456712 234.390957 
L 671.605981 233.231589 
L 669.71234 232.118091 
L 667.777025 231.050332 
L 665.801272 230.02818 
L 663.786318 229.051504 
L 661.733399 228.120173 
L 659.64375 227.234056 
L 657.518608 226.39302 
L 655.35921 225.596936 
L 653.16679 224.84567 
L 650.942587 224.139093 
L 648.687834 223.477072 
L 646.403769 222.859477 
L 644.091629 222.286175 
L 641.752648 221.757036 
L 639.388063 221.271928 
L 636.99911 220.830721 
L 634.587026 220.433282 
L 632.153047 220.07948 
L 629.698408 219.769184 
L 627.224346 219.502262 
L 624.732097 219.278584 
L 622.222897 219.098017 
L 619.697982 218.960431 
L 617.158589 218.865694 
L 614.605953 218.813675 
L 612.041311 218.804243 
z
" clip-path="url(#p61e070e02c)" style="fill: #ff0000; opacity: 0.2; stroke: #ff0000; stroke-width: 0.3; stroke-linejoin: miter"/>
   </g>
   <g id="line2d_4">
    <path d="M 364.054426 238.889096 
L 365.268266 239.875922 
L 366.684992 240.795852 
L 368.290394 241.653572 
L 370.070265 242.453766 
L 374.096574 243.900318 
L 378.650247 245.172987 
L 383.617612 246.309254 
L 391.595675 247.839887 
L 410.681299 251.256348 
L 415.743705 252.361278 
L 420.424099 253.592165 
L 424.608809 254.986488 
L 426.479761 255.756651 
L 428.184164 256.581728 
L 429.707811 257.466405 
L 431.036491 258.415365 
L 432.156331 259.433199 
L 433.063701 260.521548 
L 433.766871 261.678633 
L 434.274779 262.902481 
L 434.596365 264.191122 
L 434.740568 265.542584 
L 434.716325 266.954893 
L 434.532576 268.426079 
L 434.198259 269.954169 
L 433.722314 271.537192 
L 432.381291 274.860149 
L 430.581017 278.379173 
L 428.393002 282.078491 
L 424.540393 287.931007 
L 417.193727 298.363186 
L 412.623641 304.942519 
L 408.226968 311.696801 
L 405.511376 316.270557 
L 403.051631 320.88263 
L 400.919243 325.517245 
L 399.185721 330.158626 
L 398.490881 332.476924 
L 397.922575 334.790999 
L 397.48974 337.098877 
L 397.201315 339.398588 
L 397.066239 341.688159 
L 397.09345 343.965619 
L 397.291888 346.228995 
L 397.670491 348.476315 
L 398.237403 350.70538 
L 398.989173 352.910652 
L 399.913577 355.084069 
L 400.998174 357.217508 
L 402.230521 359.302844 
L 403.598178 361.331953 
L 405.088703 363.296712 
L 406.689655 365.188995 
L 408.388592 367.00068 
L 410.173073 368.723641 
L 412.030655 370.349756 
L 413.948899 371.870899 
L 415.915363 373.278947 
L 417.917604 374.565775 
L 419.943182 375.72326 
L 421.979655 376.743278 
L 424.014581 377.617704 
L 426.03552 378.338414 
L 428.030029 378.897284 
L 429.985668 379.286191 
L 431.889997 379.497013 
L 433.733657 379.524707 
L 435.516224 379.373168 
L 437.238886 379.047904 
L 438.902832 378.554422 
L 440.50925 377.89823 
L 442.059328 377.084834 
L 443.554256 376.119742 
L 444.995222 375.008462 
L 446.383413 373.7565 
L 447.72002 372.369364 
L 449.00623 370.852562 
L 451.432214 367.451988 
L 453.670873 363.598835 
L 455.731715 359.337164 
L 457.624249 354.711031 
L 459.357982 349.764498 
L 460.942423 344.541621 
L 462.38708 339.086461 
L 463.70146 333.443075 
L 465.449562 324.721453 
L 466.958025 315.824155 
L 468.25894 306.89988 
L 469.726102 295.215891 
L 471.508375 278.866673 
L 473.259448 262.997325 
L 474.249517 256.165254 
L 475.045273 252.378303 
L 475.618941 250.572995 
L 476.238232 249.39455 
L 476.567957 249.05417 
L 476.912644 248.88692 
L 477.273082 248.893865 
L 477.649543 249.070307 
L 478.451474 249.911311 
L 479.320323 251.369183 
L 480.257977 253.403172 
L 481.797592 257.44524 
L 484.108831 264.470752 
L 488.160093 277.852751 
L 493.833697 296.464761 
L 497.563102 307.915582 
L 500.604304 316.64327 
L 503.861849 325.337783 
L 507.342102 333.861593 
L 509.789142 339.381381 
L 512.339878 344.723429 
L 514.996197 349.846986 
L 517.759985 354.711303 
L 520.633128 359.275632 
L 523.617512 363.499223 
L 526.715023 367.341326 
L 529.927547 370.761193 
L 533.25697 373.718075 
L 534.966108 375.010162 
L 536.705179 376.171222 
L 538.474417 377.196161 
L 540.274059 378.079885 
L 542.10434 378.817301 
L 543.965496 379.403315 
L 545.857763 379.832834 
L 547.781377 380.100763 
L 549.736573 380.20201 
L 551.723587 380.13148 
L 553.742655 379.88408 
L 555.794012 379.454717 
L 557.875893 378.841304 
L 559.979732 378.051961 
L 562.095525 377.096974 
L 564.213268 375.986628 
L 566.322956 374.731207 
L 568.414584 373.340995 
L 570.478147 371.826279 
L 572.503641 370.197341 
L 576.400402 366.637944 
L 580.024828 362.745081 
L 583.296882 358.601031 
L 584.775758 356.460523 
L 586.136526 354.288072 
L 587.369183 352.093963 
L 588.463722 349.888482 
L 589.410141 347.681912 
L 590.198433 345.484539 
L 590.818594 343.306647 
L 591.26062 341.158521 
L 591.514505 339.050446 
L 591.570245 336.992706 
L 591.417835 334.995587 
L 591.047271 333.069373 
L 590.448548 331.224348 
L 589.61166 329.470799 
L 588.530261 327.816891 
L 587.218882 326.258704 
L 585.699454 324.788034 
L 583.993917 323.396671 
L 582.124211 322.076404 
L 577.980047 319.616323 
L 573.442479 317.342113 
L 566.282438 314.135638 
L 559.22452 310.977936 
L 554.868503 308.790435 
L 550.996665 306.460418 
L 549.297162 305.221441 
L 547.784523 303.922206 
L 546.480686 302.554503 
L 545.407592 301.110123 
L 544.587181 299.580855 
L 544.0391 297.95972 
L 543.761278 296.25141 
L 543.739652 294.467058 
L 543.960035 292.617864 
L 544.408237 290.715028 
L 545.070073 288.76975 
L 545.931352 286.793231 
L 546.977888 284.796672 
L 548.195493 282.791272 
L 549.569978 280.788232 
L 551.087156 278.798752 
L 554.492838 274.905275 
L 558.299036 271.200442 
L 562.392246 267.773857 
L 566.658965 264.715122 
L 570.985688 262.113839 
L 573.136082 261.012743 
L 575.258913 260.059612 
L 577.339994 259.265645 
L 579.365607 258.641572 
L 581.330082 258.190055 
L 583.23451 257.906983 
L 585.080191 257.788034 
L 586.868425 257.828886 
L 588.600513 258.025218 
L 590.277755 258.372707 
L 591.90145 258.867032 
L 593.472899 259.503871 
L 594.993402 260.278902 
L 596.464259 261.187803 
L 597.88677 262.226253 
L 599.262236 263.389929 
L 600.591957 264.67451 
L 603.119363 267.5891 
L 605.47939 270.935447 
L 607.682438 274.678977 
L 609.738909 278.785115 
L 611.659204 283.219287 
L 613.453725 287.946918 
L 615.132872 292.933434 
L 616.707047 298.14426 
L 618.89424 306.305448 
L 620.903752 314.776851 
L 623.367384 326.352928 
L 626.769599 343.757076 
L 630.069566 360.379473 
L 632.351422 370.565772 
L 634.164956 377.53882 
L 635.442121 381.805227 
L 636.785935 385.725463 
L 638.206797 389.264955 
L 639.715111 392.389126 
L 641.321276 395.063404 
L 643.035695 397.253213 
L 643.93675 398.155637 
L 644.868768 398.923978 
L 645.83305 399.553915 
L 646.830428 400.042265 
L 647.859714 400.390763 
L 648.919173 400.602467 
L 650.007074 400.680437 
L 651.121683 400.627731 
L 652.261267 400.447409 
L 653.424094 400.14253 
L 655.812542 399.171336 
L 658.273163 397.738622 
L 660.792093 395.868861 
L 663.355469 393.586525 
L 665.949425 390.916088 
L 668.560098 387.882022 
L 671.173624 384.508799 
L 673.776139 380.820893 
L 676.353779 376.842775 
L 678.89268 372.598919 
L 681.378978 368.113798 
L 683.798809 363.411884 
L 686.138309 358.517649 
L 688.383614 353.455567 
L 690.520859 348.25011 
L 692.536181 342.925751 
L 694.415717 337.506962 
L 696.145601 332.018217 
L 697.71197 326.483988 
L 699.100959 320.928747 
L 700.298706 315.376968 
L 701.291345 309.853122 
L 702.065013 304.381684 
L 702.605846 298.987125 
L 702.899979 293.693918 
L 702.93355 288.526535 
L 702.692693 283.509451 
L 702.163547 278.667134 
L 701.337261 274.01867 
L 700.220665 269.566297 
L 698.823649 265.308962 
L 697.156102 261.245615 
L 695.227912 257.375206 
L 693.04897 253.696684 
L 690.629164 250.208998 
L 687.978383 246.911096 
L 685.106517 243.801929 
L 682.023455 240.880446 
L 678.739085 238.145595 
L 675.263297 235.596326 
L 671.605981 233.231589 
L 667.777025 231.050332 
L 663.786318 229.051504 
L 659.64375 227.234056 
L 655.35921 225.596936 
L 650.942587 224.139093 
L 646.403769 222.859477 
L 641.752648 221.757036 
L 636.99911 220.830721 
L 632.153047 220.07948 
L 627.224346 219.502262 
L 622.222897 219.098017 
L 617.158589 218.865694 
L 612.041311 218.804243 
L 364.054426 238.889096 
L 364.054426 238.889096 
" clip-path="url(#p61e070e02c)" style="fill: none; stroke: #808080; stroke-opacity: 0.5; stroke-width: 20; stroke-linecap: round"/>
   </g>
   <g id="line2d_5">
    <path d="M 449.722623 419.652776 
L 480.157377 218.804243 
" clip-path="url(#p61e070e02c)" style="fill: none; stroke-dasharray: 11.1,4.8; stroke-dashoffset: 0; stroke: #000000; stroke-opacity: 0.7; stroke-width: 3"/>
   </g>
   <g id="patch_28">
    <path d="M 361.8 401.576408 
L 361.8 217.8 
" style="fill: none"/>
   </g>
   <g id="patch_29">
    <path d="M 705.6 401.576408 
L 705.6 217.8 
" style="fill: none"/>
   </g>
   <g id="patch_30">
    <path d="M 361.8 401.576408 
L 705.6 401.576408 
" style="fill: none"/>
   </g>
   <g id="patch_31">
    <path d="M 361.8 217.8 
L 705.6 217.8 
" style="fill: none"/>
   </g>
   <g id="text_4">
    <!-- (d) Black-box decision boundary (model global). -->
    <g style="fill: #262626" transform="translate(406.645312 415.791813)scale(0.12 -0.12)">
     <defs>
      <path id="ArialMT-42" d="M 469 0 
L 469 4581 
L 2188 4581 
Q 2713 4581 3030 4442 
Q 3347 4303 3526 4014 
Q 3706 3725 3706 3409 
Q 3706 3116 3547 2856 
Q 3388 2597 3066 2438 
Q 3481 2316 3704 2022 
Q 3928 1728 3928 1328 
Q 3928 1006 3792 729 
Q 3656 453 3456 303 
Q 3256 153 2954 76 
Q 2653 0 2216 0 
L 469 0 
z
M 1075 2656 
L 2066 2656 
Q 2469 2656 2644 2709 
Q 2875 2778 2992 2937 
Q 3109 3097 3109 3338 
Q 3109 3566 3000 3739 
Q 2891 3913 2687 3977 
Q 2484 4041 1991 4041 
L 1075 4041 
L 1075 2656 
z
M 1075 541 
L 2216 541 
Q 2509 541 2628 563 
Q 2838 600 2978 687 
Q 3119 775 3209 942 
Q 3300 1109 3300 1328 
Q 3300 1584 3169 1773 
Q 3038 1963 2805 2039 
Q 2572 2116 2134 2116 
L 1075 2116 
L 1075 541 
z
" transform="scale(0.015625)"/>
      <path id="ArialMT-6b" d="M 425 0 
L 425 4581 
L 988 4581 
L 988 1969 
L 2319 3319 
L 3047 3319 
L 1778 2088 
L 3175 0 
L 2481 0 
L 1384 1697 
L 988 1316 
L 988 0 
L 425 0 
z
" transform="scale(0.015625)"/>
      <path id="ArialMT-2d" d="M 203 1375 
L 203 1941 
L 1931 1941 
L 1931 1375 
L 203 1375 
z
" transform="scale(0.015625)"/>
      <path id="ArialMT-78" d="M 47 0 
L 1259 1725 
L 138 3319 
L 841 3319 
L 1350 2541 
Q 1494 2319 1581 2169 
Q 1719 2375 1834 2534 
L 2394 3319 
L 3066 3319 
L 1919 1756 
L 3153 0 
L 2463 0 
L 1781 1031 
L 1600 1309 
L 728 0 
L 47 0 
z
" transform="scale(0.015625)"/>
     </defs>
     <use xlink:href="#ArialMT-28"/>
     <use xlink:href="#ArialMT-64" x="33.300781"/>
     <use xlink:href="#ArialMT-29" x="88.916016"/>
     <use xlink:href="#ArialMT-20" x="122.216797"/>
     <use xlink:href="#ArialMT-42" x="150"/>
     <use xlink:href="#ArialMT-6c" x="216.699219"/>
     <use xlink:href="#ArialMT-61" x="238.916016"/>
     <use xlink:href="#ArialMT-63" x="294.53125"/>
     <use xlink:href="#ArialMT-6b" x="344.53125"/>
     <use xlink:href="#ArialMT-2d" x="394.53125"/>
     <use xlink:href="#ArialMT-62" x="427.832031"/>
     <use xlink:href="#ArialMT-6f" x="483.447266"/>
     <use xlink:href="#ArialMT-78" x="539.0625"/>
     <use xlink:href="#ArialMT-20" x="589.0625"/>
     <use xlink:href="#ArialMT-64" x="616.845703"/>
     <use xlink:href="#ArialMT-65" x="672.460938"/>
     <use xlink:href="#ArialMT-63" x="728.076172"/>
     <use xlink:href="#ArialMT-69" x="778.076172"/>
     <use xlink:href="#ArialMT-73" x="800.292969"/>
     <use xlink:href="#ArialMT-69" x="850.292969"/>
     <use xlink:href="#ArialMT-6f" x="872.509766"/>
     <use xlink:href="#ArialMT-6e" x="928.125"/>
     <use xlink:href="#ArialMT-20" x="983.740234"/>
     <use xlink:href="#ArialMT-62" x="1011.523438"/>
     <use xlink:href="#ArialMT-6f" x="1067.138672"/>
     <use xlink:href="#ArialMT-75" x="1122.753906"/>
     <use xlink:href="#ArialMT-6e" x="1178.369141"/>
     <use xlink:href="#ArialMT-64" x="1233.984375"/>
     <use xlink:href="#ArialMT-61" x="1289.599609"/>
     <use xlink:href="#ArialMT-72" x="1345.214844"/>
     <use xlink:href="#ArialMT-79" x="1378.515625"/>
     <use xlink:href="#ArialMT-20" x="1428.515625"/>
     <use xlink:href="#ArialMT-28" x="1456.298828"/>
     <use xlink:href="#ArialMT-6d" x="1489.599609"/>
     <use xlink:href="#ArialMT-6f" x="1572.900391"/>
     <use xlink:href="#ArialMT-64" x="1628.515625"/>
     <use xlink:href="#ArialMT-65" x="1684.130859"/>
     <use xlink:href="#ArialMT-6c" x="1739.746094"/>
     <use xlink:href="#ArialMT-20" x="1761.962891"/>
     <use xlink:href="#ArialMT-67" x="1789.746094"/>
     <use xlink:href="#ArialMT-6c" x="1845.361328"/>
     <use xlink:href="#ArialMT-6f" x="1867.578125"/>
     <use xlink:href="#ArialMT-62" x="1923.193359"/>
     <use xlink:href="#ArialMT-61" x="1978.808594"/>
     <use xlink:href="#ArialMT-6c" x="2034.423828"/>
     <use xlink:href="#ArialMT-29" x="2056.640625"/>
     <use xlink:href="#ArialMT-2e" x="2089.941406"/>
    </g>
   </g>
  </g>
 </g>
 <defs>
  <clipPath id="p79c6529c3a">
   <rect x="7.2" y="7.2" width="343.8" height="183.776408"/>
  </clipPath>
  <clipPath id="pa8bdee7818">
   <rect x="361.8" y="7.2" width="343.8" height="183.776408"/>
  </clipPath>
  <clipPath id="p087c0d2bfa">
   <rect x="7.2" y="217.8" width="343.8" height="183.776408"/>
  </clipPath>
  <clipPath id="p61e070e02c">
   <rect x="361.8" y="217.8" width="343.8" height="183.776408"/>
  </clipPath>
 </defs>
</svg>
