<?xml version="1.0" encoding="UTF-8" standalone="no"?>
<svg
   id="svg2"
   sodipodi:docname="bulb.svg"
   viewBox="0 0 156 156"
   version="1.1"
   inkscape:version="1.1.1 (c3084ef, 2021-09-22)"
   width="156"
   height="156"
   xmlns:inkscape="http://www.inkscape.org/namespaces/inkscape"
   xmlns:sodipodi="http://sodipodi.sourceforge.net/DTD/sodipodi-0.dtd"
   xmlns="http://www.w3.org/2000/svg"
   xmlns:svg="http://www.w3.org/2000/svg"
   xmlns:rdf="http://www.w3.org/1999/02/22-rdf-syntax-ns#"
   xmlns:cc="http://creativecommons.org/ns#"
   xmlns:dc="http://purl.org/dc/elements/1.1/">
  <defs
     id="defs6" />
  <sodipodi:namedview
     id="namedview8"
     bordercolor="#666666"
     inkscape:pageshadow="2"
     guidetolerance="10"
     pagecolor="#ffffff"
     gridtolerance="10"
     inkscape:window-maximized="0"
     inkscape:zoom="2.8596113"
     objecttolerance="10"
     borderopacity="1"
     inkscape:current-layer="svg2"
     inkscape:cx="91.620842"
     inkscape:cy="56.825904"
     inkscape:window-y="23"
     inkscape:window-x="0"
     inkscape:window-width="1239"
     showgrid="false"
     inkscape:pageopacity="0"
     inkscape:window-height="857"
     inkscape:pagecheckerboard="0"
     width="101px" />
  <path
     id="path4"
     inkscape:connector-curvature="0"
     d="M 28,48 C 28,21 51,0 78,0 c 27,0 50,21 50,48 0,19 -22,37 -22,54 0,5 -1,9 -6,14 v 4 c 0,2 -4,2 -4,4 0,2 4,2 4,4 0,2 -4,2 -4,4 0,2 4,2 4,4 0,2 -4,2 -4,4 0,2 3,2 3,4 0,2 -7,6 -10,12 H 67 c -3,-6 -10,-10 -10,-12 0,-2 3,-2 3,-4 0,-2 -4,-2 -4,-4 0,-2 4,-2 4,-4 0,-2 -4,-2 -4,-4 0,-2 4,-2 4,-4 0,-2 -4,-2 -4,-4 v -4 C 51,111 50,107 50,102 50,85 28,67 28,48 Z m 5,0 c 0,17 21,36 21,54 0,4 1,8 4,10 h 40 c 3,-2 4,-6 4,-10 0,-18 21,-37 21,-54 C 123,25 103,7 78,7 53,7 33,25 33,48 Z M 50,44 52.4,42.8 70,76 71.4,108 H 67 L 66,78 Z m 5,0 2,-8 h 2 l 3,8.4 3,-8.4 h 2 l 3,8.4 3,-8.4 h 2 l 3,8.4 3,-8.4 h 2 l 3,8.4 3,-8.4 h 2 l 3,8.4 3,-8.4 h 2 l 2,8 -3,-4.4 -3,8.4 H 93 L 90,39.6 87,48 H 85 L 82,39.6 79,48 H 77 L 74,39.6 71,48 H 69 L 66,39.6 63,48 H 61 L 58,39.6 Z M 84.6,108 86,76 103.6,42.8 106,44 90,78 89,108 Z"
     style="fill:#008080" />
  <metadata
     id="metadata6">
    <rdf:RDF>
      <cc:Work>
        <dc:format>image/svg+xml</dc:format>
        <dc:type
           rdf:resource="http://purl.org/dc/dcmitype/StillImage" />
        <cc:license
           rdf:resource="http://creativecommons.org/publicdomain/zero/1.0/" />
        <dc:publisher>
          <cc:Agent
             rdf:about="http://openclipart.org/">
            <dc:title>Openclipart</dc:title>
          </cc:Agent>
        </dc:publisher>
      </cc:Work>
      <cc:License
         rdf:about="http://creativecommons.org/publicdomain/zero/1.0/">
        <cc:permits
           rdf:resource="http://creativecommons.org/ns#Reproduction" />
        <cc:permits
           rdf:resource="http://creativecommons.org/ns#Distribution" />
        <cc:permits
           rdf:resource="http://creativecommons.org/ns#DerivativeWorks" />
      </cc:License>
    </rdf:RDF>
  </metadata>
</svg>
